<svg width="1206" height="393" viewBox="0 0 1206 393" fill="none" xmlns="http://www.w3.org/2000/svg">
<rect width="1206" height="393" fill="#ADFF00"/>
<path d="M175.509 290.329H110V90H174.439C193.513 90 208.665 94.8079 219.895 104.424C231.125 114.039 236.74 126.861 236.74 142.887C236.74 152.503 234.512 160.872 230.055 167.995C225.599 175.118 219.271 180.46 211.071 184.021C221.588 187.582 229.699 193.459 235.403 201.65C241.107 209.841 243.959 219.546 243.959 230.764C243.959 248.928 237.809 263.44 225.51 274.303C213.388 284.987 196.721 290.329 175.509 290.329ZM138.61 113.505V174.672H172.3C183.352 174.672 191.909 171.912 197.969 166.392C204.208 160.694 207.328 153.215 207.328 143.955C207.328 135.408 204.386 128.196 198.504 122.32C192.622 116.443 184.511 113.505 174.172 113.505H138.61ZM138.61 197.643V266.824H175.776C187.72 266.824 197.167 263.44 204.119 256.674C211.071 249.729 214.547 241.182 214.547 231.032C214.547 220.882 211.249 212.779 204.654 206.725C198.058 200.671 188.522 197.643 176.044 197.643H138.61Z" fill="black"/>
<path d="M321.089 293C300.411 293 283.923 286.322 271.623 272.967C259.323 259.612 253.174 243.051 253.174 223.286C253.174 203.698 259.323 187.315 271.623 174.138C283.923 160.783 300.411 154.105 321.089 154.105C341.588 154.105 357.988 160.783 370.288 174.138C382.765 187.315 389.004 203.698 389.004 223.286C389.004 243.051 382.765 259.612 370.288 272.967C357.988 286.322 341.588 293 321.089 293ZM290.34 257.208C297.47 265.933 307.72 270.296 321.089 270.296C334.458 270.296 344.619 265.933 351.571 257.208C358.701 248.304 362.266 236.997 362.266 223.286C362.266 209.93 358.701 198.89 351.571 190.164C344.44 181.261 334.28 176.809 321.089 176.809C307.898 176.809 297.737 181.261 290.607 190.164C283.477 198.89 279.912 209.93 279.912 223.286C279.912 236.997 283.388 248.304 290.34 257.208Z" fill="black"/>
<path d="M460.062 293C427.797 293 411.665 277.152 411.665 245.455V179.48H390.007V156.776H412.735L414.339 123.388H438.404V156.776H490.811V179.48H438.404V242.784C438.404 261.125 445.712 270.296 460.329 270.296C462.646 270.296 464.785 270.118 466.746 269.762C468.707 269.228 470.311 268.604 471.559 267.892C472.807 267.002 473.876 266.2 474.768 265.488C475.659 264.598 476.372 263.707 476.907 262.817C477.442 261.927 477.798 261.125 477.976 260.413C478.333 259.701 478.511 259.078 478.511 258.543L478.778 257.742H496.158V275.104C494.198 278.487 490.454 282.316 484.928 286.589C479.224 290.863 470.935 293 460.062 293Z" fill="black"/>
<path d="M547.133 293C532.694 293 521.553 289.082 513.71 281.247C505.866 273.412 501.945 263.529 501.945 251.599C501.945 239.668 506.401 230.052 515.314 222.751C524.227 215.45 537.774 211.8 555.956 211.8C560.947 211.8 565.939 212.156 570.93 212.868C576.099 213.403 580.021 213.937 582.695 214.471L586.438 215.539V207.259C586.438 186.959 576.812 176.809 557.561 176.809C550.965 176.809 545.172 178.234 540.181 181.083C535.189 183.754 531.803 186.425 530.02 189.096L527.346 193.103H509.966V175.741L510.768 174.672C511.303 173.96 512.194 172.981 513.442 171.734C514.69 170.31 516.116 168.885 517.72 167.461C519.503 165.858 521.731 164.255 524.405 162.653C527.079 161.05 530.02 159.625 533.229 158.379C536.437 157.132 540.181 156.153 544.459 155.441C548.915 154.55 553.55 154.105 558.363 154.105C576.188 154.105 589.736 158.646 599.005 167.728C608.453 176.809 613.176 190.164 613.176 207.793V290.329H591.786L588.577 271.097C584.834 276.083 579.843 280.891 573.604 285.521C567.008 290.507 558.184 293 547.133 293ZM551.411 271.364C561.75 271.364 570.128 268.337 576.545 262.283C583.14 256.229 586.438 249.729 586.438 242.784V235.839C578.06 233.346 567.899 232.1 555.956 232.1C546.152 232.1 539.022 233.97 534.566 237.709C530.287 241.271 528.148 245.9 528.148 251.599C528.148 264.776 535.902 271.364 551.411 271.364Z" fill="black"/>
<path d="M662.225 290.329H635.486V156.776H659.551L661.422 174.672C671.761 160.961 685.398 154.105 702.332 154.105C719.623 154.105 732.368 159.358 740.568 169.864C748.946 180.193 753.135 193.726 753.135 210.464V290.329H726.397V212.067C726.397 188.384 716.325 176.542 696.182 176.542C684.417 176.542 675.772 180.014 670.246 186.959C664.898 193.726 662.225 202.006 662.225 211.8V290.329Z" fill="black"/>
<path d="M803.405 127.395H773.993V98.0132H803.405V127.395ZM802.068 290.329H775.33V156.776H802.068V290.329Z" fill="black"/>
<path d="M885.237 293C863.49 293 846.734 286.411 834.969 273.234C823.204 260.057 817.322 243.407 817.322 223.286C817.322 203.698 823.471 187.226 835.771 173.871C848.071 160.516 864.56 153.838 885.237 153.838C889.694 153.838 893.883 154.105 897.804 154.639C901.904 155.174 905.469 155.975 908.5 157.043C911.53 157.934 914.382 159.002 917.056 160.249C919.73 161.495 921.958 162.831 923.74 164.255C925.523 165.502 927.127 166.837 928.553 168.262C930.158 169.508 931.405 170.755 932.297 172.001C933.188 173.248 933.901 174.405 934.436 175.474C935.149 176.364 935.594 177.076 935.773 177.611L936.307 178.412V195.774H918.927L918.66 195.239C918.482 194.705 918.215 194.082 917.858 193.37C917.501 192.657 916.967 191.856 916.254 190.966C915.719 189.897 915.006 188.829 914.115 187.761C913.223 186.692 912.154 185.624 910.906 184.555C909.658 183.487 908.143 182.507 906.36 181.617C904.756 180.727 902.885 179.925 900.745 179.213C898.785 178.323 896.467 177.7 893.793 177.343C891.12 176.809 888.268 176.542 885.237 176.542C871.868 176.542 861.618 180.994 854.488 189.897C847.536 198.623 844.06 209.752 844.06 223.286C844.06 236.997 847.536 248.304 854.488 257.208C861.618 265.933 871.868 270.296 885.237 270.296C890.763 270.296 895.665 269.673 899.943 268.426C904.4 267.002 907.787 265.399 910.104 263.618C912.421 261.838 914.293 259.968 915.719 258.009C917.145 255.872 918.036 254.27 918.393 253.201C918.927 252.133 919.195 251.421 919.195 251.064H936.575V268.426C936.753 268.426 936.307 269.317 935.238 271.097C934.347 272.7 932.742 274.748 930.425 277.241C928.108 279.556 925.077 281.96 921.334 284.453C917.769 286.768 912.778 288.726 906.36 290.329C899.943 292.11 892.902 293 885.237 293Z" fill="black"/>
<path d="M987.699 293C973.261 293 962.12 289.082 954.276 281.247C946.433 273.412 942.512 263.529 942.512 251.599C942.512 239.668 946.968 230.052 955.881 222.751C964.794 215.45 978.341 211.8 996.523 211.8C1001.51 211.8 1006.51 212.156 1011.5 212.868C1016.67 213.403 1020.59 213.937 1023.26 214.471L1027 215.539V207.259C1027 186.959 1017.38 176.809 998.127 176.809C991.532 176.809 985.739 178.234 980.747 181.083C975.756 183.754 972.369 186.425 970.587 189.096L967.913 193.103H950.533V175.741L951.335 174.672C951.87 173.96 952.761 172.981 954.009 171.734C955.257 170.31 956.683 168.885 958.287 167.461C960.07 165.858 962.298 164.255 964.972 162.653C967.646 161.05 970.587 159.625 973.795 158.379C977.004 157.132 980.747 156.153 985.026 155.441C989.482 154.55 994.117 154.105 998.93 154.105C1016.76 154.105 1030.3 158.646 1039.57 167.728C1049.02 176.809 1053.74 190.164 1053.74 207.793V290.329H1032.35L1029.14 271.097C1025.4 276.083 1020.41 280.891 1014.17 285.521C1007.57 290.507 998.751 293 987.699 293ZM991.978 271.364C1002.32 271.364 1010.69 268.337 1017.11 262.283C1023.71 256.229 1027 249.729 1027 242.784V235.839C1018.63 233.346 1008.47 232.1 996.523 232.1C986.719 232.1 979.589 233.97 975.132 237.709C970.854 241.271 968.715 245.9 968.715 251.599C968.715 264.776 976.469 271.364 991.978 271.364Z" fill="black"/>
<path d="M1106 290.329H1073.91V258.276H1106V290.329Z" fill="black"/>
</svg>
