<svg width="311" height="77" viewBox="0 0 311 77" fill="none" xmlns="http://www.w3.org/2000/svg">
<path fill-rule="evenodd" clip-rule="evenodd" d="M311 10.4061C311 4.6594 306.359 0.000743476 300.633 0.000723808L89.9277 0L76.7358 8.52949L18.2299 8.53025L1.46088 23.9324H0V66.5946C0 72.3414 4.64131 77 10.3667 77H284.601L311 56.1892V10.4061Z" fill="#FCFC03"/>
<path d="M142.68 49.8224H138.892C138.593 49.8224 138.444 49.7475 138.313 49.504L132.062 39.1464V49.4291C132.062 49.6726 131.913 49.8224 131.651 49.8224H129.674C129.394 49.8224 129.263 49.6726 129.263 49.4291V37.1049C129.263 36.8615 129.394 36.7115 129.674 36.7115H133.443C133.741 36.7115 133.891 36.8052 134.021 37.03L140.272 47.4062V37.1049C140.272 36.8615 140.44 36.7115 140.702 36.7115H142.68C142.941 36.7115 143.09 36.8615 143.09 37.1049V49.4291C143.09 49.6726 142.941 49.8224 142.68 49.8224Z" fill="black"/>
<path d="M124.909 39.7084V46.8256C124.909 48.8858 123.939 49.8224 121.793 49.8224H114.291C112.164 49.8224 111.157 48.8858 111.157 46.8256V39.7084C111.157 37.6481 112.164 36.7115 114.291 36.7115H121.793C123.939 36.7115 124.909 37.6481 124.909 39.7084ZM121.886 45.9641V40.57C121.886 39.4087 121.606 39.1652 120.225 39.1652H115.84C114.459 39.1652 114.179 39.4087 114.179 40.57V45.9641C114.179 47.1254 114.459 47.3688 115.84 47.3688H120.225C121.606 47.3688 121.886 47.1254 121.886 45.9641Z" fill="black"/>
<path d="M92.4523 49.4291V39.1652H87.8246C87.5447 39.1652 87.4141 39.0154 87.4141 38.7719V37.1049C87.4141 36.8615 87.5447 36.7115 87.8246 36.7115H100.084C100.364 36.7115 100.495 36.8615 100.495 37.1049V38.7719C100.495 39.0154 100.364 39.1652 100.084 39.1652H95.4752V49.4291C95.4752 49.6726 95.3073 49.8224 95.0461 49.8224H92.8628C92.6016 49.8224 92.4523 49.6726 92.4523 49.4291Z" fill="black"/>
<path d="M78.6834 37.1049V47.3688H87.1924C87.4536 47.3688 87.6029 47.5187 87.6029 47.7622V49.4291C87.6029 49.6726 87.4536 49.8224 87.1924 49.8224H76.071C75.7911 49.8224 75.6605 49.6726 75.6605 49.4291V37.1049C75.6605 36.8615 75.7911 36.7115 76.071 36.7115H78.2542C78.5155 36.7115 78.6834 36.8615 78.6834 37.1049Z" fill="black"/>
<path d="M71.0947 37.1049V49.4291C71.0947 49.6726 70.9268 49.8224 70.6655 49.8224H68.4823C68.2024 49.8224 68.0718 49.6726 68.0718 49.4291V37.1049C68.0718 36.8615 68.2024 36.7115 68.4823 36.7115H70.6655C70.9268 36.7115 71.0947 36.8615 71.0947 37.1049Z" fill="black"/>
<path d="M53.3731 37.1049V45.9641C53.3731 47.1254 53.6343 47.3688 55.0338 47.3688H58.9151C60.3146 47.3688 60.5945 47.1254 60.5945 45.9641V37.1049C60.5945 36.8615 60.7438 36.7115 61.005 36.7115H63.1883C63.4495 36.7115 63.6174 36.8615 63.6174 37.1049V46.8256C63.6174 48.8858 62.6471 49.8224 60.5012 49.8224H53.4851C51.3392 49.8224 50.3502 48.8858 50.3502 46.8256V37.1049C50.3502 36.8615 50.4808 36.7115 50.7607 36.7115H52.9439C53.2238 36.7115 53.3731 36.8615 53.3731 37.1049Z" fill="black"/>
<path d="M46.3169 40.3827C46.3169 42.0121 45.7385 42.8924 44.4323 43.1921C45.8877 43.4543 46.5035 44.3346 46.5035 46.039V46.9005C46.5035 48.9046 45.5705 49.8224 43.4619 49.8224H33.5535C33.2736 49.8224 33.143 49.6726 33.143 49.4291V37.1049C33.143 36.8615 33.2736 36.7115 33.5535 36.7115H43.2567C45.3653 36.7115 46.3169 37.6294 46.3169 39.6335V40.3827ZM42.1184 44.4095H36.1659V47.3688H42.1184C43.2007 47.3688 43.4806 47.1066 43.4806 46.1701V45.6082C43.4806 44.6718 43.2007 44.4095 42.1184 44.4095ZM36.1659 39.1652V42.0121H41.9318C42.9954 42.0121 43.294 41.7312 43.294 40.8133V40.3639C43.294 39.4274 42.9954 39.1652 41.9318 39.1652H36.1659Z" fill="black"/>
<path d="M277.857 35.2422L272.948 31.5556H254.784L253.602 35.2422H263.184L258.038 51.1564H262.002L267.129 35.2422H277.857Z" fill="black"/>
<path d="M210.075 31.5556L205.148 35.2422H223.73L224.93 31.5556H210.075Z" fill="black"/>
<path d="M205.142 35.2331L199.997 51.1473H203.96L208.342 37.5873L205.142 35.2331Z" fill="black"/>
<path d="M224.926 31.5556L219.562 48.1451L221.434 47.9991L213.743 42.1408H208.034L219.434 51.1564H222.543L228.126 33.9099L224.926 31.5556Z" fill="black"/>
<path d="M176.712 41.1735L181.386 38.8558L182.985 33.9099L179.785 31.5556H158.403L153.457 35.2422H178.584L177.258 39.4032H167.184L166.203 42.4145H176.276L173.457 51.1564L178.167 48.8021L179.858 43.5643L176.694 41.2283L176.712 41.1735Z" fill="black"/>
<path d="M160.567 47.3831L163.477 38.2944L160.241 35.8671L155.404 51.1427H173.459L174.659 47.3831H160.567Z" fill="black"/>
<path d="M189.047 33.5705L185.846 31.2162L180.21 48.627L183.61 51.1455H197.974L199.192 47.386H184.573L189.047 33.5705Z" fill="black"/>
<path d="M232.568 39.4854L233.204 37.5691L230.023 35.2331L228.205 40.8177L231.367 43.1354V43.1537H245.55L244.187 47.3878H226.131L224.932 51.1473H242.969L247.696 48.793L250.023 41.6024L247.096 39.4489L232.568 39.4854Z" fill="black"/>
<path d="M234.938 31.5556L230.029 35.2422H251.648L252.847 31.5556H234.938Z" fill="black"/>
<path d="M11.4033 40.6822L16.9668 35.2772H34.7698L38.4258 32.2568H101.593C104.456 32.2568 106.777 34.5861 106.777 37.4595V47.9949L99.6237 55.1487H16.5867C13.724 55.1487 11.4033 52.8193 11.4033 49.9459V40.6822Z" fill="#FCFC03"/>
<path d="M32.1595 40.5062C32.1595 41.3303 32.0102 41.9671 31.7116 42.4166C31.4131 42.8661 30.9341 43.1658 30.2748 43.3156C31.0088 43.453 31.5375 43.7464 31.8609 44.1959C32.1844 44.6454 32.3461 45.301 32.3461 46.1625V47.0241C32.3461 48.0355 32.1035 48.7785 31.6183 49.2529C31.1332 49.7149 30.3619 49.9459 29.3045 49.9459H19.396C19.1224 49.9459 18.9855 49.8148 18.9855 49.5526V37.2285C18.9855 36.9662 19.1224 36.8351 19.396 36.8351H29.0992C30.1566 36.8351 30.9279 37.0724 31.4131 37.5469C31.9107 38.0089 32.1595 38.7456 32.1595 39.757V40.5062ZM22.0084 44.5331V47.4924H27.961C28.5083 47.4924 28.8691 47.4112 29.0433 47.2489C29.2299 47.0865 29.3232 46.7681 29.3232 46.2937V45.7318C29.3232 45.2573 29.2299 44.9389 29.0433 44.7765C28.8691 44.6142 28.5083 44.5331 27.961 44.5331H22.0084ZM22.0084 42.1357H27.7744C28.3093 42.1357 28.6701 42.0545 28.8567 41.8922C29.0433 41.7174 29.1366 41.3989 29.1366 40.9369V40.4874C29.1366 40.0129 29.0433 39.6945 28.8567 39.5322C28.6701 39.3699 28.3093 39.2887 27.7744 39.2887H22.0084V42.1357Z" fill="black"/>
<path d="M41.0817 46.0876C41.0817 46.3748 41.1004 46.6121 41.1377 46.7994C41.1875 46.9866 41.2683 47.1302 41.3803 47.2301C41.5047 47.33 41.6726 47.3987 41.8841 47.4362C42.108 47.4736 42.3941 47.4924 42.7425 47.4924H46.6237C46.9721 47.4924 47.252 47.4736 47.4634 47.4362C47.6874 47.3987 47.8615 47.33 47.9859 47.2301C48.1103 47.1302 48.1912 46.9866 48.2285 46.7994C48.2783 46.6121 48.3031 46.3748 48.3031 46.0876V37.2285C48.3031 36.9662 48.44 36.8351 48.7137 36.8351H50.8969C51.183 36.8351 51.3261 36.9662 51.3261 37.2285V46.9492C51.3261 47.9856 51.0773 48.7472 50.5797 49.2342C50.0821 49.7087 49.2921 49.9459 48.2098 49.9459H41.1937C40.1114 49.9459 39.3152 49.7087 38.8052 49.2342C38.3076 48.7472 38.0588 47.9856 38.0588 46.9492V37.2285C38.0588 36.9662 38.1956 36.8351 38.4693 36.8351H40.6525C40.9387 36.8351 41.0817 36.9662 41.0817 37.2285V46.0876Z" fill="black"/>
<path d="M60.6696 49.5526C60.6696 49.8148 60.5266 49.9459 60.2404 49.9459H58.0572C57.7835 49.9459 57.6467 49.8148 57.6467 49.5526V37.2285C57.6467 36.9662 57.7835 36.8351 58.0572 36.8351H60.2404C60.5266 36.8351 60.6696 36.9662 60.6696 37.2285V49.5526Z" fill="black"/>
<path d="M70.1235 47.4924H78.6325C78.9062 47.4924 79.043 47.6235 79.043 47.8857V49.5526C79.043 49.8148 78.9062 49.9459 78.6325 49.9459H67.5111C67.2375 49.9459 67.1006 49.8148 67.1006 49.5526V37.2285C67.1006 36.9662 67.2375 36.8351 67.5111 36.8351H69.6944C69.9805 36.8351 70.1235 36.9662 70.1235 37.2285V47.4924Z" fill="black"/>
<path d="M93.6448 36.8351C94.9261 36.8351 95.9337 37.1848 96.6677 37.884C97.4016 38.5708 97.7686 39.5385 97.7686 40.7871V45.994C97.7686 47.2426 97.4016 48.2166 96.6677 48.9158C95.9337 49.6026 94.9261 49.9459 93.6448 49.9459H84.8372C84.5636 49.9459 84.4267 49.8148 84.4267 49.5526V37.2285C84.4267 36.9662 84.5636 36.8351 84.8372 36.8351H93.6448ZM87.4496 47.4924H92.4505C93.2964 47.4924 93.8936 47.3488 94.2419 47.0616C94.5902 46.7619 94.7644 46.2562 94.7644 45.5445V41.2366C94.7644 40.5249 94.5902 40.0254 94.2419 39.7382C93.8936 39.4386 93.2964 39.2887 92.4505 39.2887H87.4496V47.4924Z" fill="black"/>
</svg>
