<?xml version="1.0" encoding="UTF-8"?>
<svg id="logosandtypes_com" data-name="logosandtypes com" xmlns="http://www.w3.org/2000/svg" viewBox="0 0 150 150">
  <defs>
    <style>
      .cls-1 {
        fill: #ff5300;
      }

      .cls-2 {
        fill: none;
      }
    </style>
  </defs>
  <path class="cls-2" d="M0,0H150V150H0V0Z"/>
  <path class="cls-1" d="M75.36,8.12c1.48,0,3.22,.13,3.22,.13-5.1,6.04-8.05,13.56-8.73,21.35-19.47,3.22-34.64,18.79-37.45,38.39-8.73,.94-18.53,4.97-24.16,10.61C6.89,39.66,36.83,8.12,75.36,8.12Zm9.67,117.06c-1.75,.27-3.62,.4-5.37,.4-3.09,0-6.18-.27-9.26-.81-2.42,5.77-5.5,11.14-9.4,16.11-24.57-5.37-44.03-24.16-50.48-48.46,6.04-7.12,20-11.41,28.73-11.41,18.53,0,28.33,9.8,31.82,25.1-11.14-2.95-17.72-9.26-22.15-18.53-2.55-.94-5.24-1.34-7.92-1.34-2.42,0-4.83,.4-7.25,1.07,4.97,18.79,23.09,32.76,45.24,32.76,20.41,0,29.13-10.34,29.13-10.34v-15.84s-10.07,10.47-22.55,12.48c-2.82-20-18.66-35.58-38.53-38.39,3.22-15.84,15.3-24.84,31.68-24.84s29.67,11.95,29.67,11.95v-15.57s-8.46-7.92-23.63-9.67c.4-6.98,4.97-15.71,9.8-18.93,20.54,6.44,40.41,23.9,46.05,49.13,0,0-9.13,9.13-26.04,9.13-13.96,0-22.82-6.98-27.79-19.33-2.55-.94-5.37-1.34-8.05-1.34s-5.1,.4-7.52,1.34c5.5,19.73,22.82,32.89,42.15,32.89s29.13-8.73,29.13-8.73c0,39.33-30.07,67.53-65.78,68.2,4.16-3.89,7.38-12.75,8.32-17.05Z"/>
</svg>