<svg width="439" height="693" viewBox="0 0 439 693" fill="none" xmlns="http://www.w3.org/2000/svg">
<g filter="url(#filter0_d_616_476)">
<path d="M25 45.4679C25 43.8111 26.3432 42.4679 28 42.4679H94.9567C95.564 42.4679 96.1662 42.3573 96.7338 42.1414L154.447 20.1959C154.787 20.0664 155.148 20 155.513 20H421C422.657 20 424 21.3431 424 23V659.474C424 661.131 422.657 662.474 421 662.474H368.171C367.607 662.474 367.047 662.569 366.515 662.756L366.846 663.7L366.515 662.756L315.017 680.831C314.698 680.943 314.362 681 314.024 681H28C26.3432 681 25 679.657 25 678V45.4679Z" fill="#202020" stroke="url(#paint0_linear_616_476)" stroke-width="2"/>
<path d="M16 45.1968C16 42.9876 17.7909 41.1968 20 41.1968H86.965C87.4454 41.1968 87.9219 41.1102 88.3717 40.9413L146.098 19.2555C146.548 19.0865 147.024 19 147.505 19H413C415.209 19 417 20.7909 417 23V651.697C417 653.906 415.209 655.697 413 655.697H360.163C359.717 655.697 359.274 655.772 358.853 655.918L307.342 673.779C306.92 673.925 306.478 674 306.031 674H20C17.7909 674 16 672.209 16 670V45.1968Z" fill="url(#paint1_linear_616_476)"/>
</g>
<defs>
<filter id="filter0_d_616_476" x="0" y="0" width="439" height="693" filterUnits="userSpaceOnUse" color-interpolation-filters="sRGB">
<feFlood flood-opacity="0" result="BackgroundImageFix"/>
<feColorMatrix in="SourceAlpha" type="matrix" values="0 0 0 0 0 0 0 0 0 0 0 0 0 0 0 0 0 0 127 0" result="hardAlpha"/>
<feOffset dx="-1" dy="-4"/>
<feGaussianBlur stdDeviation="7.5"/>
<feComposite in2="hardAlpha" operator="out"/>
<feColorMatrix type="matrix" values="0 0 0 0 0.713889 0 0 0 0 0.713889 0 0 0 0 0.713889 0 0 0 1 0"/>
<feBlend mode="normal" in2="BackgroundImageFix" result="effect1_dropShadow_616_476"/>
<feBlend mode="normal" in="SourceGraphic" in2="effect1_dropShadow_616_476" result="shape"/>
</filter>
<linearGradient id="paint0_linear_616_476" x1="224.5" y1="19" x2="224.5" y2="682" gradientUnits="userSpaceOnUse">
<stop stop-color="white" stop-opacity="0"/>
<stop offset="0.506667" stop-color="white"/>
<stop offset="1" stop-color="#95CCFF"/>
</linearGradient>
<linearGradient id="paint1_linear_616_476" x1="216.5" y1="19" x2="216.5" y2="674" gradientUnits="userSpaceOnUse">
<stop offset="0.43" stop-color="#00172C"/>
<stop offset="1" stop-color="#0059AB"/>
</linearGradient>
</defs>
</svg>
