<svg xmlns="http://www.w3.org/2000/svg" version="1.1" xmlns:xlink="http://www.w3.org/1999/xlink" width="512" height="512" x="0" y="0" viewBox="0 0 512.6 512.6" style="enable-background:new 0 0 512 512" xml:space="preserve" class=""><g><path d="M227.6 270.06c0 20.56-14.73 37.29-33.25 37.29-18.23 0-33.25-16.73-33.25-37.29 0-20.55 14.73-37.29 33.25-37.29 18.66 0 33.54 16.89 33.25 37.29zM350.53 270.06c0 20.56-14.58 37.29-33.25 37.29-18.23 0-33.25-16.73-33.25-37.29 0-20.55 14.73-37.29 33.25-37.29 18.67 0 33.54 16.89 33.25 37.29z" fill="#ffffff" opacity="1" data-original="#000000" class=""></path><path d="M457.21 0H55.39C24.8 0 0 24.8 0 55.39v401.82c0 30.59 24.8 55.39 55.39 55.39h401.82c30.59 0 55.39-24.8 55.39-55.39V55.39C512.6 24.8 487.8 0 457.21 0zm-18.12 349.4c-.02.34-.2.64-.48.85-31.64 23.24-62.3 37.35-92.53 46.7-.48.15-1-.03-1.29-.44-6.99-9.72-13.33-19.97-18.89-30.73-.32-.63-.03-1.39.63-1.64a190.04 190.04 0 0 0 28.87-13.74c.73-.43.78-1.47.1-1.97-1.95-1.45-3.89-2.98-5.74-4.51-.35-.28-.82-.34-1.21-.14-59.84 27.64-125.39 27.64-185.93 0-.4-.18-.87-.12-1.2.16-1.85 1.52-3.79 3.04-5.73 4.49-.67.5-.61 1.54.11 1.97 9.22 5.28 18.8 9.94 28.86 13.75.66.25.97 1 .65 1.63-5.44 10.78-11.79 21.03-18.9 30.74-.31.4-.82.58-1.3.43-30.09-9.35-60.74-23.46-92.38-46.7-.27-.21-.46-.53-.49-.87-6.44-69.03 6.7-138.92 54.66-210.58.12-.19.29-.34.5-.42a303.91 303.91 0 0 1 75.3-23.36c.49-.07.97.15 1.21.57 3.27 5.79 7 13.2 9.53 19.26 27.85-4.25 56.14-4.25 84.58 0 2.52-5.93 6.12-13.47 9.38-19.26.24-.44.72-.66 1.21-.57a305.335 305.335 0 0 1 75.3 23.36c.21.08.38.23.48.44 41.78 61.45 62.42 130.77 54.7 210.58z" fill="#ffffff" opacity="1" data-original="#000000" class=""></path></g></svg>