<svg width="1728" height="121" viewBox="0 0 1728 121" fill="none" xmlns="http://www.w3.org/2000/svg">
<g style="mix-blend-mode:screen" clip-path="url(#clip0_323_3370)">
<path d="M1592 40C1592 39.4485 1619.76 39 1654 39C1688.24 39 1716 39.4485 1716 40C1716 40.5516 1688.24 41 1654 41C1619.76 41 1592 40.5516 1592 40Z" fill="url(#paint0_radial_323_3370)"/>
</g>
<g style="mix-blend-mode:screen" clip-path="url(#clip1_323_3370)">
<path d="M1177 2.00007C1177 0.897001 1266.55 5.76581e-05 1377 4.80021e-05C1487.45 3.83461e-05 1577 0.896966 1577 2.00003C1577 3.10309 1487.45 4.00004 1377 4.00005C1266.55 4.00006 1177 3.10313 1177 2.00007Z" fill="url(#paint1_radial_323_3370)"/>
</g>
<g style="mix-blend-mode:screen" clip-path="url(#clip2_323_3370)">
<path d="M514 2.00012C514 0.897053 424.452 0.000125447 314 0.000135103C203.548 0.000144759 114 0.897088 114 2.00015C114 3.10322 203.548 4.00014 314 4.00014C424.452 4.00013 514 3.10318 514 2.00012Z" fill="url(#paint2_radial_323_3370)"/>
</g>
<path d="M1824 41L957 41.0001L940 24.0001L864 24.0001" stroke="url(#paint3_linear_323_3370)" stroke-width="2"/>
<path d="M-96 41.0002L771 41.0001L788 24.0001L864 24.0001" stroke="url(#paint4_linear_323_3370)" stroke-width="2"/>
<path d="M1824 51L957 51.0001L940 34.0001L864 34.0001" stroke="url(#paint5_linear_323_3370)" stroke-opacity="0.32" stroke-width="2"/>
<path d="M-96 51.0002L771 51.0001L788 34.0001L864 34.0001" stroke="url(#paint6_linear_323_3370)" stroke-opacity="0.32" stroke-width="2"/>
<g style="mix-blend-mode:screen" clip-path="url(#clip3_323_3370)">
<path d="M134 40.0002C134 39.4486 161.76 39.0002 196 39.0002C230.24 39.0002 258 39.4486 258 40.0002C258 40.5517 230.24 41.0002 196 41.0002C161.76 41.0002 134 40.5517 134 40.0002Z" fill="url(#paint7_radial_323_3370)"/>
</g>
<g filter="url(#filter0_d_323_3370)">
<path d="M864 105.702L870.928 114.676L857.072 114.676L864 105.702Z" fill="#F0DBAF"/>
</g>
<defs>
<filter id="filter0_d_323_3370" x="851.072" y="99.7019" width="25.8564" height="20.9737" filterUnits="userSpaceOnUse" color-interpolation-filters="sRGB">
<feFlood flood-opacity="0" result="BackgroundImageFix"/>
<feColorMatrix in="SourceAlpha" type="matrix" values="0 0 0 0 0 0 0 0 0 0 0 0 0 0 0 0 0 0 127 0" result="hardAlpha"/>
<feOffset/>
<feGaussianBlur stdDeviation="3"/>
<feComposite in2="hardAlpha" operator="out"/>
<feColorMatrix type="matrix" values="0 0 0 0 1 0 0 0 0 0.729412 0 0 0 0 0.129412 0 0 0 1 0"/>
<feBlend mode="normal" in2="BackgroundImageFix" result="effect1_dropShadow_323_3370"/>
<feBlend mode="normal" in="SourceGraphic" in2="effect1_dropShadow_323_3370" result="shape"/>
</filter>
<radialGradient id="paint0_radial_323_3370" cx="0" cy="0" r="1" gradientUnits="userSpaceOnUse" gradientTransform="translate(1654 40.0006) rotate(180) scale(61.991 0.999613)">
<stop stop-color="white"/>
<stop offset="0.1375" stop-color="#FFBA21"/>
<stop offset="0.2097" stop-color="#FFAE00"/>
<stop offset="0.2424" stop-color="#DA9500"/>
<stop offset="0.2882" stop-color="#AD7600"/>
<stop offset="0.3386" stop-color="#835A00"/>
<stop offset="0.3924" stop-color="#604200"/>
<stop offset="0.4505" stop-color="#422D00"/>
<stop offset="0.5142" stop-color="#2A1D00"/>
<stop offset="0.5859" stop-color="#171000"/>
<stop offset="0.6702" stop-color="#0A0700"/>
<stop offset="0.779" stop-color="#020100"/>
<stop offset="1"/>
</radialGradient>
<radialGradient id="paint1_radial_323_3370" cx="0" cy="0" r="1" gradientUnits="userSpaceOnUse" gradientTransform="translate(1377 2.00111) rotate(180) scale(199.971 1.99923)">
<stop stop-color="white"/>
<stop offset="0.1375" stop-color="#FFBA21"/>
<stop offset="0.2097" stop-color="#FFAE00"/>
<stop offset="0.2424" stop-color="#DA9500"/>
<stop offset="0.2882" stop-color="#AD7600"/>
<stop offset="0.3386" stop-color="#835A00"/>
<stop offset="0.3924" stop-color="#604200"/>
<stop offset="0.4505" stop-color="#422D00"/>
<stop offset="0.5142" stop-color="#2A1D00"/>
<stop offset="0.5859" stop-color="#171000"/>
<stop offset="0.6702" stop-color="#0A0700"/>
<stop offset="0.779" stop-color="#020100"/>
<stop offset="1"/>
</radialGradient>
<radialGradient id="paint2_radial_323_3370" cx="0" cy="0" r="1" gradientUnits="userSpaceOnUse" gradientTransform="translate(313.999 2.0012) scale(199.971 1.99923)">
<stop stop-color="white"/>
<stop offset="0.1375" stop-color="#FFBA21"/>
<stop offset="0.2097" stop-color="#FFAE00"/>
<stop offset="0.2424" stop-color="#DA9500"/>
<stop offset="0.2882" stop-color="#AD7600"/>
<stop offset="0.3386" stop-color="#835A00"/>
<stop offset="0.3924" stop-color="#604200"/>
<stop offset="0.4505" stop-color="#422D00"/>
<stop offset="0.5142" stop-color="#2A1D00"/>
<stop offset="0.5859" stop-color="#171000"/>
<stop offset="0.6702" stop-color="#0A0700"/>
<stop offset="0.779" stop-color="#020100"/>
<stop offset="1"/>
</radialGradient>
<linearGradient id="paint3_linear_323_3370" x1="957" y1="40.0042" x2="1824" y2="40.0041" gradientUnits="userSpaceOnUse">
<stop stop-color="#FFA600"/>
<stop offset="1" stop-color="#FFA600" stop-opacity="0"/>
</linearGradient>
<linearGradient id="paint4_linear_323_3370" x1="771" y1="40.0042" x2="-96" y2="40.0043" gradientUnits="userSpaceOnUse">
<stop stop-color="#FFA600"/>
<stop offset="1" stop-color="#FFA600" stop-opacity="0"/>
</linearGradient>
<linearGradient id="paint5_linear_323_3370" x1="957" y1="50.0042" x2="1824" y2="50.0041" gradientUnits="userSpaceOnUse">
<stop stop-color="#FFA600"/>
<stop offset="1" stop-color="#FFA600" stop-opacity="0"/>
</linearGradient>
<linearGradient id="paint6_linear_323_3370" x1="771" y1="50.0042" x2="-96" y2="50.0043" gradientUnits="userSpaceOnUse">
<stop stop-color="#FFA600"/>
<stop offset="1" stop-color="#FFA600" stop-opacity="0"/>
</linearGradient>
<radialGradient id="paint7_radial_323_3370" cx="0" cy="0" r="1" gradientUnits="userSpaceOnUse" gradientTransform="translate(196 40.0007) rotate(180) scale(61.991 0.999613)">
<stop stop-color="white"/>
<stop offset="0.1375" stop-color="#FFBA21"/>
<stop offset="0.2097" stop-color="#FFAE00"/>
<stop offset="0.2424" stop-color="#DA9500"/>
<stop offset="0.2882" stop-color="#AD7600"/>
<stop offset="0.3386" stop-color="#835A00"/>
<stop offset="0.3924" stop-color="#604200"/>
<stop offset="0.4505" stop-color="#422D00"/>
<stop offset="0.5142" stop-color="#2A1D00"/>
<stop offset="0.5859" stop-color="#171000"/>
<stop offset="0.6702" stop-color="#0A0700"/>
<stop offset="0.779" stop-color="#020100"/>
<stop offset="1"/>
</radialGradient>
<clipPath id="clip0_323_3370">
<rect width="124" height="2" fill="white" transform="translate(1716 41) rotate(180)"/>
</clipPath>
<clipPath id="clip1_323_3370">
<rect width="400" height="4" fill="white" transform="translate(1577 4.00003) rotate(180)"/>
</clipPath>
<clipPath id="clip2_323_3370">
<rect width="400" height="4" fill="white" transform="matrix(1 -8.74228e-08 -8.74228e-08 -1 114 4.00015)"/>
</clipPath>
<clipPath id="clip3_323_3370">
<rect width="124" height="2" fill="white" transform="translate(258 41.0002) rotate(180)"/>
</clipPath>
</defs>
</svg>
