<svg width="150" height="150" viewBox="0 0 370 480" fill="none" xmlns="http://www.w3.org/2000/svg" xmlns:xlink="http://www.w3.org/1999/xlink">
	<desc>
		Created with Pixso.
	</desc>
	<defs/>
	<path id="path" d="M19 60.78C19 86.99 19.25 143.41 19.58 186.15L20.12 263.96L36.49 263.96L52.7 264L53.03 267.73C54.66 283.38 58.12 295.04 62.62 306.57C67.11 318.18 73.49 329.45 81.53 340.02C97.49 360.92 118.28 376.53 143.11 385.34L152.19 388.19L168.52 428.87C177.69 451.71 185.35 470.34 185.64 470.34C185.89 470.34 193.56 451.71 202.72 428.87L219.22 388.19L228.35 385.25C252.59 376.4 273.63 361.19 289.59 340.23C305.29 319.63 315.04 295.56 318 268.47L318.54 263.83L334.75 263.96L351.12 263.96L351.66 186.15C352.46 79.5 352.46 13 351.5 14.09C351.12 14.53 337.54 47.93 321.29 88.31C305.17 128.64 290.05 165.11 290.05 165.06C289.96 165.11 289.01 163.13 280.34 153.71C253.88 126.14 220.93 112.2 185.77 112.15C149.44 112.11 118.23 125.96 91.24 153.18C82.49 162.35 81.07 165.33 80.99 165.41C80.57 164.58 66.07 128.64 49.95 88.31C33.7 47.93 20.12 14.53 19.75 14C19.33 13.52 19 34.08 19 60.78ZM53.45 142.58L69.66 183.04L66.45 189.74C59.45 204.34 54.03 223.28 52.87 238.88L52.32 246.51L44.62 246.51L36.41 246.51L36.41 180.19C36.41 143.72 36.16 110.49 35.91 106.54C35.66 101.76 35.74 99.75 36.24 100.67C36.78 101.41 44.45 120.31 53.45 142.58ZM335 173.3L334.75 246.51L326.63 246.51L318.84 246.56L318.34 238.23C317.17 222.62 312.04 204.65 305.09 190.05L301.59 183.04L318.34 141.39C327.58 118.47 335.17 99.83 335.17 99.92C335.25 100.14 335.17 133.15 335 173.3ZM209.35 133.02C237.18 139.55 258.09 153.36 278.51 179.49L282.21 185.01L270.09 215.69L257.68 246.51L185.64 246.51L113.57 246.51L101.15 215.69L88.9 185.14L92.82 179.31C102.15 165.59 120.23 149.72 138.27 141.09C148.02 136.61 156.35 133.81 170.98 131.44C180.35 130 197.35 130.3 209.35 133.02ZM87.36 227.09C91.49 237.35 94.86 245.9 94.86 246.16C94.86 246.34 89.2 246.51 82.24 246.51C70.78 246.51 69.82 246.47 69.82 246.42C69.91 241.25 70.82 234.15 72.16 227.27C73.45 220.69 75.24 214.47 76.82 210.08C78.32 206.14 78.53 205.61 78.53 205.7C78.86 206.53 83.28 216.79 87.36 227.09ZM297.25 219.6C298.84 225.56 301.79 241.34 301.42 246.42C301.42 246.47 300.46 246.51 288.92 246.51C277.13 246.51 276.42 246.51 276.38 246.51C276.63 245.68 280.71 234.76 284.92 224.33L292.51 205.26L294.55 210.39C295.42 212.49 296.3 216.13 297.25 219.6ZM122.44 314.24C133.61 341.81 142.98 365.83 143.02 365.79C143.06 365.75 138.4 363.86 134.27 361.76C118.86 353.74 104.82 341.59 94.11 327.17C89.45 320.86 85.2 313.89 81.95 307.01C75.74 293.99 71.36 277.94 70.45 266.41L70.2 263.96L86.4 263.96L102.32 263.96L122.44 314.24ZM250.18 264.48C250.18 264.88 240.51 289.16 228.72 318.53L207.14 372.15L200.1 373.33C191.1 374.64 180.1 374.6 171.14 373.33L164.35 372.19L142.52 318.53C130.73 289.16 121.07 264.88 121.07 264.48C121.07 264.22 150.11 263.96 185.64 263.96C221.14 263.96 250.18 264.22 250.18 264.48ZM300.79 266.41C300.79 270.67 297.55 285.04 295.13 292.41C284.84 322.22 264.93 347.12 237.01 361.63C232.93 363.73 228.93 365.61 228.76 365.44C228.6 365.26 237.64 341.81 248.8 314.24L268.97 263.96L284.92 263.96L301.04 264L300.79 266.41ZM199.27 391.92C199.1 392.22 196.18 399.33 192.6 408.22C189.02 417.12 185.89 424.49 185.64 424.49C185.35 424.49 182.23 417.12 178.64 408.22C175.06 399.33 172.1 392.22 172.02 391.96C171.85 391.7 178.1 392.57 185.81 392.57C193.47 392.57 199.35 391.65 199.27 391.92Z" fill="#FF0000" fill-opacity="1.000000" fill-rule="nonzero"/>
</svg>

