<svg width="1001" height="832" viewBox="0 0 1001 832" fill="none" xmlns="http://www.w3.org/2000/svg">
<path d="M1000.96 531.062V415.778H847.368C847.765 415.691 848.18 415.622 848.56 415.535H843.754L843.668 415.432L945.326 311.403L945.429 311.524C946.328 305.403 946.795 299.093 946.795 292.696V0.578125H795.57V262.181H662.948V0.578125H204.104C137.404 0.578125 83.1172 56.6642 83.1172 125.631V311.299L184.706 415.778H0.960938V831.789H425.158L523.946 730.7L575.398 783.345L622.752 831.789H1000.96V720.188H657.779V688.895H1000.96V562.338H657.779V531.062H1000.96ZM209.118 778.971H49.3695V468.216H209.118V778.971ZM256.126 261.022H234.342V156.146H256.126V156.319H511.965V187.578H256.126V261.022ZM451.8 696H308.027V548.904H451.8V696ZM523.946 519.426L423.36 416.504L422.634 415.778L422.306 415.432L523.946 311.403L625.622 415.432L523.946 519.426Z" fill="#EEF1F2"/>
</svg>
