<svg id="line" viewBox="0 0 64 64" xmlns="http://www.w3.org/2000/svg"><g fill="#293a4c"><g><path d="m33.80957 50.5h-25.80957c-2.48145 0-4.5-2.01855-4.5-4.5v-38c0-2.48145 2.01855-4.5 4.5-4.5h40c2.48145 0 4.5 2.01855 4.5 4.5v20.41602c0 .82861-.67188 1.5-1.5 1.5s-1.5-.67139-1.5-1.5v-20.41602c0-.82715-.67285-1.5-1.5-1.5h-40c-.82715 0-1.5.67285-1.5 1.5v38c0 .82715.67285 1.5 1.5 1.5h25.80957c.82812 0 1.5.67139 1.5 1.5s-.67188 1.5-1.5 1.5z"/><path d="m28 54.5c-.82861 0-1.5-.67139-1.5-1.5v-3.99854c0-.82861.67139-1.5 1.5-1.5s1.5.67139 1.5 1.5v3.99854c0 .82861-.67139 1.5-1.5 1.5z"/><path d="m33.00098 60.5c-.43018 0-.85645-.18359-1.15332-.53955l-3.84766-4.61719-3.84766 4.61719c-.53027.63574-1.4751.72363-2.11279.19189-.63623-.53027-.72217-1.47607-.19189-2.11279l5-6c.57031-.68359 1.73438-.68359 2.30469 0l5 6c.53027.63672.44434 1.58252-.19238 2.11279-.28027.23389-.62109.34766-.95898.34766z"/><path d="m51 14.5h-46c-.82861 0-1.5-.67139-1.5-1.5s.67139-1.5 1.5-1.5h46c.82812 0 1.5.67139 1.5 1.5s-.67188 1.5-1.5 1.5z"/><path d="m30 38.5h-19c-.82861 0-1.5-.67139-1.5-1.5v-17.00098c0-.82861.67139-1.5 1.5-1.5s1.5.67139 1.5 1.5v15.50098h17.5c.82861 0 1.5.67139 1.5 1.5s-.67139 1.5-1.5 1.5z"/><path d="m11.00146 32.49951c-.48486 0-.96045-.23438-1.24951-.66797-.45947-.68945-.27344-1.62061.41602-2.08008l6-3.99951c.59473-.39697 1.38721-.31885 1.89258.1875l2.11035 2.10986 8.96875-6.27832c.67871-.47461 1.61475-.30957 2.08936.36865.4751.67871.31006 1.61426-.36865 2.08936l-10 7c-.59717.41602-1.40771.34668-1.9209-.16846l-2.13086-2.13037-4.97656 3.31738c-.25586.17041-.54492.25195-.83057.25195z"/><path d="m45 21.5h-8c-.82812 0-1.5-.67139-1.5-1.5s.67188-1.5 1.5-1.5h8c.82812 0 1.5.67139 1.5 1.5s-.67188 1.5-1.5 1.5z"/><path d="m45 27.5h-4c-.82812 0-1.5-.67139-1.5-1.5s.67188-1.5 1.5-1.5h4c.82812 0 1.5.67139 1.5 1.5s-.67188 1.5-1.5 1.5z"/></g><path d="m46.25488 60.5c-7.85449 0-14.24414-6.39014-14.24414-14.24463s6.38965-14.24463 14.24414-14.24463 14.24512 6.39014 14.24512 14.24463-6.39062 14.24463-14.24512 14.24463zm0-25.48926c-6.2002 0-11.24414 5.04443-11.24414 11.24463s5.04395 11.24463 11.24414 11.24463 11.24512-5.04443 11.24512-11.24463-5.04492-11.24463-11.24512-11.24463z"/><g><path d="m46.25488 47.75537h-.02539l-12.44043-.21094c-.82812-.01416-1.48828-.69727-1.47461-1.52539.01416-.82861.67432-1.46387 1.52539-1.47461l11.68066.19824 7.25684-9.53857c.50098-.65918 1.44141-.7876 2.10156-.28564.65918.50146.78711 1.44287.28516 2.10205l-7.71582 10.14307c-.2832.37305-.72559.5918-1.19336.5918z"/><path d="m53.46387 57.79102c-.4668 0-.92676-.2168-1.21973-.625l-7.20801-10.03564c-.48242-.67285-.3291-1.60986.34375-2.09326.67188-.48291 1.61133-.33008 2.09375.34326l7.20801 10.03564c.48242.67285.3291 1.60986-.34375 2.09326-.26465.19043-.57031.28174-.87402.28174z"/></g></g></svg>