<svg width="1682" height="360" viewBox="0 0 1682 360" fill="none" xmlns="http://www.w3.org/2000/svg">
<path d="M3.23365 22.334C3.11844 11.208 12.1059 2.12695 23.2326 2.12695H1645.94C1657.02 2.12695 1665.98 11.1352 1665.94 22.2154L1664.59 327.088C1664.54 338.099 1655.6 347 1644.59 347H1063.13C1059.45 347 1055.84 345.983 1052.7 344.061L968.304 292.439C965.163 290.517 961.551 289.5 957.868 289.5H25.794C14.8291 289.5 5.90858 280.671 5.79506 269.707L3.23365 22.334Z" fill="url(#paint0_linear_319_2636)"/>
<path d="M279.671 4.23242H22.2114C11.0835 4.23242 2.09552 13.3154 2.21254 24.4427L4.79188 269.71C4.90718 280.673 13.8271 289.5 24.7908 289.5H961.157C964.973 289.5 968.708 290.591 971.924 292.645L1050.58 342.885C1053.79 344.939 1057.53 346.031 1061.34 346.031H1645.03C1656.08 346.031 1665.03 337.076 1665.03 326.031V24.2324C1665.03 13.1867 1656.08 4.23242 1645.03 4.23242H1587.19" stroke="#5C5C4B" stroke-width="3"/>
<path d="M8.5 281L19.7243 291.564C23.4342 295.056 28.3368 297 33.4315 297H954.235C958.002 297 961.692 298.064 964.88 300.068L1051.62 354.602C1054.81 356.607 1058.5 357.671 1062.26 357.671H1660C1671.05 357.671 1680 348.716 1680 337.671V33.0867C1680 23.5796 1672.29 15.8726 1662.79 15.8726V15.8726" stroke="#8F8F00" stroke-width="3"/>
<rect x="1564.74" width="11.975" height="8.46559" fill="#C8C847"/>
<rect x="1546.78" width="11.975" height="8.46559" fill="#C8C847"/>
<rect x="1528.82" width="11.975" height="8.46559" fill="#C8C847"/>
<rect x="1510.85" width="11.975" height="8.46559" fill="#C8C847"/>
<rect x="289.401" width="11.975" height="8.46559" fill="#C8C847"/>
<defs>
<linearGradient id="paint0_linear_319_2636" x1="1016.86" y1="272.265" x2="1017.64" y2="7.99569" gradientUnits="userSpaceOnUse">
<stop stop-color="#A39E3C" stop-opacity="0.2"/>
<stop offset="1" stop-opacity="0"/>
</linearGradient>
</defs>
</svg>
