<svg width="461" height="214" viewBox="0 0 461 214" fill="none" xmlns="http://www.w3.org/2000/svg">
<rect y="39.9453" width="411.042" height="134.768" rx="16.2275" fill="#060E18"/>
<rect x="33.6921" y="110.539" width="181.937" height="33.692" rx="6.7384" fill="#15223D"/>
<path d="M62.6738 125.01H63.794C63.4206 127.269 62.7672 129.523 61.8337 131.77H60.5203C59.5933 129.561 58.9398 127.308 58.56 125.01H59.6802C59.9892 126.896 60.4881 128.869 61.177 130.929C61.8658 128.869 62.3648 126.896 62.6738 125.01ZM68.3003 124.131V125.541H67.0256V124.131H68.3003ZM68.1748 130.862H69.662V131.77H65.2198V130.862H67.1512V127.366H65.5095V126.458H68.1748V130.862ZM75.9741 128.979C75.9741 129.204 75.9709 129.375 75.9645 129.491H72.1983C72.2434 130.006 72.3818 130.373 72.6136 130.591C72.8518 130.81 73.2026 130.92 73.6662 130.92C74.3099 130.92 74.9248 130.736 75.5106 130.369V131.335C74.9183 131.689 74.2713 131.866 73.5696 131.866C72.8164 131.866 72.2176 131.641 71.7734 131.19C71.3292 130.739 71.1071 130.105 71.1071 129.288C71.1071 128.419 71.3356 127.714 71.7927 127.173C72.2498 126.632 72.8775 126.362 73.6758 126.362C74.4097 126.362 74.9763 126.59 75.3754 127.047C75.7746 127.504 75.9741 128.148 75.9741 128.979ZM73.6082 127.308C73.1511 127.308 72.8131 127.408 72.5942 127.607C72.3754 127.801 72.2434 128.139 72.1983 128.621H74.8829C74.8443 128.132 74.7284 127.791 74.5353 127.598C74.3486 127.405 74.0396 127.308 73.6082 127.308ZM81.253 126.458H82.2477C82.2477 128.209 81.9805 129.98 81.4462 131.77H80.2487L79.6886 130.099L79.1285 131.77H77.9311C77.3967 129.98 77.1296 128.209 77.1296 126.458H78.1242C78.1242 127.83 78.282 129.317 78.5974 130.92L79.5438 128.071H79.8335L80.7799 130.92C81.0953 129.317 81.253 127.83 81.253 126.458ZM94.4858 125.956H90.9997V128.042H94.1671V128.988H90.9997V131.77H89.9181V125.01H94.4858V125.956ZM99.4364 126.458H100.46V131.77H99.6874L99.5039 130.553C98.9567 131.428 98.2807 131.866 97.476 131.866C97.0125 131.866 96.6455 131.728 96.3751 131.451C96.1112 131.174 95.9792 130.762 95.9792 130.215V126.458H97.0028V130.089C97.0028 130.694 97.2764 130.997 97.8237 130.997C98.0812 130.997 98.3258 130.913 98.5576 130.746C98.7893 130.572 99.0823 130.273 99.4364 129.848V126.458ZM105.778 130.92C106.196 130.92 106.598 130.801 106.985 130.562V131.509C106.528 131.747 106.061 131.866 105.584 131.866C104.973 131.866 104.496 131.679 104.155 131.306C103.82 130.933 103.653 130.382 103.653 129.655V125.531H101.847V124.623H104.677V129.577C104.677 130.472 105.044 130.92 105.778 130.92ZM111.954 130.92C112.373 130.92 112.775 130.801 113.162 130.562V131.509C112.705 131.747 112.238 131.866 111.761 131.866C111.15 131.866 110.673 131.679 110.332 131.306C109.997 130.933 109.83 130.382 109.83 129.655V125.531H108.024V124.623H110.854V129.577C110.854 130.472 111.221 130.92 111.954 130.92ZM125.371 126.825C125.371 127.347 125.232 127.778 124.955 128.119C124.685 128.46 124.296 128.689 123.787 128.805L125.371 131.77H124.077L122.676 128.882H121.807V131.77H120.726V125.01H123.217C123.893 125.01 124.421 125.171 124.801 125.493C125.181 125.808 125.371 126.252 125.371 126.825ZM121.807 125.956V127.936H123.101C123.526 127.936 123.826 127.862 123.999 127.714C124.173 127.566 124.26 127.311 124.26 126.951C124.26 126.59 124.173 126.336 123.999 126.188C123.826 126.033 123.526 125.956 123.101 125.956H121.807ZM131.567 128.979C131.567 129.204 131.564 129.375 131.557 129.491H127.791C127.836 130.006 127.975 130.373 128.206 130.591C128.445 130.81 128.796 130.92 129.259 130.92C129.903 130.92 130.518 130.736 131.103 130.369V131.335C130.511 131.689 129.864 131.866 129.162 131.866C128.409 131.866 127.811 131.641 127.366 131.19C126.922 130.739 126.7 130.105 126.7 129.288C126.7 128.419 126.929 127.714 127.386 127.173C127.843 126.632 128.47 126.362 129.269 126.362C130.003 126.362 130.569 126.59 130.968 127.047C131.367 127.504 131.567 128.148 131.567 128.979ZM129.201 127.308C128.744 127.308 128.406 127.408 128.187 127.607C127.968 127.801 127.836 128.139 127.791 128.621H130.476C130.437 128.132 130.321 127.791 130.128 127.598C129.941 127.405 129.632 127.308 129.201 127.308ZM135.629 126.362C136.273 126.362 136.775 126.6 137.136 127.076C137.496 127.553 137.676 128.216 137.676 129.066C137.676 129.941 137.496 130.627 137.136 131.123C136.775 131.618 136.273 131.866 135.629 131.866C134.953 131.866 134.435 131.602 134.074 131.074V133.604H133.051V126.458H133.823L133.987 127.327C134.342 126.684 134.889 126.362 135.629 126.362ZM134.354 130.533C134.548 130.817 134.876 130.958 135.339 130.958C135.803 130.958 136.128 130.823 136.315 130.553C136.508 130.282 136.604 129.819 136.604 129.162C136.604 128.473 136.508 127.987 136.315 127.704C136.128 127.414 135.803 127.269 135.339 127.269C134.876 127.269 134.548 127.405 134.354 127.675C134.168 127.945 134.074 128.409 134.074 129.066C134.074 129.754 134.168 130.244 134.354 130.533ZM141.381 131.866C140.647 131.866 140.078 131.641 139.672 131.19C139.266 130.733 139.064 130.096 139.064 129.278C139.064 128.364 139.286 127.649 139.73 127.134C140.174 126.619 140.789 126.362 141.574 126.362C142.308 126.362 142.878 126.59 143.284 127.047C143.689 127.498 143.892 128.132 143.892 128.95C143.892 129.864 143.67 130.579 143.226 131.094C142.781 131.609 142.167 131.866 141.381 131.866ZM140.435 130.524C140.634 130.788 140.982 130.92 141.478 130.92C141.974 130.92 142.321 130.788 142.521 130.524C142.72 130.26 142.82 129.79 142.82 129.114C142.82 128.438 142.72 127.968 142.521 127.704C142.321 127.44 141.974 127.308 141.478 127.308C140.982 127.308 140.634 127.44 140.435 127.704C140.235 127.968 140.136 128.438 140.136 129.114C140.136 129.79 140.235 130.26 140.435 130.524ZM150.272 127.385C149.235 127.385 148.373 127.617 147.684 128.081V130.862H149.712V131.77H145.27V130.862H146.66V127.366H145.559V126.458H147.433L147.626 127.511C147.935 127.118 148.331 126.809 148.814 126.584C149.303 126.358 149.789 126.246 150.272 126.246V127.385ZM155.898 127.366H153.658V129.964C153.658 130.279 153.742 130.517 153.909 130.678C154.076 130.839 154.356 130.92 154.749 130.92C155.148 130.92 155.531 130.846 155.898 130.698V131.663C155.48 131.799 155.061 131.866 154.643 131.866C153.986 131.866 153.487 131.702 153.146 131.374C152.805 131.045 152.634 130.62 152.634 130.099V127.366H151.485V126.709L152.634 126.458L152.856 125.27H153.658V126.458H155.898V127.366Z" fill="#B1B1B1"/>
<path d="M181.825 129.152V129.648C181.825 129.955 181.703 130.249 181.487 130.466C181.27 130.683 180.975 130.805 180.669 130.805H174.306C173.999 130.805 173.705 130.683 173.488 130.466C173.271 130.249 173.149 129.955 173.149 129.648V123.286C173.149 122.979 173.271 122.685 173.488 122.468C173.705 122.251 173.999 122.129 174.306 122.129H174.802" stroke="#B1B1B1" stroke-width="1.15681" stroke-linecap="round" stroke-linejoin="round"/>
<path d="M178.355 122.129H181.825V125.599" stroke="#B1B1B1" stroke-width="1.15681" stroke-linecap="round" stroke-linejoin="round"/>
<path d="M177.11 126.845L181.825 122.129" stroke="#B1B1B1" stroke-width="1.15681" stroke-linecap="round" stroke-linejoin="round"/>
<path d="M34.396 81.0039V75.7039H36.1066C36.4827 75.7039 36.7967 75.7764 37.0486 75.9213C37.3022 76.0645 37.4929 76.2595 37.6205 76.5062C37.7499 76.7529 37.8146 77.0306 37.8146 77.3395C37.8146 77.6483 37.7508 77.9269 37.6231 78.1754C37.4955 78.4221 37.3057 78.6179 37.0538 78.7628C36.8019 78.906 36.4888 78.9776 36.1144 78.9776H34.7687V78.5428H36.1015C36.3792 78.5428 36.6095 78.4911 36.7924 78.3876C36.9753 78.2823 37.1116 78.1391 37.2013 77.958C37.2927 77.7768 37.3385 77.5707 37.3385 77.3395C37.3385 77.1083 37.2927 76.9021 37.2013 76.721C37.1116 76.5398 36.9744 76.3975 36.7898 76.294C36.607 76.1905 36.3749 76.1387 36.0937 76.1387H34.88V81.0039H34.396ZM41.3807 79.4848V77.0289H41.8414V81.0039H41.3807V80.344H41.3445C41.2513 80.5476 41.1038 80.7175 40.902 80.8538C40.7001 80.9884 40.4534 81.0557 40.1618 81.0557C39.9082 81.0557 39.6831 81.0005 39.4864 80.89C39.2897 80.7779 39.1353 80.614 39.0232 80.3983C38.911 80.1827 38.855 79.9179 38.855 79.6039V77.0289H39.3156V79.5754C39.3156 79.8859 39.407 80.1361 39.5899 80.3259C39.7728 80.5139 40.0074 80.608 40.2938 80.608C40.4732 80.608 40.6458 80.5648 40.8114 80.4786C40.977 80.3923 41.1133 80.2664 41.2203 80.1007C41.3272 79.9334 41.3807 79.7281 41.3807 79.4848ZM43.1567 81.0039V75.7039H43.6199V77.7872H43.6613C43.7131 77.6681 43.7872 77.5456 43.8839 77.4197C43.9822 77.2937 44.1107 77.1885 44.2694 77.104C44.4299 77.0177 44.6318 76.9746 44.875 76.9746C45.2011 76.9746 45.4875 77.0608 45.7342 77.2334C45.9809 77.4042 46.1733 77.644 46.3113 77.9528C46.4493 78.2599 46.5183 78.6179 46.5183 79.0268C46.5183 79.4374 46.4493 79.7971 46.3113 80.1059C46.175 80.4147 45.9835 80.6554 45.7368 80.8279C45.4918 81.0005 45.2071 81.0867 44.8828 81.0867C44.6412 81.0867 44.4394 81.0436 44.2772 80.9573C44.1168 80.8711 43.9874 80.765 43.889 80.639C43.7907 80.5113 43.7148 80.3871 43.6613 80.2664H43.6044V81.0039H43.1567ZM43.6121 79.019C43.6121 79.3399 43.6596 79.6246 43.7545 79.873C43.8511 80.1197 43.9891 80.3138 44.1685 80.4553C44.3497 80.595 44.5688 80.6649 44.8258 80.6649C45.0898 80.6649 45.3132 80.5924 45.4961 80.4475C45.679 80.3009 45.8179 80.1033 45.9128 79.8549C46.0076 79.6065 46.0551 79.3278 46.0551 79.019C46.0551 78.7136 46.0076 78.4385 45.9128 78.1935C45.8196 77.9485 45.6816 77.7544 45.4987 77.6112C45.3158 77.4663 45.0915 77.3938 44.8258 77.3938C44.5671 77.3938 44.3471 77.4637 44.1659 77.6034C43.9865 77.7415 43.8494 77.933 43.7545 78.1779C43.6596 78.4212 43.6121 78.7016 43.6121 79.019ZM47.9908 75.7039V81.0039H47.5302V75.7039H47.9908ZM49.2149 81.0039V77.0289H49.6781V81.0039H49.2149ZM49.4504 76.3457C49.3555 76.3457 49.2744 76.3138 49.2071 76.25C49.1398 76.1844 49.1062 76.1059 49.1062 76.0145C49.1062 75.923 49.1398 75.8454 49.2071 75.7816C49.2744 75.716 49.3555 75.6832 49.4504 75.6832C49.5453 75.6832 49.6264 75.716 49.6936 75.7816C49.7609 75.8454 49.7946 75.923 49.7946 76.0145C49.7946 76.1059 49.7609 76.1844 49.6936 76.25C49.6264 76.3138 49.5453 76.3457 49.4504 76.3457ZM53.5671 77.901L53.1452 78.0201C53.1038 77.901 53.0452 77.7932 52.9693 77.6966C52.8933 77.6 52.7941 77.5232 52.6716 77.4663C52.5509 77.4093 52.4008 77.3809 52.2214 77.3809C51.9522 77.3809 51.7314 77.4447 51.5589 77.5724C51.3863 77.7 51.3001 77.8648 51.3001 78.0667C51.3001 78.2375 51.3587 78.3763 51.476 78.4833C51.5951 78.5886 51.778 78.6722 52.0247 78.7343L52.6251 78.8818C52.958 78.9629 53.2073 79.0915 53.373 79.2674C53.5403 79.4434 53.624 79.6642 53.624 79.9299C53.624 80.1542 53.5619 80.3535 53.4377 80.5277C53.3134 80.702 53.1401 80.8391 52.9175 80.9392C52.6967 81.0375 52.4405 81.0867 52.1489 81.0867C51.7607 81.0867 51.4407 80.9996 51.1888 80.8253C50.9369 80.6494 50.7756 80.3958 50.7049 80.0645L51.1474 79.9558C51.2043 80.1922 51.3156 80.3707 51.4812 80.4915C51.6486 80.6123 51.8685 80.6727 52.1411 80.6727C52.4465 80.6727 52.6906 80.6045 52.8735 80.4682C53.0564 80.3302 53.1478 80.1577 53.1478 79.9506C53.1478 79.7902 53.0943 79.6556 52.9874 79.5469C52.8804 79.4365 52.7182 79.3554 52.5008 79.3037L51.8513 79.1484C51.5062 79.0656 51.2509 78.9345 51.0853 78.755C50.9197 78.5756 50.8368 78.3531 50.8368 78.0874C50.8368 77.8683 50.8964 77.6759 51.0154 77.5103C51.1344 77.3429 51.2983 77.2118 51.5071 77.1169C51.7159 77.022 51.9539 76.9746 52.2214 76.9746C52.5854 76.9746 52.8761 77.0574 53.0935 77.223C53.3126 77.3869 53.4704 77.6129 53.5671 77.901ZM55.0933 78.5195V81.0039H54.6326V75.7039H55.0933V77.6526H55.1347C55.2278 77.4473 55.3719 77.2834 55.5668 77.1609C55.7635 77.0384 56.012 76.9772 56.3121 76.9772C56.5813 76.9772 56.8176 77.0324 57.0212 77.1428C57.2248 77.2532 57.3835 77.4162 57.4974 77.6319C57.6113 77.8476 57.6682 78.1132 57.6682 78.429V81.0039H57.205V78.4574C57.205 78.1296 57.1135 77.8717 56.9306 77.6837C56.7495 77.4939 56.5045 77.399 56.1957 77.399C55.9835 77.399 55.7946 77.4438 55.6289 77.5336C55.4633 77.6233 55.3322 77.7527 55.2356 77.9217C55.1407 78.0891 55.0933 78.2884 55.0933 78.5195ZM60.4883 81.0867C60.1174 81.0867 59.7965 81.0005 59.5256 80.8279C59.2548 80.6537 59.0452 80.413 58.8968 80.1059C58.7501 79.7971 58.6768 79.4417 58.6768 79.0397C58.6768 78.6394 58.7501 78.284 58.8968 77.9735C59.0452 77.6612 59.2496 77.4171 59.5101 77.2411C59.7724 77.0634 60.0751 76.9746 60.4185 76.9746C60.6341 76.9746 60.842 77.0143 61.0421 77.0936C61.2423 77.1713 61.4217 77.2912 61.5804 77.4533C61.7409 77.6138 61.8677 77.8165 61.9608 78.0615C62.054 78.3047 62.1006 78.5929 62.1006 78.9258V79.1536H58.9951V78.7473H61.6296C61.6296 78.4919 61.5778 78.2625 61.4743 78.0589C61.3725 77.8536 61.2302 77.6914 61.0473 77.5724C60.8662 77.4533 60.6565 77.3938 60.4185 77.3938C60.1666 77.3938 59.9449 77.4611 59.7534 77.5957C59.5619 77.7302 59.4118 77.9079 59.3031 78.1288C59.1961 78.3496 59.1418 78.5911 59.1401 78.8534V79.0966C59.1401 79.4124 59.1944 79.6884 59.3031 79.9248C59.4135 80.1594 59.5696 80.3414 59.7715 80.4708C59.9733 80.6002 60.2123 80.6649 60.4883 80.6649C60.6764 80.6649 60.8412 80.6356 60.9826 80.5769C61.1258 80.5182 61.2457 80.4397 61.3423 80.3414C61.4407 80.2413 61.5149 80.1318 61.5649 80.0127L62.0022 80.1551C61.9419 80.3224 61.8427 80.4768 61.7046 80.6183C61.5683 80.7598 61.3975 80.8736 61.1922 80.9599C60.9887 81.0444 60.754 81.0867 60.4883 81.0867ZM64.5468 81.0867C64.2207 81.0867 63.9352 81.0005 63.6902 80.8279C63.4452 80.6554 63.2537 80.4147 63.1157 80.1059C62.9794 79.7971 62.9112 79.4374 62.9112 79.0268C62.9112 78.6179 62.9794 78.2599 63.1157 77.9528C63.2537 77.644 63.4461 77.4042 63.6928 77.2334C63.9395 77.0608 64.2267 76.9746 64.5545 76.9746C64.7961 76.9746 64.9971 77.0177 65.1575 77.104C65.318 77.1885 65.4465 77.2937 65.5431 77.4197C65.6397 77.5456 65.7148 77.6681 65.7683 77.7872H65.8097V75.7039H66.2729V81.0039H65.8226V80.2664H65.7683C65.7148 80.3871 65.6389 80.5113 65.5405 80.639C65.4422 80.765 65.3119 80.8711 65.1498 80.9573C64.9893 81.0436 64.7883 81.0867 64.5468 81.0867ZM64.6011 80.6649C64.8582 80.6649 65.0773 80.595 65.2584 80.4553C65.4396 80.3138 65.5776 80.1197 65.6725 79.873C65.7691 79.6246 65.8174 79.3399 65.8174 79.019C65.8174 78.7016 65.77 78.4212 65.6751 78.1779C65.5802 77.933 65.4422 77.7415 65.261 77.6034C65.0799 77.4637 64.8599 77.3938 64.6011 77.3938C64.3354 77.3938 64.1112 77.4663 63.9283 77.6112C63.7471 77.7544 63.6091 77.9485 63.5142 78.1935C63.4211 78.4385 63.3745 78.7136 63.3745 79.019C63.3745 79.3278 63.4219 79.6065 63.5168 79.8549C63.6117 80.1033 63.7497 80.3009 63.9309 80.4475C64.1137 80.5924 64.3372 80.6649 64.6011 80.6649ZM71.1795 81.0867C70.8362 81.0867 70.5325 80.9996 70.2686 80.8253C70.0063 80.6511 69.801 80.4104 69.6527 80.1033C69.5043 79.7945 69.4301 79.4382 69.4301 79.0345C69.4301 78.6274 69.5043 78.2694 69.6527 77.9606C69.801 77.65 70.0063 77.4085 70.2686 77.236C70.5325 77.0617 70.8362 76.9746 71.1795 76.9746C71.5228 76.9746 71.8256 77.0617 72.0879 77.236C72.3501 77.4102 72.5554 77.6517 72.7038 77.9606C72.8539 78.2694 72.9289 78.6274 72.9289 79.0345C72.9289 79.4382 72.8547 79.7945 72.7064 80.1033C72.558 80.4104 72.3518 80.6511 72.0879 80.8253C71.8256 80.9996 71.5228 81.0867 71.1795 81.0867ZM71.1795 80.6649C71.4556 80.6649 71.6893 80.5907 71.8808 80.4423C72.0723 80.294 72.2173 80.0964 72.3156 79.8497C72.4157 79.603 72.4657 79.3313 72.4657 79.0345C72.4657 78.7378 72.4157 78.4652 72.3156 78.2168C72.2173 77.9683 72.0723 77.7691 71.8808 77.619C71.6893 77.4689 71.4556 77.3938 71.1795 77.3938C70.9052 77.3938 70.6714 77.4689 70.4782 77.619C70.2867 77.7691 70.1409 77.9683 70.0408 78.2168C69.9425 78.4652 69.8933 78.7378 69.8933 79.0345C69.8933 79.3313 69.9425 79.603 70.0408 79.8497C70.1409 80.0964 70.2867 80.294 70.4782 80.4423C70.6697 80.5907 70.9035 80.6649 71.1795 80.6649ZM74.4008 78.5195V81.0039H73.9401V77.0289H74.3878V77.6526H74.4292C74.5224 77.449 74.6673 77.286 74.864 77.1635C75.0624 77.0393 75.3074 76.9772 75.599 76.9772C75.8664 76.9772 76.101 77.0332 76.3029 77.1454C76.5064 77.2558 76.6643 77.4188 76.7764 77.6345C76.8903 77.8501 76.9472 78.115 76.9472 78.429V81.0039H76.4866V78.4574C76.4866 78.1314 76.3952 77.8734 76.2123 77.6837C76.0311 77.4939 75.7879 77.399 75.4825 77.399C75.2738 77.399 75.0883 77.4438 74.9261 77.5336C74.7639 77.6233 74.6354 77.7527 74.5405 77.9217C74.4474 78.0891 74.4008 78.2884 74.4008 78.5195Z" fill="white"/>
<path d="M90.4819 70.6184V75.2141H92.3202V71.5375H95.9967V69.6992H91.401C91.1573 69.6992 90.9235 69.7961 90.7511 69.9684C90.5787 70.1408 90.4819 70.3746 90.4819 70.6184V70.6184ZM107.026 75.2141V70.6184C107.026 70.3746 106.93 70.1408 106.757 69.9684C106.585 69.7961 106.351 69.6992 106.107 69.6992H101.512V71.5375H105.188V75.2141H107.026ZM105.188 84.4055H101.512V86.2437H106.107C106.351 86.2437 106.585 86.1469 106.757 85.9745C106.93 85.8022 107.026 85.5684 107.026 85.3246V80.7289H105.188V84.4055ZM95.9967 86.2437V84.4055H92.3202V80.7289H90.4819V85.3246C90.4819 85.5684 90.5787 85.8022 90.7511 85.9745C90.9235 86.1469 91.1573 86.2437 91.401 86.2437H95.9967ZM89.5627 77.0523H107.946V78.8906H89.5627V77.0523Z" fill="url(#paint0_linear_1944_196)"/>
<path d="M119.182 82.2098C117.811 82.2098 116.719 81.9168 115.906 81.3306C115.102 80.735 114.686 79.8841 114.658 78.778H117.182C117.286 79.7423 117.948 80.2245 119.167 80.2245C119.621 80.2245 120.004 80.1394 120.316 79.9692C120.637 79.7896 120.798 79.5202 120.798 79.1609C120.798 78.9151 120.699 78.7118 120.5 78.5511C120.302 78.381 120.099 78.2628 119.891 78.1966C119.692 78.1304 119.309 78.0264 118.742 77.8846C118.714 77.8752 118.695 77.8704 118.685 77.8704C118.676 77.861 118.662 77.8563 118.643 77.8563C118.624 77.8468 118.605 77.8421 118.586 77.8421C118.151 77.7381 117.792 77.6483 117.508 77.5726C117.234 77.4875 116.917 77.3646 116.558 77.2039C116.208 77.0338 115.929 76.8494 115.721 76.6509C115.513 76.4523 115.334 76.1923 115.182 75.8709C115.041 75.54 114.97 75.1713 114.97 74.7648C114.97 73.7249 115.338 72.9449 116.076 72.4249C116.823 71.905 117.797 71.645 118.997 71.645C120.151 71.645 121.091 71.9097 121.819 72.4391C122.557 72.9685 122.949 73.7438 122.996 74.7648H120.543C120.496 74.3772 120.33 74.0794 120.047 73.8714C119.763 73.6539 119.385 73.5452 118.912 73.5452C118.477 73.5452 118.123 73.635 117.849 73.8147C117.584 73.9848 117.451 74.2117 117.451 74.4954C117.451 74.8168 117.612 75.0531 117.934 75.2044C118.255 75.3462 118.86 75.5164 119.749 75.7149C120.307 75.8473 120.765 75.9796 121.124 76.112C121.484 76.2349 121.848 76.4145 122.216 76.6509C122.594 76.8872 122.873 77.1945 123.053 77.5726C123.242 77.9413 123.337 78.3857 123.337 78.9057C123.337 79.9361 122.944 80.7445 122.16 81.3306C121.384 81.9168 120.392 82.2098 119.182 82.2098ZM126.701 79.955C126.966 80.3521 127.344 80.5506 127.836 80.5506C128.327 80.5506 128.706 80.3521 128.97 79.955C129.244 79.558 129.382 79.0238 129.382 78.3526C129.382 77.6814 129.244 77.1472 128.97 76.7501C128.706 76.3436 128.327 76.1404 127.836 76.1404C127.344 76.1404 126.966 76.3389 126.701 76.736C126.437 77.133 126.304 77.6719 126.304 78.3526C126.304 79.0238 126.437 79.558 126.701 79.955ZM130.644 81.1037C129.935 81.8317 129.003 82.1956 127.85 82.1956C126.697 82.1956 125.761 81.8317 125.042 81.1037C124.324 80.3757 123.964 79.4587 123.964 78.3526C123.964 77.2465 124.324 76.3294 125.042 75.6015C125.761 74.8735 126.697 74.5095 127.85 74.5095C129.003 74.5095 129.935 74.8735 130.644 75.6015C131.362 76.3294 131.721 77.2465 131.721 78.3526C131.721 79.4587 131.362 80.3757 130.644 81.1037ZM132.517 81.9688V71.8293H134.857V81.9688H132.517ZM135.979 81.9688V74.7081H138.29V81.9688H135.979ZM135.979 73.7012V71.8293H138.29V73.7012H135.979ZM142.25 82.1956C141.304 82.1956 140.539 81.8506 139.953 81.1604C139.366 80.4703 139.073 79.5296 139.073 78.3384C139.073 77.2039 139.366 76.2822 139.953 75.5731C140.548 74.8546 141.314 74.4954 142.25 74.4954C143.12 74.4954 143.796 74.8404 144.278 75.5306H144.32V71.8293H146.632V81.9688H144.42V80.9903H144.391C143.918 81.7939 143.205 82.1956 142.25 82.1956ZM142.845 80.3663C143.318 80.3663 143.692 80.1819 143.966 79.8132C144.24 79.4351 144.377 78.9435 144.377 78.3384C144.377 77.705 144.249 77.1992 143.994 76.821C143.739 76.4334 143.365 76.2396 142.874 76.2396C142.42 76.2396 142.061 76.4287 141.796 76.8069C141.541 77.185 141.413 77.6861 141.413 78.31C141.413 78.9435 141.541 79.4445 141.796 79.8132C142.051 80.1819 142.401 80.3663 142.845 80.3663ZM147.736 81.9688V74.7081H150.048V81.9688H147.736ZM147.736 73.7012V71.8293H150.048V73.7012H147.736ZM154.036 82.0538C153.298 82.0538 152.726 81.9073 152.32 81.6142C151.923 81.3117 151.724 80.7917 151.724 80.0543V76.1545H150.76V74.7081H151.724V72.4107H153.979V74.7081H155.298V76.1545H153.979V79.558C153.979 79.8227 154.045 80.007 154.178 80.111C154.319 80.215 154.523 80.267 154.787 80.267C154.863 80.267 154.962 80.267 155.085 80.267C155.208 80.2576 155.279 80.2528 155.298 80.2528V81.9404C155.033 82.016 154.612 82.0538 154.036 82.0538ZM156.577 84.3653V82.5644H157.372C158.005 82.5644 158.322 82.3091 158.322 81.7986C158.322 81.5528 158.175 81.0517 157.882 80.2954L155.741 74.7081H158.18L159.158 77.7995L159.612 79.4729H159.641C159.773 78.83 159.915 78.2722 160.066 77.7995L161.016 74.7081H163.328L160.818 82.068C160.524 82.9189 160.175 83.5145 159.768 83.8548C159.371 84.1952 158.809 84.3653 158.081 84.3653H156.577ZM168.026 82.2098C166.655 82.2098 165.563 81.9168 164.75 81.3306C163.946 80.735 163.53 79.8841 163.502 78.778H166.026C166.13 79.7423 166.792 80.2245 168.012 80.2245C168.465 80.2245 168.848 80.1394 169.16 79.9692C169.482 79.7896 169.642 79.5202 169.642 79.1609C169.642 78.9151 169.543 78.7118 169.345 78.5511C169.146 78.381 168.943 78.2628 168.735 78.1966C168.536 78.1304 168.153 78.0264 167.586 77.8846C167.558 77.8752 167.539 77.8704 167.529 77.8704C167.52 77.861 167.506 77.8563 167.487 77.8563C167.468 77.8468 167.449 77.8421 167.43 77.8421C166.995 77.7381 166.636 77.6483 166.352 77.5726C166.078 77.4875 165.761 77.3646 165.402 77.2039C165.052 77.0338 164.774 76.8494 164.566 76.6509C164.358 76.4523 164.178 76.1923 164.027 75.8709C163.885 75.54 163.814 75.1713 163.814 74.7648C163.814 73.7249 164.183 72.9449 164.92 72.4249C165.667 71.905 166.641 71.645 167.841 71.645C168.995 71.645 169.935 71.9097 170.663 72.4391C171.401 72.9685 171.793 73.7438 171.84 74.7648H169.387C169.34 74.3772 169.174 74.0794 168.891 73.8714C168.607 73.6539 168.229 73.5452 167.756 73.5452C167.321 73.5452 166.967 73.635 166.693 73.8147C166.428 73.9848 166.296 74.2117 166.296 74.4954C166.296 74.8168 166.456 75.0531 166.778 75.2044C167.099 75.3462 167.704 75.5164 168.593 75.7149C169.151 75.8473 169.609 75.9796 169.969 76.112C170.328 76.2349 170.692 76.4145 171.06 76.6509C171.439 76.8872 171.718 77.1945 171.897 77.5726C172.086 77.9413 172.181 78.3857 172.181 78.9057C172.181 79.9361 171.788 80.7445 171.004 81.3306C170.228 81.9168 169.236 82.2098 168.026 82.2098ZM176.666 82.1956C175.512 82.1956 174.581 81.8317 173.872 81.1037C173.163 80.3757 172.809 79.4587 172.809 78.3526C172.809 77.2465 173.158 76.3294 173.858 75.6015C174.558 74.8735 175.475 74.5095 176.609 74.5095C177.573 74.5095 178.363 74.7648 178.977 75.2753C179.592 75.7858 179.951 76.4571 180.055 77.289H177.829C177.668 76.5705 177.271 76.2113 176.637 76.2113C176.146 76.2113 175.772 76.4003 175.517 76.7785C175.271 77.1567 175.148 77.6814 175.148 78.3526C175.148 79.0144 175.276 79.5343 175.531 79.9125C175.787 80.2812 176.155 80.4656 176.637 80.4656C177.375 80.4656 177.796 80.0496 177.9 79.2176H180.112C180.083 80.0779 179.753 80.7917 179.119 81.359C178.495 81.9168 177.677 82.1956 176.666 82.1956ZM183.128 82.1531C182.381 82.1531 181.781 81.9593 181.327 81.5717C180.873 81.1841 180.647 80.6405 180.647 79.9409C180.647 79.2035 180.892 78.6693 181.384 78.3384C181.876 77.9981 182.556 77.7712 183.426 77.6577C184.135 77.5726 184.617 77.4781 184.873 77.3741C185.137 77.2607 185.27 77.0858 185.27 76.8494C185.27 76.3294 184.939 76.0694 184.277 76.0694C183.568 76.0694 183.176 76.3814 183.1 77.0054H180.973C181.001 76.2869 181.294 75.6913 181.852 75.2186C182.419 74.7459 183.223 74.5095 184.263 74.5095C185.303 74.5095 186.087 74.7081 186.617 75.1051C187.231 75.5495 187.539 76.2396 187.539 77.1756V80.8343C187.539 81.411 187.624 81.756 187.794 81.8695V81.9688H185.553C185.459 81.8364 185.378 81.567 185.312 81.1604H185.284C184.821 81.8222 184.102 82.1531 183.128 82.1531ZM183.866 80.6783C184.301 80.6783 184.65 80.5601 184.915 80.3238C185.189 80.0779 185.326 79.7612 185.326 79.3736V78.5086C185.099 78.622 184.702 78.7497 184.135 78.8915C183.672 78.9955 183.346 79.1184 183.157 79.2602C182.968 79.402 182.873 79.6052 182.873 79.87C182.873 80.4088 183.204 80.6783 183.866 80.6783ZM188.659 81.9688V74.7081H190.886V75.7007H190.928C191.486 74.8971 192.233 74.4954 193.169 74.4954C193.953 74.4954 194.568 74.7506 195.012 75.2611C195.466 75.7622 195.693 76.424 195.693 77.2465V81.9688H193.381V77.7144C193.381 77.3174 193.282 77.0054 193.084 76.7785C192.894 76.5421 192.616 76.424 192.247 76.424C191.869 76.424 191.561 76.5658 191.325 76.8494C191.089 77.133 190.971 77.5017 190.971 77.9555V81.9688H188.659Z" fill="white"/>
<path d="M352.646 1.02874C353.06 0.504103 353.855 0.504103 354.269 1.02874L360.249 8.60824C360.624 9.08258 361.323 9.13628 361.765 8.72463L368.832 2.14679C369.321 1.69148 370.107 1.8129 370.436 2.39458L375.189 10.7981C375.487 11.324 376.17 11.4838 376.67 11.1445L384.658 5.7225C385.211 5.3472 385.969 5.5872 386.205 6.21227L389.62 15.2428C389.833 15.8079 390.484 16.0702 391.03 15.8112L399.752 11.6721C400.356 11.3856 401.069 11.7385 401.207 12.3923L403.202 21.8382C403.327 22.4294 403.93 22.7879 404.509 22.6152L413.761 19.8561C414.402 19.6651 415.052 20.1227 415.089 20.7899L415.619 30.4298C415.653 31.0331 416.194 31.4794 416.792 31.3972L426.357 30.0826C427.019 29.9916 427.592 30.5432 427.526 31.2082L426.579 40.8161C426.52 41.4173 426.987 41.9411 427.591 41.9512L437.244 42.112C437.912 42.1232 438.394 42.7558 438.228 43.403L435.825 52.7537C435.675 53.3388 436.056 53.9277 436.652 54.0299L446.167 55.6624C446.826 55.7754 447.206 56.4742 446.943 57.0885L443.141 65.9627C442.903 66.5181 443.19 67.1583 443.763 67.3502L452.917 70.4161C453.551 70.6283 453.82 71.3769 453.466 71.9438L448.354 80.1337C448.034 80.6462 448.22 81.3227 448.757 81.5998L457.336 86.0272C457.93 86.3337 458.081 87.1146 457.645 87.6208L451.343 94.9344C450.948 95.3921 451.029 96.089 451.517 96.4448L459.32 102.13C459.86 102.523 459.891 103.318 459.382 103.752L452.037 110.018C451.578 110.41 451.551 111.111 451.979 111.537L458.823 118.347C459.297 118.818 459.205 119.608 458.637 119.959L450.421 125.031C449.907 125.348 449.774 126.037 450.132 126.523L455.856 134.298C456.252 134.836 456.041 135.603 455.426 135.863L446.533 139.621C445.976 139.856 445.739 140.516 446.019 141.052L450.489 149.609C450.798 150.201 450.473 150.927 449.825 151.09L440.462 153.446C439.876 153.594 439.541 154.21 439.736 154.782L442.848 163.921C443.063 164.554 442.631 165.222 441.965 165.284L432.353 166.183C431.751 166.239 431.326 166.797 431.431 167.392L433.111 176.899C433.227 177.558 432.698 178.151 432.031 178.111L422.394 177.533C421.791 177.497 421.285 177.983 421.298 178.587L421.507 188.239C421.522 188.907 420.908 189.413 420.255 189.272L410.819 187.229C410.229 187.101 409.655 187.505 409.576 188.104L408.309 197.675C408.221 198.337 407.537 198.744 406.913 198.504L397.9 195.045C397.336 194.829 396.707 195.14 396.537 195.72L393.824 204.985C393.637 205.627 392.899 205.924 392.319 205.592L383.939 200.797C383.415 200.497 382.746 200.709 382.49 201.256L378.394 209.999C378.11 210.604 377.336 210.785 376.813 210.369L369.264 204.351C368.791 203.974 368.098 204.082 367.761 204.583L362.379 212.598C362.006 213.153 361.213 213.214 360.761 212.722L354.218 205.623C353.809 205.179 353.107 205.179 352.698 205.623L346.155 212.722C345.702 213.214 344.909 213.153 344.536 212.598L339.154 204.583C338.818 204.082 338.124 203.974 337.652 204.351L330.102 210.369C329.58 210.785 328.805 210.604 328.522 209.999L324.426 201.256C324.17 200.709 323.501 200.497 322.976 200.797L314.597 205.592C314.017 205.924 313.279 205.627 313.091 204.985L310.378 195.72C310.208 195.14 309.58 194.829 309.016 195.045L300.002 198.504C299.378 198.744 298.695 198.337 298.607 197.675L297.34 188.104C297.261 187.505 296.687 187.101 296.096 187.229L286.661 189.272C286.007 189.413 285.394 188.907 285.408 188.239L285.617 178.587C285.63 177.983 285.125 177.497 284.522 177.533L274.885 178.111C274.218 178.151 273.688 177.558 273.805 176.899L275.485 167.392C275.59 166.797 275.164 166.239 274.563 166.183L264.95 165.284C264.285 165.222 263.853 164.554 264.068 163.921L267.179 154.782C267.374 154.21 267.039 153.594 266.453 153.446L257.091 151.09C256.443 150.927 256.117 150.201 256.427 149.609L260.897 141.052C261.176 140.516 260.939 139.856 260.383 139.621L251.49 135.863C250.874 135.603 250.663 134.836 251.06 134.298L256.784 126.523C257.142 126.037 257.008 125.348 256.494 125.031L248.279 119.959C247.71 119.608 247.619 118.818 248.093 118.347L254.936 111.537C255.365 111.111 255.338 110.41 254.878 110.018L247.533 103.752C247.025 103.318 247.055 102.523 247.595 102.13L255.398 96.4448C255.887 96.089 255.967 95.3921 255.573 94.9344L249.27 87.6208C248.834 87.1146 248.986 86.3337 249.579 86.0272L258.159 81.5998C258.696 81.3227 258.882 80.6462 258.562 80.1337L253.45 71.9438C253.096 71.3769 253.365 70.6283 253.998 70.4161L263.153 67.3502C263.726 67.1583 264.013 66.5181 263.775 65.9627L259.973 57.0885C259.71 56.4742 260.09 55.7754 260.748 55.6624L270.264 54.0299C270.859 53.9277 271.241 53.3388 271.09 52.7537L268.688 43.403C268.521 42.7558 269.003 42.1232 269.672 42.112L279.325 41.9512C279.929 41.9411 280.396 41.4173 280.336 40.8161L279.389 31.2082C279.323 30.5432 279.897 29.9916 280.559 30.0826L290.123 31.3972C290.722 31.4794 291.263 31.0331 291.296 30.4298L291.827 20.7899C291.863 20.1227 292.514 19.6651 293.154 19.8561L302.406 22.6152C302.985 22.7879 303.588 22.4294 303.713 21.8382L305.709 12.3923C305.847 11.7385 306.56 11.3856 307.164 11.6721L315.886 15.8112C316.432 16.0702 317.082 15.8079 317.296 15.2428L320.71 6.21227C320.947 5.5872 321.705 5.3472 322.258 5.7225L330.246 11.1445C330.746 11.4838 331.429 11.324 331.726 10.7981L336.479 2.39458C336.808 1.8129 337.594 1.69148 338.083 2.14679L345.15 8.72463C345.593 9.13628 346.292 9.08258 346.666 8.60824L352.646 1.02874Z" fill="url(#paint1_linear_1944_196)"/>
<path d="M446.8 107.351C446.8 159.194 405.106 201.212 353.683 201.212C302.261 201.212 260.567 159.194 260.567 107.351C260.567 55.509 302.261 13.4908 353.683 13.4908C405.106 13.4908 446.8 55.509 446.8 107.351Z" fill="url(#paint2_linear_1944_196)" stroke="url(#paint3_linear_1944_196)" stroke-width="1.21591"/>
<path d="M279.705 126.555L275.446 129.01L275.459 129.062L280.388 129.406L280.794 131.099L274.015 130.428L273.533 128.414L279.299 124.862L279.705 126.555Z" fill="#3300FF"/>
<path d="M275.422 135.379L281.514 133.302L283.019 137.529L281.824 137.937L280.84 135.175L279.591 135.601L280.498 138.147L279.299 138.555L278.392 136.009L277.14 136.436L278.124 139.198L276.928 139.606L275.422 135.379Z" fill="#3300FF"/>
<path d="M278.15 142.571L284.011 139.913L285.15 142.315C285.356 142.751 285.455 143.163 285.447 143.55C285.441 143.939 285.332 144.287 285.12 144.592C284.91 144.897 284.604 145.14 284.204 145.322C283.797 145.506 283.41 145.575 283.042 145.527C282.677 145.479 282.343 145.327 282.04 145.071C281.74 144.814 281.485 144.464 281.275 144.021L280.555 142.502L281.671 141.996L282.267 143.254C282.368 143.466 282.479 143.63 282.602 143.747C282.727 143.865 282.865 143.935 283.014 143.957C283.166 143.978 283.332 143.947 283.513 143.865C283.694 143.783 283.827 143.678 283.91 143.55C283.995 143.422 284.033 143.273 284.024 143.102C284.017 142.93 283.964 142.74 283.864 142.529L283.536 141.837L278.816 143.976L278.15 142.571ZM282.381 144.63L280.388 147.293L279.662 145.76L281.667 143.125L282.381 144.63Z" fill="#3300FF"/>
<path d="M288.219 148.08L282.588 151.196L281.809 149.849L287.44 146.733L288.219 148.08Z" fill="#3300FF"/>
<path d="M284.299 154.019L289.673 150.48L292.166 154.097L291.111 154.792L289.501 152.455L288.399 153.181L289.85 155.288L288.792 155.984L287.341 153.878L285.181 155.3L284.299 154.019Z" fill="#3300FF"/>
<path d="M294.874 157.521L289.789 161.465L288.808 160.257L293.894 156.313L294.874 157.521Z" fill="#3300FF"/>
<path d="M291.931 164.004L296.696 159.678L299.787 162.931L298.851 163.781L296.832 161.655L295.855 162.542L297.716 164.501L296.779 165.353L294.917 163.394L293.938 164.283L295.957 166.408L295.022 167.257L291.931 164.004Z" fill="#3300FF"/>
<path d="M299.186 171.096L297.376 169.553L301.662 164.752L303.47 166.294C303.969 166.719 304.312 167.182 304.501 167.681C304.693 168.181 304.726 168.694 304.601 169.22C304.478 169.745 304.193 170.257 303.748 170.756C303.302 171.256 302.82 171.602 302.303 171.794C301.788 171.987 301.263 172.026 300.73 171.91C300.198 171.792 299.683 171.521 299.186 171.096ZM299.442 169.573L300.023 170.069C300.298 170.302 300.57 170.455 300.841 170.526C301.114 170.597 301.392 170.571 301.673 170.447C301.957 170.324 302.254 170.089 302.562 169.744C302.871 169.399 303.067 169.082 303.151 168.793C303.236 168.502 303.223 168.229 303.111 167.974C303.002 167.719 302.807 167.471 302.527 167.232L301.962 166.751L299.442 169.573Z" fill="#3300FF"/>
<path d="M308.552 178.144L311.972 172.692L314.274 174.071C314.687 174.318 314.997 174.583 315.203 174.865C315.411 175.149 315.52 175.436 315.53 175.728C315.542 176.02 315.462 176.303 315.291 176.577C315.161 176.784 315 176.943 314.81 177.054C314.62 177.163 314.415 177.224 314.194 177.238C313.972 177.252 313.747 177.219 313.517 177.14L313.483 177.194C313.7 177.338 313.868 177.52 313.989 177.742C314.111 177.964 314.17 178.206 314.163 178.469C314.158 178.729 314.073 178.991 313.908 179.253C313.725 179.546 313.485 179.763 313.189 179.903C312.895 180.042 312.563 180.092 312.194 180.054C311.825 180.014 311.437 179.872 311.029 179.628L308.552 178.144ZM310.552 177.881L311.377 178.375C311.667 178.548 311.914 178.622 312.118 178.595C312.325 178.57 312.488 178.46 312.61 178.267C312.698 178.127 312.74 177.986 312.737 177.845C312.735 177.702 312.69 177.567 312.603 177.439C312.516 177.309 312.387 177.193 312.217 177.09L311.367 176.582L310.552 177.881ZM311.9 175.733L312.639 176.175C312.784 176.262 312.929 176.316 313.072 176.336C313.215 176.356 313.347 176.339 313.467 176.286C313.588 176.234 313.689 176.145 313.769 176.017C313.884 175.834 313.908 175.651 313.843 175.468C313.777 175.285 313.633 175.126 313.41 174.993L312.65 174.537L311.9 175.733Z" fill="#3300FF"/>
<path d="M318.284 176.367L319.859 177.101L319.911 180.095L319.962 180.119L322.377 178.274L323.952 179.008L319.938 181.866L318.995 183.797L317.594 183.144L318.537 181.213L318.284 176.367Z" fill="#3300FF"/>
<path d="M333.056 184.059C333.101 183.833 333.062 183.636 332.939 183.468C332.819 183.299 332.612 183.174 332.32 183.092C332.126 183.037 331.957 183.017 331.813 183.031C331.669 183.045 331.552 183.087 331.462 183.157C331.372 183.225 331.309 183.316 331.274 183.428C331.242 183.519 331.237 183.605 331.256 183.687C331.278 183.769 331.32 183.849 331.383 183.925C331.448 184 331.531 184.073 331.632 184.145C331.733 184.217 331.85 184.288 331.982 184.358L332.479 184.628C332.766 184.781 333.01 184.945 333.212 185.121C333.415 185.298 333.574 185.485 333.688 185.683C333.804 185.881 333.874 186.091 333.898 186.313C333.922 186.535 333.899 186.77 333.828 187.018C333.711 187.407 333.514 187.714 333.236 187.938C332.958 188.163 332.613 188.298 332.202 188.343C331.793 188.389 331.331 188.34 330.814 188.194C330.296 188.049 329.867 187.844 329.528 187.581C329.188 187.318 328.958 186.999 328.837 186.623C328.716 186.248 328.724 185.818 328.86 185.334L330.294 185.737C330.248 185.94 330.252 186.12 330.308 186.28C330.364 186.439 330.464 186.576 330.609 186.691C330.757 186.806 330.94 186.895 331.16 186.957C331.362 187.013 331.541 187.034 331.698 187.02C331.857 187.006 331.99 186.961 332.095 186.886C332.2 186.812 332.272 186.712 332.31 186.588C332.343 186.471 332.336 186.361 332.29 186.259C332.244 186.155 332.156 186.052 332.027 185.95C331.9 185.847 331.731 185.738 331.521 185.622L330.918 185.289C330.418 185.016 330.053 184.699 329.826 184.339C329.598 183.977 329.555 183.562 329.695 183.095C329.805 182.712 330.007 182.407 330.299 182.178C330.592 181.949 330.945 181.805 331.36 181.748C331.774 181.69 332.216 181.728 332.686 181.86C333.166 181.995 333.559 182.193 333.864 182.455C334.171 182.716 334.38 183.019 334.489 183.365C334.599 183.712 334.599 184.077 334.49 184.462L333.056 184.059Z" fill="#3300FF"/>
<path d="M343.071 187.397C342.946 188.094 342.706 188.663 342.351 189.101C341.996 189.54 341.567 189.847 341.063 190.02C340.562 190.194 340.027 190.233 339.459 190.136C338.889 190.04 338.399 189.825 337.988 189.494C337.577 189.163 337.28 188.733 337.098 188.205C336.918 187.675 336.89 187.062 337.014 186.367C337.139 185.67 337.378 185.102 337.731 184.663C338.086 184.224 338.514 183.917 339.015 183.743C339.517 183.569 340.053 183.531 340.623 183.628C341.191 183.724 341.68 183.937 342.092 184.267C342.505 184.596 342.803 185.026 342.985 185.556C343.167 186.087 343.195 186.7 343.071 187.397ZM341.503 187.131C341.577 186.718 341.58 186.36 341.514 186.055C341.449 185.751 341.32 185.507 341.127 185.323C340.937 185.14 340.688 185.022 340.383 184.97C340.079 184.919 339.805 184.948 339.56 185.057C339.315 185.166 339.108 185.353 338.939 185.617C338.773 185.882 338.652 186.221 338.579 186.634C338.505 187.046 338.501 187.404 338.565 187.709C338.632 188.013 338.762 188.257 338.955 188.441C339.148 188.625 339.396 188.742 339.699 188.794C340.005 188.846 340.279 188.817 340.522 188.708C340.767 188.598 340.973 188.411 341.14 188.146C341.308 187.882 341.43 187.543 341.503 187.131Z" fill="#3300FF"/>
<path d="M345.738 190.905L346.187 184.485L347.739 184.587L347.378 189.747L350.05 189.923L349.962 191.184L345.738 190.905Z" fill="#3300FF"/>
<path d="M355.052 184.782L355.116 191.217L353.561 191.233L353.497 184.797L355.052 184.782Z" fill="#3300FF"/>
<path d="M360.895 190.895L358.527 191.121L357.893 184.716L360.258 184.491C360.911 184.429 361.485 184.503 361.982 184.715C362.481 184.924 362.882 185.256 363.186 185.711C363.49 186.164 363.675 186.723 363.74 187.388C363.807 188.055 363.735 188.641 363.526 189.145C363.319 189.649 362.992 190.051 362.544 190.353C362.095 190.652 361.546 190.833 360.895 190.895ZM359.945 189.654L360.705 189.581C361.064 189.547 361.361 189.458 361.597 189.313C361.836 189.166 362.005 188.949 362.105 188.662C362.206 188.372 362.234 187.997 362.189 187.536C362.143 187.076 362.042 186.715 361.886 186.454C361.729 186.191 361.519 186.011 361.255 185.914C360.992 185.815 360.677 185.783 360.31 185.818L359.572 185.889L359.945 189.654Z" fill="#3300FF"/>
<path d="M368.068 183.392L369.267 189.715L367.737 189.993L366.537 183.67L368.068 183.392Z" fill="#3300FF"/>
<path d="M371.02 184.102L370.683 182.885L375.941 181.491L376.278 182.709L374.392 183.209L375.771 188.194L374.289 188.587L372.909 183.601L371.02 184.102Z" fill="#3300FF"/>
<path d="M377.946 180.845L379.571 180.23L381.835 182.252L381.888 182.232L382.169 179.246L383.795 178.63L383.17 183.45L383.961 185.448L382.515 185.996L381.725 183.997L377.946 180.845Z" fill="#3300FF"/>
<path d="M389.799 177.841C389.673 177.646 389.506 177.53 389.299 177.491C389.093 177.449 388.854 177.496 388.582 177.632C388.402 177.723 388.265 177.821 388.169 177.928C388.074 178.034 388.018 178.143 388 178.255C387.982 178.365 388 178.472 388.052 178.577C388.093 178.664 388.15 178.731 388.221 178.777C388.294 178.822 388.381 178.851 388.48 178.865C388.58 178.876 388.693 178.873 388.817 178.858C388.941 178.842 389.076 178.815 389.222 178.777L389.775 178.641C390.091 178.559 390.385 178.515 390.656 178.508C390.928 178.5 391.176 178.529 391.398 178.596C391.621 178.662 391.82 178.767 391.993 178.912C392.166 179.058 392.314 179.244 392.435 179.471C392.622 179.832 392.692 180.187 392.646 180.536C392.6 180.885 392.442 181.213 392.173 181.522C391.907 181.829 391.533 182.103 391.054 182.344C390.573 182.585 390.116 182.724 389.683 182.761C389.251 182.797 388.859 182.72 388.508 182.528C388.156 182.337 387.861 182.019 387.622 181.577L388.953 180.909C389.061 181.087 389.191 181.215 389.343 181.293C389.495 181.372 389.665 181.404 389.851 181.39C390.04 181.375 390.236 181.316 390.44 181.214C390.627 181.12 390.773 181.015 390.878 180.899C390.985 180.782 391.05 180.662 391.075 180.537C391.099 180.412 391.082 180.292 391.024 180.176C390.965 180.069 390.883 179.994 390.778 179.951C390.672 179.906 390.535 179.89 390.37 179.903C390.205 179.913 390.005 179.947 389.77 180.004L389.096 180.166C388.538 180.303 388.05 180.317 387.631 180.208C387.211 180.098 386.889 179.826 386.664 179.393C386.477 179.042 386.411 178.685 386.464 178.323C386.518 177.961 386.676 177.62 386.939 177.301C387.202 176.981 387.552 176.712 387.988 176.493C388.433 176.269 388.86 176.15 389.266 176.136C389.673 176.119 390.039 176.2 390.361 176.378C390.684 176.555 390.94 176.821 391.13 177.173L389.799 177.841Z" fill="#3300FF"/>
<path d="M398.762 172.935L397.441 173.785C397.333 173.663 397.216 173.565 397.089 173.492C396.962 173.42 396.827 173.374 396.686 173.355C396.545 173.337 396.399 173.347 396.249 173.386C396.099 173.423 395.95 173.489 395.802 173.584C395.54 173.753 395.356 173.962 395.251 174.211C395.148 174.459 395.126 174.736 395.185 175.042C395.246 175.346 395.391 175.669 395.62 176.01C395.859 176.364 396.11 176.629 396.374 176.803C396.638 176.974 396.904 177.06 397.173 177.062C397.442 177.061 397.705 176.977 397.963 176.812C398.107 176.719 398.226 176.616 398.32 176.504C398.415 176.39 398.484 176.27 398.527 176.142C398.571 176.012 398.588 175.878 398.578 175.74C398.569 175.599 398.533 175.456 398.469 175.313L399.796 174.471C399.932 174.722 400.019 175 400.057 175.304C400.097 175.607 400.08 175.918 400.007 176.236C399.932 176.553 399.788 176.86 399.574 177.158C399.361 177.453 399.069 177.721 398.698 177.96C398.208 178.275 397.698 178.451 397.167 178.489C396.638 178.523 396.123 178.408 395.625 178.144C395.126 177.879 394.68 177.454 394.286 176.868C393.89 176.281 393.669 175.709 393.621 175.155C393.574 174.6 393.673 174.092 393.918 173.631C394.163 173.169 394.526 172.784 395.007 172.475C395.334 172.264 395.668 172.114 396.007 172.025C396.345 171.935 396.678 171.908 397.005 171.944C397.331 171.978 397.644 172.077 397.943 172.241C398.242 172.404 398.515 172.636 398.762 172.935Z" fill="#3300FF"/>
<path d="M404.895 173.425L403.6 174.482L401.102 168.215L402.707 166.906L408.568 170.427L407.273 171.484L402.976 168.779L402.937 168.81L404.895 173.425ZM403.077 171.64L405.784 169.431L406.552 170.329L403.844 172.539L403.077 171.64Z" fill="#3300FF"/>
<path d="M409.937 159.981L414.646 164.368L413.725 165.313L409.219 164.615L409.19 164.644L411.908 167.176L410.822 168.29L406.113 163.903L407.048 162.945L411.529 163.659L411.566 163.62L408.853 161.093L409.937 159.981Z" fill="#3300FF"/>
<path d="M415.612 155.032L414.558 154.337L417.649 149.861L418.704 150.556L417.595 152.162L421.913 155.01L421.041 156.272L416.723 153.424L415.612 155.032Z" fill="#3300FF"/>
<path d="M424.552 150.846L418.859 147.844L421.028 143.916L422.146 144.505L420.728 147.071L421.896 147.687L423.203 145.321L424.323 145.912L423.016 148.278L424.186 148.895L425.604 146.328L426.721 146.918L424.552 150.846Z" fill="#3300FF"/>
<path d="M428.684 142.72L428.035 144.261L422.905 139.861L423.709 137.952L430.524 138.349L429.875 139.89L424.821 139.489L424.802 139.535L428.684 142.72ZM426.247 141.981L427.603 138.761L428.699 139.201L427.343 142.422L426.247 141.981Z" fill="#3300FF"/>
<path d="M425.299 133.834L425.82 131.979L430.11 131.435L430.131 131.363L426.723 128.76L427.243 126.905L433.461 128.568L433.051 130.026L429.232 129.005L429.218 129.056L432.58 131.556L432.318 132.488L428.1 132.96L428.085 133.011L431.926 134.038L431.517 135.497L425.299 133.834Z" fill="#3300FF"/>
<circle cx="353.7" cy="107.101" r="65.7273" fill="url(#paint4_linear_1944_196)" stroke="url(#paint5_linear_1944_196)" stroke-width="1.21591"/>
<path d="M275.279 89.3027C275.039 89.2839 274.839 89.3479 274.678 89.4947C274.515 89.639 274.406 89.8664 274.351 90.1769C274.314 90.3825 274.31 90.5584 274.34 90.7046C274.369 90.8508 274.424 90.9662 274.507 91.0508C274.587 91.135 274.686 91.1885 274.806 91.2111C274.904 91.2323 274.994 91.2278 275.077 91.1978C275.16 91.1656 275.238 91.1127 275.31 91.0391C275.381 90.963 275.449 90.8686 275.513 90.756C275.578 90.6434 275.639 90.5149 275.698 90.3705L275.927 89.8272C276.056 89.5138 276.201 89.2429 276.364 89.0147C276.526 88.7843 276.704 88.5984 276.897 88.4571C277.09 88.3136 277.301 88.216 277.529 88.1645C277.757 88.1129 278.003 88.1086 278.267 88.1514C278.682 88.2246 279.021 88.3905 279.282 88.649C279.543 88.9076 279.718 89.2453 279.807 89.6621C279.896 90.0768 279.892 90.5582 279.795 91.1063C279.697 91.6567 279.529 92.1222 279.291 92.503C279.053 92.8838 278.745 93.159 278.368 93.3285C277.991 93.498 277.545 93.5421 277.029 93.4607L277.301 91.9382C277.515 91.9616 277.702 91.935 277.862 91.8586C278.021 91.7821 278.153 91.6623 278.257 91.4991C278.361 91.3338 278.435 91.1345 278.476 90.9011C278.514 90.687 278.518 90.5 278.487 90.3402C278.456 90.1783 278.396 90.0479 278.308 89.949C278.219 89.85 278.109 89.7881 277.976 89.7633C277.852 89.7442 277.739 89.7646 277.637 89.8246C277.534 89.8842 277.436 89.9866 277.344 90.1319C277.25 90.2748 277.154 90.4613 277.056 90.6917L276.772 91.3516C276.54 91.8988 276.249 92.3114 275.899 92.5892C275.547 92.8667 275.122 92.9617 274.622 92.8743C274.215 92.8069 273.877 92.6368 273.61 92.3639C273.343 92.091 273.158 91.7451 273.056 91.3261C272.954 90.9071 272.947 90.4481 273.036 89.9492C273.127 89.4395 273.293 89.0122 273.533 88.6671C273.772 88.3195 274.065 88.0684 274.413 87.9138C274.761 87.7591 275.14 87.7146 275.55 87.7802L275.279 89.3027Z" fill="#3300FF"/>
<path d="M280.793 86.0784L274.353 84.3023L275.641 79.8249L276.905 80.1736L276.064 83.0989L277.384 83.4631L278.16 80.7667L279.427 81.1162L278.651 83.8126L279.975 84.1777L280.817 81.2524L282.081 81.601L280.793 86.0784Z" fill="#3300FF"/>
<path d="M281.27 71.9959L280.649 73.5047C280.485 73.4635 280.327 73.4493 280.176 73.4622C280.025 73.4752 279.884 73.5154 279.753 73.5829C279.622 73.6504 279.504 73.7454 279.399 73.8679C279.294 73.9876 279.206 74.1319 279.137 74.3009C279.014 74.6006 278.981 74.8883 279.039 75.1637C279.099 75.4372 279.244 75.6873 279.475 75.914C279.707 76.1387 280.021 76.3291 280.418 76.4854C280.831 76.6481 281.2 76.726 281.528 76.7194C281.854 76.7099 282.131 76.6265 282.361 76.469C282.589 76.3088 282.763 76.0818 282.884 75.7881C282.952 75.6232 282.992 75.4649 283.005 75.3134C283.019 75.1598 283.006 75.0158 282.968 74.8813C282.928 74.744 282.863 74.6191 282.773 74.5064C282.681 74.391 282.566 74.2907 282.427 74.2056L283.057 72.7003C283.321 72.8349 283.56 73.0212 283.772 73.2592C283.985 73.4953 284.155 73.7714 284.281 74.0876C284.406 74.4031 284.465 74.7513 284.458 75.1322C284.453 75.5111 284.363 75.9128 284.189 76.3373C283.959 76.8966 283.629 77.3489 283.2 77.6942C282.77 78.0367 282.265 78.242 281.685 78.3101C281.104 78.3783 280.473 78.278 279.791 78.0093C279.107 77.7398 278.581 77.3816 278.212 76.9348C277.844 76.4879 277.627 75.9945 277.562 75.4547C277.497 74.9148 277.578 74.3703 277.804 73.8211C277.957 73.4469 278.152 73.1216 278.388 72.8452C278.622 72.568 278.889 72.3482 279.188 72.1857C279.486 72.0225 279.81 71.9224 280.162 71.8855C280.513 71.8486 280.882 71.8855 281.27 71.9959Z" fill="#3300FF"/>
<path d="M282.476 64.5868L283.261 63.1793L287.061 65.2117C287.5 65.4465 287.824 65.7547 288.035 66.1361C288.243 66.5164 288.333 66.9395 288.305 67.4053C288.275 67.87 288.123 68.3474 287.849 68.8374C287.572 69.3332 287.242 69.7191 286.859 69.9951C286.474 70.2701 286.062 70.4235 285.624 70.4553C285.183 70.486 284.744 70.384 284.305 70.1491L280.505 68.1168L281.293 66.7065L284.968 68.6727C285.171 68.7814 285.377 68.8346 285.585 68.8324C285.794 68.8282 285.988 68.7705 286.167 68.6592C286.346 68.5478 286.495 68.3867 286.612 68.1759C286.73 67.9651 286.788 67.7567 286.786 67.5509C286.785 67.3431 286.729 67.152 286.62 66.9776C286.511 66.8032 286.355 66.6617 286.151 66.553L282.476 64.5868Z" fill="#3300FF"/>
<path d="M290.811 63.8279L285.303 60.0488L286.91 57.8043C287.201 57.3975 287.527 57.0975 287.887 56.9042C288.247 56.7079 288.622 56.624 289.014 56.6525C289.403 56.6798 289.786 56.8226 290.163 57.0809C290.545 57.3429 290.81 57.6479 290.96 57.9956C291.107 58.3422 291.143 58.7147 291.066 59.1131C290.988 59.5103 290.8 59.9158 290.504 60.3297L289.488 61.7491L288.439 61.0294L289.28 59.8541C289.422 59.656 289.515 59.4728 289.558 59.3045C289.6 59.1331 289.592 58.9761 289.534 58.8333C289.474 58.6893 289.359 58.5588 289.188 58.4419C289.018 58.3251 288.853 58.263 288.692 58.2557C288.53 58.2472 288.373 58.2911 288.221 58.3874C288.067 58.4824 287.92 58.6281 287.78 58.8244L287.316 59.4718L291.751 62.5146L290.811 63.8279ZM290.484 59.0417L293.97 59.4158L292.944 60.8485L289.477 60.4479L290.484 59.0417Z" fill="#3300FF"/>
<path d="M291.384 52.1824L296.56 56.4047L295.513 57.6346L290.337 53.4123L291.384 52.1824Z" fill="#3300FF"/>
<path d="M297.768 45.5874L302.547 50.2549L301.569 51.2146L296.912 50.3832L296.882 50.4129L299.64 53.1067L298.487 54.2379L293.709 49.5704L294.701 48.5969L299.331 49.4444L299.371 49.4055L296.618 46.7163L297.768 45.5874Z" fill="#3300FF"/>
<path d="M305.47 42.1238C305.355 42.0399 305.236 41.9793 305.114 41.942C304.99 41.9031 304.864 41.8868 304.735 41.8932C304.606 41.8997 304.476 41.9298 304.346 41.9836C304.215 42.0357 304.086 42.111 303.958 42.2095C303.702 42.408 303.529 42.6406 303.44 42.9076C303.353 43.1732 303.353 43.4619 303.44 43.7739C303.526 44.0842 303.702 44.4051 303.97 44.7366C304.239 45.0699 304.518 45.3161 304.806 45.4753C305.094 45.6345 305.381 45.7039 305.666 45.6836C305.952 45.6632 306.227 45.5505 306.492 45.3455C306.726 45.1644 306.894 44.974 306.995 44.7744C307.097 44.5718 307.134 44.3685 307.106 44.1646C307.079 43.9606 306.989 43.7648 306.837 43.577L307.097 43.4212L305.812 44.4159L305.072 43.5L307.351 41.7363L307.906 42.4238C308.282 42.889 308.503 43.3652 308.569 43.8525C308.638 44.3385 308.568 44.8061 308.361 45.2554C308.155 45.7033 307.825 46.103 307.371 46.4546C306.867 46.8447 306.337 47.0802 305.782 47.161C305.227 47.2418 304.682 47.1661 304.147 46.9337C303.611 46.6996 303.122 46.3086 302.68 45.7606C302.335 45.3343 302.094 44.9064 301.957 44.4767C301.818 44.0453 301.771 43.6253 301.816 43.2169C301.862 42.8071 301.99 42.4251 302.198 42.071C302.409 41.7156 302.691 41.4014 303.043 41.1284C303.349 40.8914 303.669 40.7141 304.002 40.5966C304.336 40.4778 304.669 40.4185 304.999 40.4187C305.33 40.4175 305.647 40.4759 305.95 40.5939C306.252 40.7119 306.523 40.8883 306.763 41.1231L305.47 42.1238Z" fill="#3300FF"/>
<path d="M312.982 36.1669L312.348 35.0195L317.339 32.375L317.973 33.5225L316.183 34.4712L318.781 39.1695L317.374 39.915L314.776 35.2167L312.982 36.1669Z" fill="#3300FF"/>
<path d="M322.74 37.261L320.185 31.0886L321.687 30.4932L322.712 32.9706L325.16 31.9999L324.134 29.5225L325.633 28.9283L328.187 35.1008L326.689 35.695L325.662 33.2145L323.215 34.1852L324.241 36.6656L322.74 37.261Z" fill="#3300FF"/>
<path d="M330.961 34.2451L329.1 27.8295L333.588 26.5811L333.954 27.8405L331.021 28.6561L331.403 29.9718L334.106 29.22L334.473 30.4824L331.769 31.2342L332.152 32.5531L335.085 31.7375L335.45 32.9968L330.961 34.2451Z" fill="#3300FF"/>
<path d="M345.684 26.5762C345.635 26.341 345.517 26.167 345.331 26.0542C345.147 25.939 344.898 25.8988 344.585 25.9337C344.377 25.9568 344.208 26.003 344.076 26.0724C343.943 26.1418 343.848 26.2278 343.79 26.3306C343.732 26.4311 343.709 26.542 343.72 26.6633C343.728 26.7631 343.757 26.8484 343.809 26.9192C343.863 26.9898 343.936 27.0496 344.027 27.0985C344.12 27.1451 344.23 27.1832 344.356 27.213C344.482 27.2427 344.622 27.2654 344.777 27.281L345.363 27.3471C345.7 27.3819 346.001 27.4448 346.265 27.5357C346.532 27.6264 346.76 27.7443 346.95 27.8895C347.142 28.0345 347.295 28.209 347.408 28.413C347.522 28.617 347.595 28.8517 347.628 29.1172C347.674 29.5365 347.61 29.908 347.435 30.2316C347.26 30.5552 346.985 30.8188 346.611 31.0224C346.238 31.2257 345.775 31.3581 345.221 31.4197C344.666 31.4814 344.172 31.4521 343.74 31.3316C343.308 31.2112 342.957 30.9941 342.689 30.6804C342.42 30.3667 342.253 29.951 342.186 29.4333L343.723 29.2624C343.761 29.4749 343.839 29.6467 343.957 29.778C344.075 29.9093 344.227 30.0018 344.413 30.0555C344.601 30.109 344.813 30.1227 345.048 30.0965C345.264 30.0725 345.445 30.0229 345.589 29.9477C345.736 29.8724 345.844 29.7782 345.915 29.6654C345.985 29.5526 346.013 29.4291 346 29.2949C345.983 29.1699 345.932 29.0673 345.846 28.9871C345.759 28.9048 345.634 28.84 345.468 28.7927C345.305 28.7431 345.099 28.7036 344.85 28.6743L344.138 28.5895C343.547 28.5216 343.07 28.3592 342.705 28.1021C342.34 27.8429 342.129 27.4616 342.073 26.958C342.023 26.5478 342.092 26.1758 342.279 25.8422C342.465 25.5085 342.745 25.2334 343.119 25.0168C343.492 24.8003 343.931 24.664 344.434 24.608C344.949 24.5508 345.405 24.5887 345.804 24.7216C346.205 24.8521 346.528 25.0624 346.774 25.3523C347.02 25.6422 347.169 25.9933 347.221 26.4054L345.684 26.5762Z" fill="#3300FF"/>
<path d="M350.46 24.2091L352.46 24.2236L354.125 28.3724L354.204 28.3729L355.931 24.2488L357.931 24.2633L357.881 30.9442L356.308 30.9328L356.339 26.829L356.284 26.8286L354.648 30.8784L353.643 30.8711L352.069 26.7752L352.014 26.7748L351.982 30.9015L350.41 30.8901L350.46 24.2091Z" fill="#3300FF"/>
<path d="M362 31.3747L360.279 31.1476L363.426 24.8236L365.557 25.105L366.88 32.019L365.16 31.7919L364.286 26.6352L364.234 26.6283L362 31.3747ZM362.129 28.7395L365.725 29.2143L365.558 30.4295L361.962 29.9547L362.129 28.7395Z" fill="#3300FF"/>
<path d="M369.232 32.5438L370.887 26.0702L373.567 26.727C374.053 26.846 374.45 27.0362 374.758 27.2975C375.069 27.5573 375.279 27.873 375.388 28.2446C375.498 28.6141 375.496 29.0201 375.383 29.4626C375.268 29.9115 375.072 30.2688 374.796 30.5347C374.519 30.7985 374.18 30.9683 373.777 31.0441C373.374 31.1179 372.925 31.0942 372.431 30.9731L370.736 30.5578L371.051 29.325L372.455 29.6689C372.691 29.7269 372.897 29.7447 373.071 29.7224C373.248 29.6986 373.393 29.6335 373.508 29.5272C373.623 29.4189 373.706 29.2646 373.758 29.0644C373.809 28.8642 373.81 28.6887 373.761 28.5379C373.712 28.3849 373.616 28.2561 373.472 28.1515C373.329 28.0447 373.14 27.9626 372.906 27.9051L372.133 27.7157L370.8 32.9281L369.232 32.5438ZM373.641 30.4803L374.501 33.8348L372.79 33.4156L371.962 30.0688L373.641 30.4803Z" fill="#3300FF"/>
<path d="M378.477 29.4358L378.935 28.2069L384.252 30.1084L383.793 31.3372L381.886 30.6551L380.008 35.6866L378.509 35.1505L380.387 30.119L378.477 29.4358Z" fill="#3300FF"/>
<path d="M395.713 38.5877L394.293 37.7857C394.359 37.6307 394.397 37.4786 394.406 37.3292C394.416 37.1799 394.397 37.0367 394.349 36.8997C394.301 36.7627 394.224 36.6353 394.117 36.5173C394.012 36.3986 393.881 36.2943 393.722 36.2044C393.44 36.0451 393.156 35.9761 392.871 35.9974C392.588 36.0198 392.315 36.1293 392.053 36.3259C391.792 36.5236 391.554 36.8061 391.338 37.1734C391.112 37.5557 390.978 37.9072 390.936 38.2278C390.896 38.5476 390.938 38.8298 391.061 39.0743C391.188 39.3181 391.389 39.518 391.666 39.6741C391.821 39.7618 391.974 39.8218 392.124 39.8541C392.276 39.8874 392.422 39.8939 392.563 39.8735C392.706 39.8522 392.842 39.8049 392.968 39.7315C393.098 39.6573 393.216 39.5578 393.322 39.433L394.737 40.2434C394.562 40.4844 394.339 40.6933 394.069 40.8701C393.8 41.0479 393.497 41.1781 393.161 41.2604C392.826 41.3409 392.468 41.3535 392.087 41.298C391.707 41.2437 391.318 41.1037 390.918 40.8781C390.392 40.5808 389.988 40.2002 389.706 39.7363C389.427 39.2717 389.297 38.7512 389.316 38.175C389.336 37.5988 389.531 36.9949 389.903 36.3634C390.277 35.73 390.715 35.262 391.219 34.9596C391.723 34.6571 392.25 34.5092 392.802 34.5158C393.353 34.5224 393.887 34.6717 394.404 34.9636C394.756 35.1625 395.053 35.3951 395.295 35.6615C395.538 35.926 395.718 36.2152 395.836 36.5291C395.955 36.8411 396.006 37.1711 395.99 37.5193C395.974 37.8675 395.882 38.2236 395.713 38.5877Z" fill="#3300FF"/>
<path d="M402.902 44.7564C402.456 45.3413 401.965 45.7538 401.427 45.9939C400.888 46.2339 400.344 46.3172 399.793 46.2437C399.244 46.1716 398.728 45.9592 398.245 45.6067C397.761 45.2529 397.405 44.8279 397.179 44.3318C396.953 43.8356 396.88 43.3017 396.96 42.7301C397.043 42.1581 397.307 41.5805 397.751 40.9973C398.197 40.4123 398.688 39.9992 399.224 39.7579C399.762 39.5179 400.306 39.4339 400.854 39.5061C401.403 39.5783 401.92 39.7913 402.405 40.1451C402.888 40.4976 403.243 40.9211 403.471 41.4155C403.7 41.9112 403.774 42.4457 403.692 43.019C403.611 43.5924 403.347 44.1715 402.902 44.7564ZM401.569 43.7835C401.832 43.4374 402.005 43.1084 402.087 42.7965C402.17 42.4859 402.166 42.2012 402.073 41.9424C401.982 41.685 401.807 41.4614 401.547 41.2717C401.289 41.0832 401.02 40.9825 400.74 40.9695C400.46 40.9565 400.179 41.0328 399.897 41.1986C399.617 41.3656 399.345 41.6222 399.082 41.9683C398.818 42.3144 398.645 42.6428 398.561 42.9534C398.479 43.2653 398.485 43.5506 398.577 43.8093C398.67 44.0681 398.845 44.2917 399.103 44.4801C399.363 44.6698 399.632 44.7706 399.91 44.7823C400.19 44.7953 400.47 44.7183 400.75 44.5513C401.032 44.3855 401.305 44.1296 401.569 43.7835Z" fill="#3300FF"/>
<path d="M411.534 48.0275L406.888 52.8312L405.884 51.9L406.615 47.3207L406.584 47.2919L403.903 50.0643L402.719 48.9668L407.364 44.1632L408.383 45.1076L407.635 49.6623L407.676 49.7L410.352 46.9323L411.534 48.0275Z" fill="#3300FF"/>
<path d="M412.968 51.4222L413.979 50.5861L417.668 54.8601L416.657 55.6961L415.334 54.1628L411.195 57.586L410.155 56.3811L414.294 52.9579L412.968 51.4222Z" fill="#3300FF"/>
<path d="M413.932 60.9768L419.497 57.2774L421.069 59.5447C421.354 59.9556 421.525 60.3603 421.582 60.7586C421.642 61.1575 421.588 61.531 421.422 61.879C421.258 62.2258 420.985 62.5257 420.605 62.7786C420.219 63.035 419.833 63.1699 419.448 63.1832C419.065 63.1953 418.697 63.0955 418.343 62.8839C417.992 62.6711 417.671 62.3557 417.381 61.9376L416.387 60.5038L417.446 59.7993L418.27 60.9866C418.409 61.1867 418.551 61.3363 418.696 61.4354C418.845 61.535 418.998 61.5836 419.155 61.581C419.314 61.5772 419.479 61.5181 419.651 61.4037C419.823 61.2893 419.941 61.16 420.005 61.0156C420.071 60.8701 420.085 60.7107 420.047 60.5376C420.011 60.3633 419.924 60.177 419.786 59.9787L419.333 59.3247L414.852 62.3033L413.932 60.9768ZM418.618 62.3761L417.023 65.4336L416.019 63.9864L417.633 60.9557L418.618 62.3761Z" fill="#3300FF"/>
<path d="M418.911 68.6707L418.088 67.1431L425.095 66.0619L426.115 67.9542L421.246 73.0038L420.423 71.4762L424.12 67.8019L424.096 67.756L418.911 68.6707ZM421.138 67.2604L422.859 70.4535L421.769 71.0163L420.048 67.8232L421.138 67.2604Z" fill="#3300FF"/>
<path d="M428.384 79.2195L427.786 77.702C427.935 77.6227 428.06 77.5278 428.161 77.4175C428.263 77.3072 428.338 77.1835 428.387 77.0465C428.436 76.9095 428.456 76.7614 428.447 76.6021C428.441 76.4441 428.404 76.2801 428.337 76.1101C428.218 75.8086 428.042 75.5767 427.807 75.4142C427.573 75.2538 427.293 75.1679 426.966 75.1565C426.64 75.1472 426.277 75.2177 425.878 75.3683C425.463 75.5249 425.138 75.7149 424.903 75.9382C424.672 76.1628 424.527 76.4092 424.469 76.6775C424.414 76.9469 424.444 77.2294 424.56 77.5248C424.626 77.6907 424.707 77.8334 424.803 77.9528C424.9 78.0743 425.009 78.1712 425.131 78.2437C425.256 78.3174 425.391 78.3654 425.535 78.3876C425.682 78.4111 425.836 78.4076 425.997 78.3771L426.585 79.898C426.298 79.9761 425.994 79.9991 425.673 79.967C425.353 79.9368 425.036 79.8483 424.723 79.7013C424.413 79.5536 424.127 79.3384 423.866 79.0557C423.606 78.7751 423.392 78.4213 423.224 77.9944C423.002 77.4319 422.928 76.8812 423.001 76.3424C423.077 75.8049 423.303 75.3174 423.68 74.8799C424.057 74.4425 424.589 74.0944 425.275 73.8356C425.962 73.576 426.597 73.4865 427.178 73.5671C427.759 73.6476 428.261 73.8636 428.685 74.215C429.108 74.5665 429.429 75.0184 429.646 75.5707C429.795 75.9471 429.879 76.315 429.899 76.6747C429.921 77.0335 429.879 77.3723 429.773 77.6912C429.669 78.0092 429.502 78.299 429.271 78.5606C429.039 78.8222 428.744 79.0418 428.384 79.2195Z" fill="#3300FF"/>
<path d="M430.3 81.634L431.57 81.3076L433.033 86.7613L431.762 87.0877L431.238 85.1312L426.036 86.4678L425.624 84.9303L430.825 83.5937L430.3 81.634Z" fill="#3300FF"/>
<path d="M432.177 93.5469C432.411 93.49 432.58 93.3669 432.684 93.1775C432.791 92.9899 432.821 92.7404 432.772 92.4288C432.74 92.2226 432.686 92.0547 432.611 91.9252C432.536 91.7958 432.445 91.7037 432.34 91.6491C432.237 91.5942 432.125 91.5747 432.004 91.5906C431.904 91.6011 431.82 91.6335 431.752 91.6877C431.683 91.7441 431.627 91.8185 431.582 91.911C431.539 92.0053 431.506 92.1159 431.482 92.2426C431.457 92.3694 431.441 92.5104 431.432 92.6656L431.392 93.2522C431.372 93.5894 431.322 93.8915 431.243 94.1584C431.164 94.4275 431.056 94.6592 430.919 94.8534C430.782 95.0498 430.614 95.2079 430.415 95.3279C430.216 95.4478 429.984 95.5287 429.72 95.5704C429.302 95.6307 428.927 95.579 428.596 95.4153C428.264 95.2517 427.988 94.9862 427.768 94.619C427.548 94.2539 427.395 93.7963 427.309 93.2463C427.223 92.694 427.231 92.2004 427.332 91.7652C427.434 91.33 427.636 90.9733 427.938 90.695C428.24 90.4167 428.649 90.2357 429.164 90.152L429.403 91.6797C429.192 91.7244 429.023 91.8079 428.897 91.9302C428.771 92.0524 428.685 92.2071 428.639 92.3942C428.594 92.5835 428.59 92.7952 428.626 93.0294C428.66 93.2443 428.717 93.4226 428.799 93.5643C428.881 93.7082 428.98 93.8132 429.096 93.8794C429.212 93.9456 429.336 93.9698 429.47 93.952C429.595 93.9312 429.695 93.8766 429.771 93.7882C429.85 93.6994 429.909 93.5718 429.949 93.4053C429.992 93.2406 430.022 93.0338 430.041 92.7848L430.094 92.0709C430.136 91.4797 430.278 90.9979 430.519 90.6254C430.762 90.2525 431.135 90.0297 431.636 89.9568C432.045 89.8935 432.42 89.9495 432.762 90.1248C433.104 90.3001 433.392 90.5704 433.625 90.9357C433.858 91.301 434.014 91.7339 434.092 92.2346C434.172 92.746 434.154 93.2027 434.039 93.6048C433.926 94.0087 433.73 94.3382 433.45 94.5933C433.171 94.8484 432.826 95.0088 432.416 95.0746L432.177 93.5469Z" fill="#3300FF"/>
<mask id="mask0_1944_196" style="mask-type:alpha" maskUnits="userSpaceOnUse" x="310" y="53" width="88" height="110">
<path d="M353.252 162.509C353.536 162.658 353.853 162.658 354.138 162.509C358.724 160.107 397.374 138.954 397.374 108.138V70.626C397.374 70.2006 397.11 69.8198 396.712 69.6704L354.053 53.6734C353.822 53.5868 353.567 53.5868 353.336 53.6734L310.678 69.6704C310.279 69.8198 310.015 70.2006 310.015 70.626V108.138C310.015 138.954 348.666 160.107 353.252 162.509Z" fill="#806CCF"/>
</mask>
<g mask="url(#mask0_1944_196)">
<line x1="264.675" y1="111.714" x2="349.827" y2="196.866" stroke="#75D647" stroke-width="0.743846"/>
<line x1="268.133" y1="108.28" x2="353.285" y2="193.432" stroke="#75D647" stroke-width="0.743846"/>
<line x1="271.553" y1="104.835" x2="356.705" y2="189.987" stroke="#75D647" stroke-width="0.743846"/>
<line x1="274.996" y1="101.393" x2="360.148" y2="186.545" stroke="#75D647" stroke-width="0.743846"/>
<line x1="278.435" y1="97.9558" x2="363.587" y2="183.108" stroke="#75D647" stroke-width="0.743846"/>
<line x1="281.865" y1="94.5222" x2="367.017" y2="179.674" stroke="#75D647" stroke-width="0.743846"/>
<line x1="285.308" y1="91.0925" x2="370.46" y2="176.245" stroke="#75D647" stroke-width="0.743846"/>
<line x1="288.737" y1="87.6433" x2="373.89" y2="172.795" stroke="#75D647" stroke-width="0.743846"/>
<line x1="292.176" y1="84.2058" x2="377.328" y2="169.358" stroke="#75D647" stroke-width="0.743846"/>
<line x1="295.624" y1="80.7644" x2="380.777" y2="165.916" stroke="#75D647" stroke-width="0.743846"/>
<line x1="299.068" y1="77.3269" x2="384.22" y2="162.479" stroke="#75D647" stroke-width="0.743846"/>
<line x1="302.492" y1="73.8972" x2="387.644" y2="159.049" stroke="#75D647" stroke-width="0.743846"/>
<line x1="305.931" y1="70.4558" x2="391.083" y2="155.608" stroke="#75D647" stroke-width="0.743846"/>
<line x1="309.384" y1="67.0183" x2="394.536" y2="152.17" stroke="#75D647" stroke-width="0.743846"/>
<line x1="312.809" y1="63.5886" x2="397.961" y2="148.741" stroke="#75D647" stroke-width="0.743846"/>
<line x1="316.257" y1="60.1394" x2="401.409" y2="145.291" stroke="#75D647" stroke-width="0.743846"/>
<line x1="319.686" y1="56.6901" x2="404.838" y2="141.842" stroke="#75D647" stroke-width="0.743846"/>
<line x1="323.126" y1="53.2604" x2="408.278" y2="138.413" stroke="#75D647" stroke-width="0.743846"/>
<line x1="326.564" y1="49.8308" x2="411.716" y2="134.983" stroke="#75D647" stroke-width="0.743846"/>
<line x1="329.997" y1="46.3894" x2="415.149" y2="131.541" stroke="#75D647" stroke-width="0.743846"/>
<line x1="333.44" y1="42.9519" x2="418.593" y2="128.104" stroke="#75D647" stroke-width="0.743846"/>
<line x1="336.885" y1="39.5104" x2="422.037" y2="124.663" stroke="#75D647" stroke-width="0.743846"/>
<line x1="340.328" y1="36.0729" x2="425.48" y2="121.225" stroke="#75D647" stroke-width="0.743846"/>
<line x1="343.734" y1="32.6394" x2="428.886" y2="117.791" stroke="#75D647" stroke-width="0.743846"/>
<line x1="347.191" y1="29.2019" x2="432.343" y2="114.354" stroke="#75D647" stroke-width="0.743846"/>
<line x1="350.625" y1="25.7604" x2="435.777" y2="110.913" stroke="#75D647" stroke-width="0.743846"/>
<line x1="354.064" y1="22.3229" x2="439.216" y2="107.475" stroke="#75D647" stroke-width="0.743846"/>
<line x1="357.503" y1="18.8933" x2="442.655" y2="104.045" stroke="#75D647" stroke-width="0.743846"/>
</g>
<path d="M334.847 88.8416V99.3974H339.084V90.9528H347.558V86.7305H336.965C336.404 86.7305 335.865 86.9529 335.467 87.3488C335.07 87.7447 334.847 88.2817 334.847 88.8416V88.8416ZM372.979 99.3974V88.8416C372.979 88.2817 372.756 87.7447 372.358 87.3488C371.961 86.9529 371.422 86.7305 370.86 86.7305H360.268V90.9528H368.742V99.3974H372.979ZM368.742 120.509H360.268V124.731H370.86C371.422 124.731 371.961 124.509 372.358 124.113C372.756 123.717 372.979 123.18 372.979 122.62V112.064H368.742V120.509ZM347.558 124.731V120.509H339.084V112.064H334.847V122.62C334.847 123.18 335.07 123.717 335.467 124.113C335.865 124.509 336.404 124.731 336.965 124.731H347.558ZM332.729 103.62H375.097V107.842H332.729V103.62Z" fill="#3300FF"/>
<path d="M275.354 102.859L277.369 106.983L281.914 107.625L278.614 110.816L279.408 115.337L275.354 113.185L271.3 115.337L272.094 110.816L268.794 107.625L273.339 106.983L275.354 102.859Z" fill="#3300FF"/>
<path d="M431.518 102.859L433.533 106.983L438.078 107.625L434.778 110.816L435.572 115.337L431.518 113.185L427.464 115.337L428.258 110.816L424.958 107.625L429.503 106.983L431.518 102.859Z" fill="#3300FF"/>
<defs>
<linearGradient id="paint0_linear_1944_196" x1="91.3354" y1="70.881" x2="106.994" y2="85.062" gradientUnits="userSpaceOnUse">
<stop stop-color="#52FF00"/>
<stop offset="1" stop-color="#00EEFD"/>
</linearGradient>
<linearGradient id="paint1_linear_1944_196" x1="267.093" y1="15.2857" x2="466.443" y2="177.775" gradientUnits="userSpaceOnUse">
<stop stop-color="#52FF00"/>
<stop offset="1" stop-color="#00EEFD"/>
</linearGradient>
<linearGradient id="paint2_linear_1944_196" x1="353.683" y1="12.8828" x2="353.683" y2="201.82" gradientUnits="userSpaceOnUse">
<stop stop-color="white"/>
<stop offset="1" stop-color="white" stop-opacity="0"/>
</linearGradient>
<linearGradient id="paint3_linear_1944_196" x1="353.683" y1="12.8828" x2="353.683" y2="201.82" gradientUnits="userSpaceOnUse">
<stop stop-color="#52FF00"/>
<stop offset="1" stop-color="#01EDFC"/>
</linearGradient>
<linearGradient id="paint4_linear_1944_196" x1="353.7" y1="40.7656" x2="353.7" y2="173.436" gradientUnits="userSpaceOnUse">
<stop stop-color="white" stop-opacity="0"/>
<stop offset="1" stop-color="white"/>
</linearGradient>
<linearGradient id="paint5_linear_1944_196" x1="353.7" y1="40.7656" x2="353.7" y2="173.436" gradientUnits="userSpaceOnUse">
<stop stop-color="#52FF00"/>
<stop offset="1" stop-color="#00EEFD"/>
</linearGradient>
</defs>
</svg>
