<svg width="207" height="207" viewBox="0 0 207 207" fill="none" xmlns="http://www.w3.org/2000/svg">
<path d="M101.653 2.34072C102.595 1.147 104.405 1.147 105.347 2.34072L109.16 7.17464C110.012 8.25392 111.604 8.37612 112.61 7.43947L117.117 3.24436C118.23 2.2084 120.018 2.48467 120.767 3.80816L123.798 9.1676C124.475 10.3642 126.029 10.7279 127.167 9.95587L132.261 6.49791C133.519 5.64398 135.245 6.19006 135.783 7.61231L137.96 13.3716C138.446 14.6575 139.927 15.2543 141.169 14.6649L146.731 12.0251C148.105 11.3732 149.727 12.1763 150.041 13.664L151.314 19.6882C151.598 21.0332 152.971 21.849 154.288 21.4561L160.188 19.6964C161.645 19.2619 163.126 20.3031 163.209 21.8213L163.548 27.9692C163.623 29.3419 164.855 30.3575 166.217 30.1703L172.317 29.332C173.823 29.1249 175.127 30.38 174.978 31.8931L174.374 38.0207C174.239 39.3888 175.301 40.5805 176.675 40.6034L182.832 40.706C184.352 40.7313 185.449 42.1707 185.071 43.6434L183.538 49.6069C183.196 50.9383 184.064 52.2782 185.419 52.5107L191.487 53.5518C192.986 53.809 193.851 55.3989 193.252 56.7966L190.827 62.4563C190.286 63.7199 190.939 65.1765 192.242 65.6131L198.081 67.5684C199.523 68.0513 200.134 69.7546 199.329 71.0445L196.069 76.2677C195.341 77.4339 195.764 78.9731 196.986 79.6036L202.457 82.4272C203.809 83.1245 204.153 84.9013 203.161 86.0531L199.141 90.7174C198.244 91.7589 198.427 93.3446 199.538 94.1542L204.514 97.78C205.743 98.6753 205.813 100.484 204.656 101.471L199.971 105.467C198.926 106.359 198.864 107.954 199.839 108.924L204.204 113.267C205.281 114.339 205.074 116.137 203.78 116.936L198.541 120.17C197.371 120.892 197.067 122.459 197.882 123.566L201.533 128.525C202.434 129.749 201.954 131.494 200.554 132.086L194.882 134.483C193.616 135.018 193.076 136.52 193.713 137.738L196.564 143.196C197.268 144.544 196.527 146.195 195.053 146.566L189.082 148.069C187.749 148.404 186.986 149.807 187.429 151.108L189.413 156.937C189.903 158.376 188.92 159.895 187.406 160.037L181.275 160.611C179.907 160.739 178.939 162.008 179.178 163.362L180.249 169.425C180.514 170.923 179.31 172.274 177.792 172.183L171.646 171.814C170.274 171.731 169.124 172.838 169.153 174.213L169.287 180.368C169.319 181.888 167.923 183.04 166.437 182.718L160.419 181.415C159.076 181.125 157.77 182.043 157.59 183.406L156.782 189.51C156.582 191.017 155.026 191.942 153.607 191.397L147.858 189.191C146.575 188.698 145.144 189.407 144.758 190.726L143.028 196.635C142.601 198.094 140.922 198.771 139.602 198.016L134.258 194.958C133.065 194.275 131.543 194.757 130.96 196.002L128.348 201.578C127.703 202.954 125.94 203.367 124.751 202.419L119.937 198.581C118.861 197.724 117.284 197.968 116.517 199.109L113.085 204.221C112.237 205.483 110.433 205.622 109.402 204.504L105.23 199.976C104.298 198.965 102.702 198.965 101.77 199.976L97.5976 204.504C96.5672 205.622 94.7627 205.483 93.915 204.221L90.4825 199.109C89.7161 197.968 88.1385 197.724 87.0635 198.581L82.2486 202.419C81.0596 203.367 79.2974 202.954 78.6524 201.578L76.0404 196.002C75.4572 194.757 73.9353 194.275 72.742 194.958L67.3978 198.016C66.078 198.771 64.3994 198.094 63.9721 196.635L62.2418 190.726C61.8555 189.407 60.425 188.698 59.1415 189.191L53.3931 191.397C51.9736 191.942 50.4179 191.017 50.2183 189.51L49.4104 183.406C49.23 182.043 47.9243 181.125 46.5807 181.415L40.5629 182.718C39.0768 183.04 37.6805 181.888 37.7134 180.368L37.8467 174.213C37.8765 172.838 36.7263 171.731 35.354 171.814L29.2079 172.183C27.6901 172.274 26.486 170.923 26.7505 169.425L27.8219 163.362C28.0611 162.008 27.0934 160.739 25.7247 160.611L19.5942 160.037C18.0803 159.895 17.0965 158.376 17.5866 156.937L19.571 151.108C20.014 149.807 19.2515 148.404 17.9183 148.069L11.9472 146.566C10.4727 146.195 9.73234 144.544 10.4364 143.196L13.2872 137.738C13.9238 136.52 13.3842 135.018 12.1179 134.483L6.44616 132.086C5.04555 131.494 4.56597 129.749 5.46746 128.525L9.11802 123.566C9.93309 122.459 9.62916 120.892 8.45935 120.17L3.21995 116.936C1.9261 116.137 1.71854 114.339 2.79637 113.267L7.16103 108.924C8.13553 107.954 8.07439 106.359 7.02851 105.467L2.34422 101.471C1.18745 100.484 1.25677 98.6753 2.48569 97.78L7.46214 94.1542C8.57325 93.3446 8.75632 91.7589 7.85889 90.7174L3.8395 86.0531C2.84692 84.9013 3.1915 83.1245 4.5427 82.4272L10.0143 79.6036C11.236 78.9731 11.6589 77.4339 10.931 76.2677L7.67073 71.0445C6.86561 69.7546 7.47737 68.0513 8.91917 67.5684L14.7577 65.6131C16.0613 65.1765 16.7143 63.7199 16.1729 62.4563L13.7481 56.7966C13.1493 55.3989 14.0139 53.809 15.5126 53.5518L21.5811 52.5107C22.9361 52.2782 23.8037 50.9383 23.4616 49.6068L21.9292 43.6434C21.5508 42.1707 22.648 40.7313 24.1683 40.706L30.3246 40.6034C31.6992 40.5805 32.7613 39.3888 32.6264 38.0207L32.0223 31.8931C31.8731 30.38 33.1771 29.1249 34.6835 29.332L40.7834 30.1703C42.1453 30.3575 43.3768 29.3419 43.4524 27.9692L43.7907 21.8213C43.8742 20.3031 45.3546 19.2619 46.8117 19.6964L52.7121 21.4561C54.0295 21.849 55.4016 21.0332 55.6858 19.6882L56.9587 13.664C57.273 12.1763 58.8949 11.3732 60.2686 12.0251L65.8312 14.6649C67.0732 15.2543 68.5538 14.6575 69.04 13.3716L71.2175 7.6123C71.7552 6.19006 73.4808 5.64398 74.7388 6.49791L79.8333 9.95587C80.9708 10.7279 82.5251 10.3642 83.2019 9.1676L86.233 3.80816C86.9816 2.48467 88.7702 2.2084 89.8832 3.24436L94.3901 7.43947C95.3964 8.37612 96.988 8.25392 97.8395 7.17464L101.653 2.34072Z" fill="url(#paint0_linear_1330_6468)"/>
<path d="M193.788 103.814C193.788 153.96 153.458 194.604 103.717 194.604C53.9771 194.604 13.6467 153.96 13.6467 103.814C13.6467 53.6674 53.9771 13.0236 103.717 13.0236C153.458 13.0236 193.788 53.6674 193.788 103.814Z" fill="url(#paint1_linear_1330_6468)" stroke="url(#paint2_linear_1330_6468)" stroke-width="1.17614"/>
<path d="M32.8464 122.242L28.7273 124.616L28.7393 124.667L33.5077 125L33.9003 126.637L27.3434 125.989L26.8763 124.041L32.4538 120.604L32.8464 122.242Z" fill="#3300FF"/>
<path d="M28.6837 130.704L34.5759 128.695L36.0324 132.784L34.8758 133.179L33.9242 130.507L32.7159 130.919L33.593 133.381L32.4335 133.777L31.5564 131.314L30.3452 131.727L31.2968 134.399L30.1402 134.793L28.6837 130.704Z" fill="#3300FF"/>
<path d="M31.2987 137.603L36.9683 135.032L38.0698 137.355C38.2694 137.777 38.3651 138.175 38.3569 138.55C38.3514 138.926 38.246 139.262 38.0408 139.558C37.8374 139.852 37.5419 140.088 37.1543 140.263C36.7612 140.442 36.3868 140.508 36.0311 140.462C35.6772 140.416 35.3541 140.269 35.0617 140.021C34.7712 139.772 34.5244 139.434 34.3212 139.005L33.6247 137.536L34.7043 137.046L35.2811 138.263C35.3783 138.468 35.4863 138.627 35.6049 138.74C35.7262 138.854 35.8592 138.922 36.0038 138.943C36.1502 138.963 36.3111 138.934 36.4864 138.854C36.6617 138.775 36.7897 138.673 36.8703 138.55C36.9527 138.426 36.9895 138.281 36.9808 138.116C36.9739 137.95 36.9222 137.766 36.8259 137.562L36.5082 136.892L31.9431 138.962L31.2987 137.603ZM35.3911 139.595L33.4639 142.17L32.7608 140.687L34.701 138.139L35.3911 139.595Z" fill="#3300FF"/>
<path d="M41.011 142.88L35.5641 145.894L34.8104 144.592L40.2573 141.578L41.011 142.88Z" fill="#3300FF"/>
<path d="M37.1917 148.574L42.3906 145.15L44.8015 148.65L43.781 149.322L42.2238 147.061L41.1576 147.764L42.5614 149.801L41.5383 150.475L40.1345 148.437L38.0453 149.813L37.1917 148.574Z" fill="#3300FF"/>
<path d="M47.3894 151.919L42.4702 155.734L41.5221 154.565L46.4413 150.75L47.3894 151.919Z" fill="#3300FF"/>
<path d="M44.5069 158.141L49.116 153.956L52.1059 157.103L51.2012 157.924L49.2477 155.869L48.3025 156.727L50.1031 158.622L49.1962 159.445L47.3955 157.55L46.448 158.41L48.4015 160.466L47.4968 161.288L44.5069 158.141Z" fill="#3300FF"/>
<path d="M51.4723 164.951L49.7216 163.458L53.8678 158.814L55.6162 160.305C56.0988 160.717 56.4313 161.164 56.6138 161.647C56.7991 162.13 56.8314 162.627 56.7106 163.136C56.5912 163.644 56.3162 164.139 55.8856 164.621C55.4537 165.105 54.9877 165.44 54.4877 165.625C53.9891 165.813 53.4819 165.85 52.9659 165.737C52.4512 165.623 51.9533 165.361 51.4723 164.951ZM51.7207 163.477L52.2827 163.957C52.5479 164.183 52.8114 164.33 53.0731 164.399C53.3378 164.468 53.6062 164.442 53.8784 164.323C54.1535 164.204 54.4402 163.977 54.7385 163.643C55.0368 163.309 55.2265 163.002 55.3078 162.722C55.3903 162.441 55.3775 162.177 55.2692 161.931C55.1638 161.684 54.9754 161.444 54.7041 161.213L54.1583 160.747L51.7207 163.477Z" fill="#3300FF"/>
<path d="M60.4383 171.701L63.7463 166.427L65.9734 167.761C66.3732 168 66.6729 168.256 66.8724 168.529C67.0736 168.803 67.179 169.081 67.1886 169.364C67.2 169.647 67.1228 169.92 66.9569 170.185C66.8309 170.386 66.6758 170.539 66.4916 170.646C66.3084 170.752 66.1097 170.811 65.8956 170.824C65.6815 170.838 65.4633 170.806 65.241 170.73L65.2087 170.781C65.4178 170.921 65.5808 171.098 65.6976 171.312C65.8162 171.527 65.8725 171.761 65.8664 172.015C65.8613 172.267 65.7791 172.52 65.6198 172.774C65.4421 173.057 65.2102 173.267 64.9242 173.402C64.6393 173.536 64.3182 173.585 63.961 173.548C63.6049 173.51 63.2295 173.372 62.8349 173.136L60.4383 171.701ZM62.3736 171.446L63.1716 171.924C63.4515 172.092 63.6904 172.163 63.8882 172.137C64.0878 172.113 64.2462 172.007 64.3636 171.82C64.4487 171.684 64.4897 171.548 64.4868 171.412C64.4849 171.274 64.4416 171.143 64.3567 171.019C64.273 170.893 64.1485 170.781 63.9833 170.682L63.1619 170.19L62.3736 171.446ZM63.6771 169.368L64.3917 169.796C64.5325 169.881 64.6722 169.932 64.8108 169.952C64.9494 169.971 65.0766 169.955 65.1924 169.904C65.3099 169.854 65.4074 169.767 65.4849 169.643C65.5958 169.466 65.6196 169.289 65.5562 169.112C65.4928 168.935 65.3534 168.782 65.1378 168.653L64.4024 168.212L63.6771 169.368Z" fill="#3300FF"/>
<path d="M69.7853 169.94L71.309 170.65L71.359 173.547L71.4086 173.57L73.7446 171.785L75.2683 172.495L71.3854 175.259L70.4732 177.127L69.1176 176.496L70.0298 174.627L69.7853 169.94Z" fill="#3300FF"/>
<path d="M83.9635 177.342C84.0071 177.123 83.9693 176.932 83.8502 176.77C83.7335 176.607 83.5338 176.486 83.2509 176.406C83.0637 176.353 82.9004 176.334 82.7612 176.347C82.6221 176.361 82.5086 176.402 82.421 176.47C82.3339 176.536 82.2733 176.623 82.2393 176.731C82.209 176.819 82.2034 176.903 82.2223 176.982C82.2432 177.062 82.284 177.138 82.3446 177.212C82.4077 177.285 82.4881 177.356 82.5859 177.425C82.6837 177.495 82.7966 177.563 82.9245 177.631L83.4051 177.892C83.6827 178.04 83.9189 178.199 84.1137 178.369C84.3104 178.54 84.464 178.722 84.5746 178.913C84.6871 179.104 84.7549 179.307 84.7781 179.522C84.8014 179.737 84.7787 179.965 84.7101 180.204C84.597 180.581 84.4059 180.877 84.137 181.094C83.8681 181.311 83.5349 181.442 83.1374 181.486C82.7419 181.53 82.2944 181.482 81.795 181.342C81.2937 181.201 80.8787 181.003 80.5503 180.749C80.2218 180.495 79.9992 180.186 79.8824 179.822C79.7657 179.459 79.7731 179.043 79.9049 178.575L81.2919 178.965C81.2469 179.161 81.2513 179.336 81.3051 179.49C81.359 179.644 81.4561 179.777 81.5966 179.888C81.739 179.999 81.9165 180.085 82.1292 180.145C82.3243 180.2 82.4978 180.22 82.6499 180.206C82.8038 180.192 82.9317 180.149 83.0333 180.077C83.135 180.004 83.2045 179.908 83.242 179.788C83.2733 179.675 83.2666 179.569 83.2218 179.47C83.1776 179.369 83.0929 179.27 82.9677 179.171C82.845 179.071 82.6819 178.966 82.4783 178.854L81.8951 178.532C81.4112 178.267 81.0589 177.961 80.8384 177.613C80.6185 177.263 80.5763 176.861 80.7118 176.409C80.8188 176.039 81.0138 175.743 81.2967 175.522C81.5796 175.301 81.9215 175.162 82.3224 175.106C82.7233 175.051 83.1511 175.087 83.6056 175.215C84.0699 175.345 84.4495 175.537 84.7445 175.79C85.0419 176.042 85.2437 176.336 85.3498 176.671C85.4559 177.006 85.4562 177.36 85.3506 177.732L83.9635 177.342Z" fill="#3300FF"/>
<path d="M93.5768 180.56C93.4563 181.234 93.2243 181.783 92.8808 182.208C92.5373 182.633 92.1221 182.929 91.6351 183.097C91.1501 183.265 90.6329 183.303 90.0835 183.209C89.5321 183.115 89.0576 182.908 88.6599 182.588C88.2623 182.267 87.9753 181.852 87.799 181.341C87.6251 180.828 87.5982 180.236 87.7184 179.563C87.8389 178.889 88.0699 178.34 88.4114 177.915C88.7549 177.49 89.1691 177.194 89.6541 177.025C90.1391 176.857 90.6573 176.82 91.2087 176.914C91.7581 177.007 92.2318 177.213 92.6298 177.531C93.0298 177.85 93.3178 178.266 93.4937 178.779C93.6696 179.292 93.6973 179.886 93.5768 180.56ZM92.0605 180.302C92.1318 179.903 92.1351 179.556 92.0705 179.261C92.0078 178.967 91.8832 178.731 91.6968 178.554C91.5123 178.376 91.2723 178.262 90.9766 178.212C90.6829 178.162 90.4175 178.19 90.1805 178.296C89.9434 178.401 89.7433 178.582 89.5802 178.838C89.4192 179.094 89.303 179.422 89.2317 179.821C89.1604 180.22 89.1561 180.566 89.2187 180.861C89.2834 181.155 89.409 181.392 89.5954 181.569C89.7819 181.747 90.0219 181.861 90.3156 181.911C90.6113 181.961 90.8766 181.933 91.1117 181.827C91.3488 181.721 91.5479 181.541 91.7089 181.284C91.872 181.028 91.9892 180.701 92.0605 180.302Z" fill="#3300FF"/>
<path d="M96.0806 183.935L96.5144 177.725L98.0158 177.824L97.6671 182.816L100.251 182.986L100.166 184.205L96.0806 183.935Z" fill="#3300FF"/>
<path d="M105.036 178.013L105.098 184.238L103.593 184.254L103.532 178.029L105.036 178.013Z" fill="#3300FF"/>
<path d="M110.622 183.931L108.332 184.15L107.718 177.955L110.006 177.737C110.637 177.677 111.193 177.749 111.674 177.953C112.156 178.156 112.544 178.477 112.838 178.917C113.132 179.355 113.311 179.896 113.374 180.539C113.438 181.185 113.369 181.751 113.167 182.238C112.967 182.726 112.65 183.115 112.217 183.407C111.783 183.697 111.252 183.871 110.622 183.931ZM109.703 182.73L110.438 182.66C110.785 182.627 111.073 182.541 111.302 182.401C111.532 182.259 111.695 182.049 111.792 181.771C111.891 181.491 111.918 181.128 111.874 180.682C111.829 180.237 111.732 179.888 111.581 179.635C111.429 179.381 111.226 179.207 110.97 179.114C110.716 179.018 110.412 178.987 110.057 179.02L109.342 179.089L109.703 182.73Z" fill="#3300FF"/>
<path d="M117.501 176.684L118.661 182.8L117.181 183.069L116.021 176.953L117.501 176.684Z" fill="#3300FF"/>
<path d="M120.3 177.38L119.974 176.202L125.06 174.854L125.386 176.032L123.561 176.516L124.896 181.338L123.462 181.718L122.128 176.896L120.3 177.38Z" fill="#3300FF"/>
<path d="M126.925 174.255L128.497 173.66L130.686 175.616L130.737 175.597L131.01 172.709L132.582 172.113L131.978 176.775L132.743 178.708L131.344 179.238L130.579 177.304L126.925 174.255Z" fill="#3300FF"/>
<path d="M138.323 171.387C138.202 171.199 138.041 171.086 137.84 171.049C137.641 171.008 137.409 171.054 137.147 171.186C136.973 171.273 136.84 171.368 136.747 171.471C136.655 171.574 136.601 171.68 136.584 171.788C136.567 171.894 136.583 171.998 136.634 172.099C136.674 172.184 136.728 172.248 136.797 172.293C136.868 172.336 136.952 172.365 137.048 172.378C137.145 172.388 137.254 172.386 137.374 172.371C137.494 172.356 137.625 172.33 137.766 172.293L138.3 172.161C138.607 172.082 138.891 172.039 139.153 172.032C139.416 172.025 139.655 172.053 139.87 172.118C140.087 172.181 140.279 172.283 140.446 172.424C140.613 172.564 140.756 172.744 140.874 172.964C141.054 173.313 141.123 173.656 141.078 173.994C141.033 174.332 140.881 174.649 140.621 174.948C140.362 175.245 140.001 175.51 139.538 175.743C139.072 175.976 138.63 176.111 138.212 176.146C137.794 176.182 137.414 176.107 137.075 175.921C136.735 175.736 136.449 175.429 136.218 175.001L137.506 174.355C137.61 174.527 137.735 174.651 137.883 174.727C138.03 174.803 138.194 174.834 138.374 174.82C138.557 174.806 138.746 174.749 138.944 174.65C139.125 174.559 139.266 174.458 139.368 174.345C139.471 174.233 139.534 174.116 139.558 173.995C139.581 173.874 139.565 173.758 139.508 173.646C139.452 173.543 139.373 173.47 139.271 173.428C139.168 173.385 139.036 173.369 138.876 173.382C138.716 173.392 138.523 173.424 138.295 173.479L137.643 173.636C137.104 173.769 136.632 173.782 136.227 173.677C135.821 173.571 135.509 173.308 135.291 172.889C135.111 172.549 135.046 172.204 135.098 171.853C135.15 171.503 135.303 171.174 135.557 170.865C135.812 170.556 136.15 170.295 136.572 170.083C137.003 169.867 137.415 169.752 137.808 169.738C138.202 169.722 138.556 169.8 138.868 169.972C139.18 170.144 139.428 170.4 139.611 170.741L138.323 171.387Z" fill="#3300FF"/>
<path d="M146.926 166.676L145.648 167.499C145.544 167.38 145.43 167.286 145.307 167.216C145.184 167.145 145.054 167.101 144.917 167.083C144.781 167.065 144.64 167.075 144.494 167.113C144.35 167.148 144.206 167.212 144.063 167.304C143.809 167.467 143.631 167.67 143.529 167.911C143.43 168.151 143.408 168.419 143.466 168.714C143.525 169.009 143.665 169.321 143.887 169.65C144.117 169.993 144.36 170.249 144.615 170.417C144.871 170.583 145.129 170.667 145.388 170.668C145.649 170.667 145.903 170.586 146.152 170.426C146.292 170.336 146.407 170.237 146.498 170.128C146.59 170.018 146.657 169.902 146.698 169.779C146.74 169.653 146.757 169.523 146.748 169.389C146.739 169.253 146.704 169.115 146.642 168.977L147.925 168.162C148.057 168.405 148.141 168.673 148.178 168.968C148.217 169.261 148.2 169.562 148.129 169.87C148.057 170.176 147.918 170.473 147.711 170.761C147.505 171.047 147.223 171.306 146.863 171.537C146.389 171.842 145.896 172.012 145.383 172.048C144.871 172.082 144.373 171.97 143.891 171.714C143.409 171.459 142.977 171.047 142.596 170.481C142.213 169.912 141.999 169.36 141.953 168.824C141.907 168.287 142.003 167.796 142.24 167.349C142.477 166.903 142.828 166.53 143.293 166.231C143.61 166.027 143.932 165.882 144.261 165.796C144.588 165.709 144.909 165.683 145.226 165.718C145.541 165.751 145.844 165.847 146.133 166.005C146.423 166.163 146.687 166.387 146.926 166.676Z" fill="#3300FF"/>
<path d="M152.795 167.196L151.542 168.218L149.127 162.156L150.679 160.89L156.349 164.295L155.096 165.318L150.939 162.701L150.901 162.732L152.795 167.196ZM151.037 165.469L153.655 163.332L154.398 164.201L151.779 166.338L151.037 165.469Z" fill="#3300FF"/>
<path d="M157.615 154.246L162.171 158.489L161.279 159.403L156.921 158.728L156.893 158.756L159.522 161.205L158.472 162.283L153.917 158.039L154.821 157.112L159.156 157.803L159.192 157.766L156.567 155.321L157.615 154.246Z" fill="#3300FF"/>
<path d="M163.033 149.561L162.012 148.888L165.003 144.559L166.023 145.231L164.95 146.784L169.127 149.539L168.284 150.76L164.107 148.005L163.033 149.561Z" fill="#3300FF"/>
<path d="M171.644 145.565L166.138 142.661L168.236 138.862L169.317 139.432L167.946 141.914L169.075 142.51L170.339 140.222L171.423 140.793L170.159 143.081L171.291 143.678L172.662 141.196L173.743 141.765L171.644 145.565Z" fill="#3300FF"/>
<path d="M175.609 137.771L174.982 139.261L170.02 135.005L170.797 133.159L177.389 133.543L176.762 135.034L171.873 134.646L171.854 134.691L175.609 137.771ZM173.252 137.057L174.564 133.941L175.624 134.367L174.313 137.483L173.252 137.057Z" fill="#3300FF"/>
<path d="M172.311 129.252L172.814 127.458L176.964 126.932L176.984 126.861L173.688 124.344L174.191 122.55L180.205 124.158L179.809 125.569L176.115 124.581L176.101 124.631L179.353 127.048L179.1 127.95L175.02 128.406L175.006 128.456L178.72 129.449L178.324 130.86L172.311 129.252Z" fill="#3300FF"/>
<circle cx="103.732" cy="103.578" r="63.5773" fill="url(#paint3_linear_1330_6468)" stroke="url(#paint4_linear_1330_6468)" stroke-width="1.17614"/>
<path d="M28.1639 86.3917C27.9321 86.3735 27.7384 86.4354 27.5828 86.5774C27.4255 86.717 27.32 86.937 27.2665 87.2373C27.2311 87.4362 27.2275 87.6063 27.2557 87.7477C27.284 87.8891 27.3378 88.0008 27.4172 88.0826C27.4946 88.1641 27.5911 88.2158 27.7069 88.2377C27.8015 88.2581 27.8888 88.2538 27.9688 88.2248C28.0491 88.1937 28.1245 88.1425 28.1948 88.0713C28.2635 87.9977 28.3289 87.9064 28.391 87.7975C28.4532 87.6886 28.5127 87.5643 28.5696 87.4246L28.7915 86.899C28.916 86.5959 29.0567 86.3339 29.2135 86.1131C29.3707 85.8902 29.5427 85.7104 29.7294 85.5737C29.9166 85.4349 30.1203 85.3406 30.3407 85.2907C30.5611 85.2408 30.7991 85.2366 31.0545 85.2781C31.4564 85.3489 31.7835 85.5093 32.036 85.7594C32.2884 86.0095 32.4578 86.3362 32.5441 86.7393C32.6307 87.1404 32.6268 87.6061 32.5324 88.1364C32.4376 88.6687 32.2751 89.119 32.0449 89.4874C31.8148 89.8557 31.5174 90.1219 31.1527 90.2858C30.7881 90.4498 30.3564 90.4924 29.8576 90.4137L30.1199 88.941C30.3274 88.9636 30.5083 88.9379 30.6625 88.864C30.8167 88.79 30.9441 88.6741 31.0449 88.5163C31.146 88.3564 31.2167 88.1636 31.2569 87.9378C31.2938 87.7307 31.2972 87.5498 31.267 87.3953C31.2372 87.2387 31.1796 87.1125 31.0941 87.0168C31.0086 86.9211 30.9017 86.8613 30.7735 86.8372C30.6529 86.8188 30.5436 86.8385 30.4457 86.8965C30.3457 86.9541 30.2511 87.0532 30.162 87.1938C30.0711 87.332 29.9781 87.5125 29.8828 87.7352L29.6089 88.3736C29.3842 88.9029 29.1027 89.302 28.7642 89.5707C28.4237 89.8391 28.012 89.9311 27.5293 89.8465C27.1349 89.7813 26.8085 89.6167 26.55 89.3528C26.2914 89.0888 26.1128 88.7542 26.0141 88.3489C25.9154 87.9436 25.909 87.4996 25.9949 87.017C26.0828 86.5241 26.2429 86.1107 26.4755 85.7769C26.7063 85.4407 26.9899 85.1978 27.3264 85.0482C27.6628 84.8986 28.0295 84.8556 28.4263 84.919L28.1639 86.3917Z" fill="#3300FF"/>
<path d="M33.4941 83.312L27.2647 81.5941L28.511 77.2632L29.7337 77.6004L28.9194 80.43L30.197 80.7823L30.9475 78.1741L32.1733 78.5122L31.4228 81.1204L32.7033 81.4736L33.5176 78.6439L34.7404 78.9811L33.4941 83.312Z" fill="#3300FF"/>
<path d="M33.9441 69.7185L33.344 71.1779C33.1853 71.138 33.0329 71.1243 32.8867 71.1368C32.7406 71.1493 32.6041 71.1882 32.4771 71.2535C32.3502 71.3188 32.2363 71.4107 32.1352 71.5292C32.0331 71.645 31.9484 71.7846 31.8811 71.948C31.7619 72.238 31.7305 72.5162 31.7869 72.7826C31.8442 73.0472 31.9846 73.2891 32.2083 73.5083C32.4327 73.7257 32.7367 73.9099 33.1203 74.0611C33.5195 74.2184 33.8773 74.2939 34.1938 74.2874C34.5091 74.2783 34.7777 74.1976 34.9995 74.0453C35.2201 73.8903 35.3889 73.6707 35.5057 73.3866C35.5713 73.227 35.6104 73.074 35.6229 72.9274C35.6362 72.7789 35.6242 72.6396 35.5867 72.5095C35.5481 72.3767 35.4852 72.2558 35.3981 72.1469C35.3099 72.0352 35.1985 71.9382 35.0641 71.8558L35.6731 70.3998C35.9288 70.53 36.1594 70.7102 36.3649 70.9405C36.5712 71.1687 36.7354 71.4358 36.8575 71.7417C36.9776 72.0469 37.0347 72.3837 37.0287 72.7522C37.0235 73.1187 36.9365 73.5073 36.7677 73.9179C36.5452 74.4588 36.2266 74.8963 35.8118 75.2303C35.3958 75.5616 34.9071 75.7602 34.3456 75.8261C33.7841 75.892 33.1736 75.795 32.5141 75.5351C31.8527 75.2745 31.3436 74.928 30.987 74.4957C30.6303 74.0635 30.4206 73.5863 30.3579 73.0641C30.2952 72.5419 30.3731 72.0152 30.5916 71.4839C30.7404 71.122 30.9289 70.8073 31.1571 70.54C31.3833 70.2719 31.6413 70.0592 31.9311 69.9021C32.2189 69.7441 32.5327 69.6473 32.8726 69.6117C33.2125 69.576 33.5696 69.6116 33.9441 69.7185Z" fill="#3300FF"/>
<path d="M35.0962 62.5834L35.8561 61.222L39.5312 63.1879C39.9559 63.4151 40.27 63.7131 40.4735 64.082C40.6752 64.45 40.7623 64.8592 40.7348 65.3097C40.7054 65.7593 40.5585 66.221 40.2939 66.6951C40.0262 67.1746 39.7071 67.5478 39.3365 67.8148C38.964 68.0808 38.5657 68.2292 38.1415 68.26C37.7154 68.2897 37.29 68.191 36.8653 67.9638L33.1903 65.998L33.9517 64.6338L37.5071 66.5357C37.7037 66.6408 37.9026 66.6923 38.1037 66.6902C38.3058 66.6862 38.4936 66.6303 38.6669 66.5226C38.8402 66.4149 38.9838 66.2591 39.0976 66.0551C39.2114 65.8512 39.2673 65.6497 39.2653 65.4506C39.2643 65.2496 39.2109 65.0648 39.1051 64.8961C38.9994 64.7274 38.8482 64.5905 38.6516 64.4853L35.0962 62.5834Z" fill="#3300FF"/>
<path d="M43.142 61.8765L37.8141 58.221L39.3685 56.0499C39.6503 55.6564 39.9654 55.3662 40.3139 55.1793C40.6619 54.9894 41.0252 54.9083 41.4037 54.9358C41.7805 54.9622 42.151 55.1003 42.5153 55.3502C42.8847 55.6037 43.1416 55.8986 43.2861 56.235C43.4289 56.5702 43.4632 56.9305 43.389 57.3159C43.3131 57.7001 43.1318 58.0924 42.8452 58.4927L41.8622 59.8657L40.8476 59.1696L41.6616 58.0327C41.7988 57.8411 41.8882 57.6639 41.9297 57.501C41.9708 57.3353 41.9632 57.1834 41.9069 57.0453C41.8489 56.906 41.7375 56.7798 41.5727 56.6667C41.4079 56.5537 41.2479 56.4936 41.0926 56.4866C40.9356 56.4783 40.7836 56.5208 40.6368 56.6139C40.4882 56.7059 40.3459 56.8468 40.2099 57.0367L39.7616 57.6629L44.0515 60.6062L43.142 61.8765ZM42.8255 57.2469L46.1975 57.6088L45.2054 58.9946L41.8517 58.607L42.8255 57.2469Z" fill="#3300FF"/>
<path d="M43.6823 50.6312L48.6891 54.7153L47.6764 55.905L42.6696 51.8208L43.6823 50.6312Z" fill="#3300FF"/>
<path d="M49.841 44.2716L54.4632 48.7864L53.5169 49.7147L49.013 48.9105L48.9837 48.9393L51.6514 51.545L50.5362 52.6391L45.914 48.1243L46.8738 47.1827L51.3529 48.0024L51.3912 47.9648L48.728 45.3635L49.841 44.2716Z" fill="#3300FF"/>
<path d="M57.2671 40.9446C57.1556 40.8634 57.0406 40.8048 56.9223 40.7688C56.8026 40.7311 56.6804 40.7154 56.5556 40.7216C56.4308 40.7278 56.3056 40.7569 56.1799 40.8089C56.053 40.8593 55.9279 40.9322 55.8048 41.0275C55.5569 41.2194 55.3899 41.4445 55.3037 41.7027C55.2191 41.9596 55.219 42.239 55.3032 42.5407C55.3861 42.8409 55.5571 43.1513 55.8162 43.472C56.0765 43.7943 56.346 44.0324 56.6246 44.1864C56.9031 44.3404 57.1805 44.4076 57.4567 44.3879C57.7329 44.3682 57.9991 44.2592 58.2553 44.0609C58.4816 43.8857 58.6438 43.7016 58.7421 43.5085C58.8407 43.3125 58.8765 43.1159 58.8497 42.9186C58.8228 42.7213 58.7361 42.5319 58.5893 42.3503L58.8408 42.1995L57.5979 43.1617L56.8822 42.2757L59.0859 40.5697L59.6232 41.2348C59.9867 41.6847 60.2006 42.1454 60.265 42.6168C60.331 43.0868 60.2637 43.5392 60.0631 43.9737C59.8641 44.407 59.545 44.7936 59.1057 45.1337C58.6182 45.5111 58.1059 45.7389 57.5686 45.817C57.0314 45.8952 56.5043 45.8219 55.9874 45.5971C55.4692 45.3707 54.9959 44.9925 54.5677 44.4624C54.2346 44.0501 54.0016 43.6361 53.8687 43.2205C53.7344 42.8032 53.6889 42.397 53.7321 42.0019C53.7769 41.6055 53.9003 41.236 54.1023 40.8935C54.306 40.5497 54.5783 40.2458 54.9194 39.9817C55.2156 39.7525 55.5247 39.581 55.8466 39.4674C56.1703 39.3525 56.4917 39.2951 56.811 39.2952C57.1319 39.2941 57.4385 39.3506 57.7308 39.4647C58.0231 39.5788 58.2854 39.7494 58.5175 39.9766L57.2671 40.9446Z" fill="#3300FF"/>
<path d="M64.4891 35.2127L63.8754 34.1028L68.7028 31.5448L69.3166 32.6548L67.5847 33.5724L70.0976 38.1171L68.7367 38.8382L66.2237 34.2935L64.4891 35.2127Z" fill="#3300FF"/>
<path d="M73.8958 36.2818L71.4249 30.3113L72.8771 29.7353L73.8689 32.1317L76.2364 31.1928L75.2446 28.7964L76.6939 28.2217L79.1649 34.1922L77.7156 34.7669L76.7226 32.3676L74.3551 33.3066L75.3481 35.7059L73.8958 36.2818Z" fill="#3300FF"/>
<path d="M81.8193 33.3736L80.0183 27.1678L84.3602 25.9603L84.7137 27.1784L81.8769 27.9673L82.2462 29.24L84.8611 28.5128L85.2155 29.734L82.6006 30.4612L82.9709 31.7369L85.8077 30.9479L86.1612 32.1661L81.8193 33.3736Z" fill="#3300FF"/>
<path d="M96.0129 25.9677C95.9653 25.7402 95.8516 25.5719 95.6716 25.4628C95.4935 25.3513 95.2528 25.3125 94.9496 25.3462C94.7489 25.3685 94.5847 25.4132 94.4569 25.4803C94.3291 25.5475 94.2371 25.6307 94.1809 25.7301C94.1244 25.8274 94.1019 25.9346 94.1134 26.0519C94.1204 26.1485 94.149 26.231 94.1993 26.2995C94.2517 26.3678 94.3219 26.4256 94.41 26.4729C94.5 26.5179 94.6059 26.5548 94.7279 26.5836C94.8498 26.6124 94.9858 26.6343 95.1358 26.6494L95.7023 26.7134C96.0282 26.747 96.319 26.8078 96.5749 26.8958C96.8329 26.9835 97.0537 27.0976 97.2373 27.2381C97.423 27.3783 97.5707 27.5471 97.6804 27.7444C97.7901 27.9417 97.861 28.1688 97.8929 28.4256C97.9378 28.8312 97.8757 29.1905 97.7066 29.5035C97.5375 29.8165 97.2716 30.0715 96.909 30.2684C96.5485 30.4651 96.1006 30.5932 95.5653 30.6527C95.0279 30.7125 94.5502 30.6841 94.1322 30.5676C93.7141 30.4511 93.3753 30.2411 93.1156 29.9377C92.8559 29.6342 92.6938 29.2321 92.6293 28.7313L94.116 28.5661C94.1525 28.7715 94.2279 28.9378 94.3422 29.0648C94.4565 29.1917 94.6035 29.2812 94.7832 29.3332C94.965 29.385 95.1698 29.3982 95.3977 29.3728C95.6068 29.3496 95.7813 29.3016 95.9211 29.2289C96.063 29.156 96.1679 29.065 96.2357 28.9559C96.3035 28.8467 96.331 28.7273 96.318 28.5975C96.3019 28.4765 96.2522 28.3773 96.1691 28.2997C96.0858 28.2201 95.9641 28.1574 95.8042 28.1117C95.6461 28.0637 95.4469 28.0255 95.2064 27.9972L94.517 27.9151C93.946 27.8495 93.4841 27.6923 93.1312 27.4437C92.7781 27.193 92.5743 26.8241 92.5199 26.337C92.4717 25.9402 92.538 25.5804 92.7187 25.2577C92.8994 24.9349 93.1703 24.6688 93.5315 24.4593C93.8927 24.2499 94.3168 24.118 94.804 24.0639C95.3017 24.0086 95.7433 24.0452 96.1288 24.1738C96.5162 24.3 96.8289 24.5034 97.0669 24.7838C97.3049 25.0643 97.4491 25.4038 97.4996 25.8025L96.0129 25.9677Z" fill="#3300FF"/>
<path d="M100.595 23.6746L102.529 23.6886L104.14 27.7017L104.216 27.7022L105.887 23.713L107.821 23.727L107.772 30.1894L106.251 30.1784L106.281 26.2088L106.228 26.2084L104.646 30.1257L103.674 30.1187L102.151 26.1568L102.097 26.1564L102.067 30.1481L100.546 30.1371L100.595 23.6746Z" fill="#3300FF"/>
<path d="M111.721 30.6115L110.056 30.3918L113.1 24.2746L115.161 24.5468L116.441 31.2347L114.777 31.015L113.932 26.027L113.882 26.0204L111.721 30.6115ZM111.846 28.0624L115.324 28.5217L115.162 29.6972L111.684 29.2379L111.846 28.0624Z" fill="#3300FF"/>
<path d="M118.683 31.7245L120.284 25.4626L122.877 26.0979C123.347 26.213 123.73 26.397 124.028 26.6498C124.329 26.901 124.532 27.2064 124.638 27.5658C124.744 27.9233 124.742 28.316 124.633 28.7441C124.522 29.1782 124.332 29.5239 124.065 29.7811C123.798 30.0362 123.469 30.2004 123.079 30.2738C122.69 30.3452 122.256 30.3223 121.778 30.2051L120.138 29.8034L120.443 28.611L121.801 28.9436C122.029 28.9997 122.228 29.0169 122.396 28.9954C122.567 28.9723 122.708 28.9093 122.819 28.8065C122.931 28.7017 123.011 28.5525 123.061 28.3588C123.11 28.1652 123.111 27.9954 123.064 27.8495C123.017 27.7016 122.924 27.577 122.785 27.4758C122.646 27.3725 122.464 27.2931 122.237 27.2375L121.489 27.0543L120.2 32.0962L118.683 31.7245ZM122.948 29.7284L123.779 32.9732L122.125 32.5677L121.324 29.3304L122.948 29.7284Z" fill="#3300FF"/>
<path d="M127.595 28.7202L128.038 27.5316L133.181 29.3709L132.737 30.5595L130.892 29.8997L129.076 34.7666L127.626 34.248L129.442 29.3811L127.595 28.7202Z" fill="#3300FF"/>
<path d="M144.223 37.5465L142.85 36.7707C142.914 36.6208 142.95 36.4736 142.96 36.3291C142.969 36.1847 142.951 36.0462 142.904 35.9137C142.858 35.7812 142.783 35.6579 142.679 35.5438C142.579 35.4289 142.451 35.328 142.297 35.2412C142.025 35.087 141.75 35.0203 141.474 35.0409C141.201 35.0626 140.937 35.1685 140.683 35.3587C140.431 35.5499 140.201 35.8231 139.991 36.1784C139.773 36.5482 139.644 36.8882 139.603 37.1983C139.564 37.5077 139.605 37.7806 139.724 38.0172C139.846 38.2529 140.041 38.4463 140.309 38.5973C140.459 38.6821 140.606 38.7402 140.752 38.7714C140.899 38.8037 141.04 38.8099 141.176 38.7902C141.315 38.7696 141.446 38.7238 141.568 38.6528C141.694 38.5811 141.808 38.4848 141.911 38.3641L143.279 39.148C143.11 39.3811 142.895 39.5832 142.633 39.7542C142.373 39.9262 142.08 40.0521 141.755 40.1318C141.431 40.2096 141.084 40.2218 140.716 40.1681C140.349 40.1156 139.972 39.9801 139.586 39.7619C139.077 39.4744 138.686 39.1062 138.413 38.6575C138.143 38.208 138.018 37.7046 138.036 37.1473C138.055 36.5899 138.244 36.0058 138.604 35.3949C138.965 34.7822 139.389 34.3296 139.877 34.037C140.364 33.7444 140.874 33.6013 141.407 33.6077C141.941 33.6141 142.457 33.7585 142.957 34.0409C143.298 34.2333 143.585 34.4583 143.819 34.716C144.054 34.9719 144.228 35.2516 144.342 35.5552C144.457 35.8569 144.507 36.1762 144.492 36.513C144.476 36.8498 144.387 37.1943 144.223 37.5465Z" fill="#3300FF"/>
<path d="M151.145 43.5001C150.715 44.0659 150.239 44.4649 149.718 44.6971C149.198 44.9293 148.671 45.0098 148.139 44.9388C147.608 44.869 147.109 44.6636 146.641 44.3226C146.172 43.9804 145.829 43.5693 145.61 43.0894C145.391 42.6094 145.321 42.093 145.398 41.5401C145.479 40.9868 145.734 40.4281 146.163 39.8639C146.594 39.2981 147.069 38.8985 147.588 38.6651C148.108 38.4329 148.634 38.3517 149.165 38.4215C149.696 38.4914 150.196 38.6974 150.665 39.0396C151.132 39.3806 151.476 39.7902 151.696 40.2685C151.917 40.748 151.989 41.265 151.91 41.8196C151.831 42.3741 151.576 42.9343 151.145 43.5001ZM149.856 42.559C150.111 42.2242 150.278 41.906 150.357 41.6043C150.438 41.3038 150.433 41.0285 150.344 40.7782C150.256 40.5291 150.086 40.3129 149.835 40.1293C149.585 39.9471 149.325 39.8496 149.054 39.8371C148.784 39.8245 148.512 39.8983 148.239 40.0587C147.968 40.2202 147.705 40.4684 147.45 40.8032C147.195 41.138 147.027 41.4556 146.947 41.7561C146.868 42.0577 146.873 42.3337 146.962 42.584C147.052 42.8343 147.222 43.0506 147.471 43.2329C147.723 43.4164 147.983 43.5138 148.252 43.5251C148.522 43.5377 148.793 43.4632 149.064 43.3017C149.337 43.1413 149.601 42.8938 149.856 42.559Z" fill="#3300FF"/>
<path d="M159.467 46.6339L154.974 51.2804L154.002 50.3797L154.71 45.9502L154.679 45.9223L152.086 48.6041L150.941 47.5425L155.434 42.896L156.42 43.8096L155.696 48.2152L155.735 48.2517L158.324 45.5745L159.467 46.6339Z" fill="#3300FF"/>
<path d="M160.834 49.8962L161.812 49.0875L165.38 53.2216L164.402 54.0303L163.122 52.5472L159.119 55.8584L158.113 54.6929L162.116 51.3817L160.834 49.8962Z" fill="#3300FF"/>
<path d="M161.747 59.1136L167.13 55.5352L168.651 57.7283C168.927 58.1258 169.092 58.5172 169.147 58.9025C169.205 59.2884 169.153 59.6496 168.992 59.9863C168.833 60.3218 168.57 60.6118 168.202 60.8564C167.829 61.1045 167.456 61.235 167.083 61.2478C166.712 61.2595 166.356 61.163 166.014 60.9583C165.675 60.7525 165.364 60.4474 165.084 60.043L164.122 58.6561L165.147 57.9747L165.943 59.1231C166.078 59.3166 166.215 59.4613 166.356 59.5572C166.5 59.6536 166.647 59.7005 166.799 59.698C166.953 59.6944 167.113 59.6372 167.279 59.5266C167.446 59.4159 167.56 59.2908 167.622 59.1511C167.686 59.0104 167.699 58.8562 167.662 58.6888C167.627 58.5202 167.543 58.3399 167.41 58.1481L166.971 57.5156L162.637 60.3968L161.747 59.1136ZM166.281 60.4671L164.737 63.4246L163.766 62.0247L165.327 59.0932L166.281 60.4671Z" fill="#3300FF"/>
<path d="M166.549 66.5345L165.753 65.0568L172.53 64.011L173.516 65.8414L168.807 70.7258L168.011 69.2482L171.587 65.6941L171.563 65.6496L166.549 66.5345ZM168.703 65.1703L170.367 68.259L169.312 68.8034L167.648 65.7147L168.703 65.1703Z" fill="#3300FF"/>
<path d="M175.697 76.6967L175.119 75.2289C175.262 75.1521 175.383 75.0604 175.482 74.9536C175.58 74.8469 175.652 74.7273 175.7 74.5948C175.747 74.4623 175.766 74.319 175.758 74.1649C175.752 74.0121 175.716 73.8534 175.652 73.689C175.537 73.3974 175.366 73.173 175.139 73.0159C174.913 72.8607 174.642 72.7776 174.325 72.7666C174.01 72.7576 173.659 72.8258 173.273 72.9714C172.872 73.123 172.557 73.3068 172.33 73.5228C172.106 73.74 171.966 73.9784 171.91 74.2378C171.857 74.4985 171.886 74.7717 171.999 75.0574C172.062 75.2179 172.14 75.3559 172.233 75.4714C172.327 75.5889 172.433 75.6827 172.551 75.7528C172.671 75.8241 172.802 75.8705 172.941 75.892C173.084 75.9148 173.233 75.9114 173.388 75.8818L173.957 77.353C173.68 77.4286 173.385 77.4508 173.075 77.4197C172.765 77.3906 172.459 77.3049 172.156 77.1628C171.856 77.0199 171.579 76.8117 171.327 76.5383C171.075 76.2668 170.868 75.9246 170.706 75.5117C170.491 74.9676 170.419 74.4349 170.49 73.9137C170.563 73.3938 170.782 72.9222 171.147 72.4991C171.512 72.076 172.026 71.7392 172.689 71.4889C173.355 71.2378 173.968 71.1512 174.53 71.2292C175.092 71.3071 175.578 71.516 175.988 71.8559C176.398 72.1959 176.708 72.633 176.918 73.1673C177.062 73.5313 177.143 73.8872 177.162 74.2351C177.184 74.5822 177.143 74.91 177.041 75.2184C176.94 75.526 176.778 75.8063 176.555 76.0593C176.331 76.3124 176.045 76.5248 175.697 76.6967Z" fill="#3300FF"/>
<path d="M177.542 79.0036L178.77 78.6879L180.185 83.9632L178.956 84.2789L178.449 82.3864L173.418 83.6793L173.019 82.1921L178.05 80.8992L177.542 79.0036Z" fill="#3300FF"/>
<path d="M179.353 90.4912C179.578 90.4362 179.742 90.3171 179.843 90.1339C179.947 89.9525 179.975 89.7111 179.928 89.4097C179.897 89.2102 179.845 89.0478 179.772 88.9226C179.699 88.7973 179.612 88.7083 179.51 88.6555C179.41 88.6024 179.302 88.5835 179.185 88.5989C179.088 88.609 179.007 88.6403 178.941 88.6928C178.875 88.7473 178.82 88.8193 178.776 88.9088C178.735 89 178.703 89.107 178.68 89.2296C178.656 89.3522 178.64 89.4886 178.632 89.6387L178.593 90.2061C178.573 90.5323 178.525 90.8245 178.448 91.0827C178.372 91.343 178.267 91.5671 178.135 91.7549C178.003 91.9449 177.84 92.0979 177.648 92.2139C177.455 92.3299 177.231 92.4081 176.975 92.4485C176.571 92.5068 176.209 92.4568 175.888 92.2985C175.568 92.1402 175.301 91.8834 175.088 91.5282C174.875 91.175 174.727 90.7324 174.644 90.2004C174.561 89.6662 174.568 89.1887 174.666 88.7677C174.764 88.3468 174.96 88.0017 175.252 87.7325C175.544 87.4633 175.939 87.2883 176.438 87.2073L176.669 88.685C176.465 88.7283 176.302 88.8091 176.179 88.9273C176.057 89.0456 175.974 89.1952 175.93 89.3762C175.886 89.5593 175.882 89.7641 175.918 89.9907C175.95 90.1985 176.006 90.371 176.085 90.508C176.164 90.6472 176.26 90.7488 176.372 90.8128C176.484 90.8769 176.605 90.9003 176.734 90.883C176.854 90.8629 176.952 90.8101 177.025 90.7246C177.102 90.6387 177.159 90.5153 177.198 90.3542C177.239 90.1949 177.268 89.9949 177.286 89.754L177.338 89.0635C177.378 88.4916 177.515 88.0255 177.749 87.6652C177.984 87.3046 178.344 87.089 178.829 87.0185C179.224 86.9573 179.587 87.0115 179.918 87.181C180.249 87.3506 180.528 87.612 180.753 87.9654C180.979 88.3187 181.129 88.7375 181.205 89.2218C181.282 89.7165 181.265 90.1583 181.153 90.5472C181.044 90.9379 180.854 91.2566 180.584 91.5034C180.314 91.7501 179.98 91.9053 179.583 91.9689L179.353 90.4912Z" fill="#3300FF"/>
<mask id="mask0_1330_6468" style="mask-type:alpha" maskUnits="userSpaceOnUse" x="61" y="51" width="85" height="107">
<path d="M103.302 157.169C103.578 157.313 103.884 157.313 104.159 157.169C108.595 154.846 145.981 134.385 145.981 104.577V68.2917C145.981 67.8802 145.726 67.5119 145.341 67.3674L104.078 51.8937C103.854 51.8098 103.608 51.8098 103.384 51.8937L62.121 67.3674C61.7357 67.5119 61.4805 67.8802 61.4805 68.2917V104.577C61.4805 134.385 98.8665 154.846 103.302 157.169Z" fill="#806CCF"/>
</mask>
<g mask="url(#mask0_1330_6468)">
<line x1="17.6255" y1="108.027" x2="99.9922" y2="190.394" stroke="#75D647" stroke-width="0.719515"/>
<line x1="20.9692" y1="104.709" x2="103.336" y2="187.075" stroke="#75D647" stroke-width="0.719515"/>
<line x1="24.2778" y1="101.38" x2="106.645" y2="183.747" stroke="#75D647" stroke-width="0.719515"/>
<line x1="27.6099" y1="98.0513" x2="109.977" y2="180.418" stroke="#75D647" stroke-width="0.719515"/>
<line x1="30.9341" y1="94.7222" x2="113.301" y2="177.089" stroke="#75D647" stroke-width="0.719515"/>
<line x1="34.2505" y1="91.4038" x2="116.617" y2="173.771" stroke="#75D647" stroke-width="0.719515"/>
<line x1="37.5825" y1="88.0855" x2="119.949" y2="170.452" stroke="#75D647" stroke-width="0.719515"/>
<line x1="40.8989" y1="84.7573" x2="123.266" y2="167.124" stroke="#75D647" stroke-width="0.719515"/>
<line x1="44.227" y1="81.4273" x2="126.594" y2="163.794" stroke="#75D647" stroke-width="0.719515"/>
<line x1="47.563" y1="78.0991" x2="129.93" y2="160.466" stroke="#75D647" stroke-width="0.719515"/>
<line x1="50.8911" y1="74.77" x2="133.258" y2="157.137" stroke="#75D647" stroke-width="0.719515"/>
<line x1="54.2036" y1="71.4517" x2="136.57" y2="153.818" stroke="#75D647" stroke-width="0.719515"/>
<line x1="57.5317" y1="68.1333" x2="139.898" y2="150.5" stroke="#75D647" stroke-width="0.719515"/>
<line x1="60.8716" y1="64.8042" x2="143.238" y2="147.171" stroke="#75D647" stroke-width="0.719515"/>
<line x1="64.1841" y1="61.4751" x2="146.551" y2="143.842" stroke="#75D647" stroke-width="0.719515"/>
<line x1="67.52" y1="58.147" x2="149.887" y2="140.514" stroke="#75D647" stroke-width="0.719515"/>
<line x1="70.8364" y1="54.8169" x2="153.203" y2="137.184" stroke="#75D647" stroke-width="0.719515"/>
<line x1="74.1645" y1="51.4985" x2="156.531" y2="133.865" stroke="#75D647" stroke-width="0.719515"/>
<line x1="77.4888" y1="48.1704" x2="159.855" y2="130.537" stroke="#75D647" stroke-width="0.719515"/>
<line x1="80.8091" y1="44.8413" x2="163.176" y2="127.208" stroke="#75D647" stroke-width="0.719515"/>
<line x1="84.1411" y1="41.5239" x2="166.508" y2="123.891" stroke="#75D647" stroke-width="0.719515"/>
<line x1="87.4731" y1="38.1939" x2="169.84" y2="120.561" stroke="#75D647" stroke-width="0.719515"/>
<line x1="90.8052" y1="34.8755" x2="173.172" y2="117.242" stroke="#75D647" stroke-width="0.719515"/>
<line x1="94.0981" y1="31.5474" x2="176.465" y2="113.914" stroke="#75D647" stroke-width="0.719515"/>
<line x1="97.4419" y1="28.2183" x2="179.809" y2="110.585" stroke="#75D647" stroke-width="0.719515"/>
<line x1="100.762" y1="24.8989" x2="183.129" y2="107.266" stroke="#75D647" stroke-width="0.719515"/>
<line x1="104.09" y1="21.5708" x2="186.457" y2="103.938" stroke="#75D647" stroke-width="0.719515"/>
<line x1="107.415" y1="18.2524" x2="189.781" y2="100.619" stroke="#75D647" stroke-width="0.719515"/>
</g>
<path d="M85.4984 85.92V96.1306H89.5967V87.9621H97.7932V83.8779H87.5475C87.004 83.8779 86.4828 84.0931 86.0985 84.476C85.7143 84.859 85.4984 85.3784 85.4984 85.92ZM122.383 96.1306V85.92C122.383 85.3784 122.167 84.859 121.783 84.476C121.399 84.0931 120.877 83.8779 120.334 83.8779H110.088V87.9621H118.285V96.1306H122.383ZM118.285 116.552H110.088V120.636H120.334C120.877 120.636 121.399 120.421 121.783 120.038C122.167 119.655 122.383 119.135 122.383 118.594V108.383H118.285V116.552ZM97.7932 120.636V116.552H89.5967V108.383H85.4984V118.594C85.4984 119.135 85.7143 119.655 86.0985 120.038C86.4828 120.421 87.004 120.636 87.5475 120.636H97.7932ZM83.4492 100.215H124.432V104.299H83.4492V100.215Z" fill="#3300FF"/>
<path d="M27.949 99.4824L29.898 103.472L34.2942 104.092L31.1026 107.179L31.8705 111.552L27.949 109.47L24.0275 111.552L24.7955 107.179L21.6039 104.092L26 103.472L27.949 99.4824Z" fill="#3300FF"/>
<path d="M179.004 99.4824L180.953 103.472L185.349 104.092L182.157 107.179L182.925 111.552L179.004 109.47L175.082 111.552L175.85 107.179L172.659 104.092L177.055 103.472L179.004 99.4824Z" fill="#3300FF"/>
<defs>
<linearGradient id="paint0_linear_1330_6468" x1="19.9607" y1="14.7857" x2="212.79" y2="171.96" gradientUnits="userSpaceOnUse">
<stop stop-color="#52FF00"/>
<stop offset="1" stop-color="#00EEFD"/>
</linearGradient>
<linearGradient id="paint1_linear_1330_6468" x1="103.717" y1="12.4355" x2="103.717" y2="195.192" gradientUnits="userSpaceOnUse">
<stop stop-color="white"/>
<stop offset="1" stop-color="white" stop-opacity="0"/>
</linearGradient>
<linearGradient id="paint2_linear_1330_6468" x1="103.717" y1="12.4355" x2="103.717" y2="195.192" gradientUnits="userSpaceOnUse">
<stop stop-color="#52FF00"/>
<stop offset="1" stop-color="#01EDFC"/>
</linearGradient>
<linearGradient id="paint3_linear_1330_6468" x1="103.732" y1="39.4131" x2="103.732" y2="167.744" gradientUnits="userSpaceOnUse">
<stop stop-color="white" stop-opacity="0"/>
<stop offset="1" stop-color="white"/>
</linearGradient>
<linearGradient id="paint4_linear_1330_6468" x1="103.732" y1="39.4131" x2="103.732" y2="167.744" gradientUnits="userSpaceOnUse">
<stop stop-color="#52FF00"/>
<stop offset="1" stop-color="#00EEFD"/>
</linearGradient>
</defs>
</svg>
