<svg width="318" height="85" viewBox="0 0 318 85" fill="none" xmlns="http://www.w3.org/2000/svg">
<path d="M0 33.1806L21.2345 13.8194H77.91L86 9H310.6C312.836 9 313.954 9 314.841 9.35112C316.124 9.85935 317.141 10.8757 317.649 12.1594C318 13.0462 318 14.1641 318 16.4V61.8026L290.123 85H7.4C5.16413 85 4.0462 85 3.15938 84.6489C1.87573 84.1406 0.85935 83.1243 0.351118 81.8406C0 80.9538 0 79.8359 0 77.6V33.1806Z" fill="#4A3939"/>
<path fill-rule="evenodd" clip-rule="evenodd" d="M318 10.4061C318 4.6594 313.359 0.000743476 307.633 0.000723808L96.9277 0L83.7358 8.52949L25.2299 8.53025L8.46088 23.9324H7V66.5946C7 72.3414 11.6413 77 17.3667 77H291.601L318 56.1892V10.4061Z" fill="#FCFC03"/>
<path d="M149.68 49.8224H145.892C145.593 49.8224 145.444 49.7475 145.313 49.504L139.062 39.1464V49.4291C139.062 49.6726 138.913 49.8224 138.651 49.8224H136.674C136.394 49.8224 136.263 49.6726 136.263 49.4291V37.1049C136.263 36.8615 136.394 36.7115 136.674 36.7115H140.443C140.741 36.7115 140.891 36.8052 141.021 37.03L147.272 47.4062V37.1049C147.272 36.8615 147.44 36.7115 147.702 36.7115H149.68C149.941 36.7115 150.09 36.8615 150.09 37.1049V49.4291C150.09 49.6726 149.941 49.8224 149.68 49.8224Z" fill="black"/>
<path d="M131.909 39.7084V46.8256C131.909 48.8858 130.939 49.8224 128.793 49.8224H121.291C119.164 49.8224 118.157 48.8858 118.157 46.8256V39.7084C118.157 37.6481 119.164 36.7115 121.291 36.7115H128.793C130.939 36.7115 131.909 37.6481 131.909 39.7084ZM128.886 45.9641V40.57C128.886 39.4087 128.606 39.1652 127.225 39.1652H122.84C121.459 39.1652 121.179 39.4087 121.179 40.57V45.9641C121.179 47.1254 121.459 47.3688 122.84 47.3688H127.225C128.606 47.3688 128.886 47.1254 128.886 45.9641Z" fill="black"/>
<path d="M99.4523 49.4291V39.1652H94.8246C94.5447 39.1652 94.4141 39.0154 94.4141 38.7719V37.1049C94.4141 36.8615 94.5447 36.7115 94.8246 36.7115H107.084C107.364 36.7115 107.495 36.8615 107.495 37.1049V38.7719C107.495 39.0154 107.364 39.1652 107.084 39.1652H102.475V49.4291C102.475 49.6726 102.307 49.8224 102.046 49.8224H99.8628C99.6016 49.8224 99.4523 49.6726 99.4523 49.4291Z" fill="black"/>
<path d="M85.6834 37.1049V47.3688H94.1924C94.4536 47.3688 94.6029 47.5187 94.6029 47.7622V49.4291C94.6029 49.6726 94.4536 49.8224 94.1924 49.8224H83.071C82.7911 49.8224 82.6605 49.6726 82.6605 49.4291V37.1049C82.6605 36.8615 82.7911 36.7115 83.071 36.7115H85.2542C85.5155 36.7115 85.6834 36.8615 85.6834 37.1049Z" fill="black"/>
<path d="M78.0947 37.1049V49.4291C78.0947 49.6726 77.9268 49.8224 77.6655 49.8224H75.4823C75.2024 49.8224 75.0718 49.6726 75.0718 49.4291V37.1049C75.0718 36.8615 75.2024 36.7115 75.4823 36.7115H77.6655C77.9268 36.7115 78.0947 36.8615 78.0947 37.1049Z" fill="black"/>
<path d="M60.3731 37.1049V45.9641C60.3731 47.1254 60.6343 47.3688 62.0338 47.3688H65.9151C67.3146 47.3688 67.5945 47.1254 67.5945 45.9641V37.1049C67.5945 36.8615 67.7438 36.7115 68.005 36.7115H70.1883C70.4495 36.7115 70.6174 36.8615 70.6174 37.1049V46.8256C70.6174 48.8858 69.6471 49.8224 67.5012 49.8224H60.4851C58.3392 49.8224 57.3502 48.8858 57.3502 46.8256V37.1049C57.3502 36.8615 57.4808 36.7115 57.7607 36.7115H59.9439C60.2238 36.7115 60.3731 36.8615 60.3731 37.1049Z" fill="black"/>
<path d="M53.3169 40.3827C53.3169 42.0121 52.7385 42.8924 51.4323 43.1921C52.8877 43.4543 53.5035 44.3346 53.5035 46.039V46.9005C53.5035 48.9046 52.5705 49.8224 50.4619 49.8224H40.5535C40.2736 49.8224 40.143 49.6726 40.143 49.4291V37.1049C40.143 36.8615 40.2736 36.7115 40.5535 36.7115H50.2567C52.3653 36.7115 53.3169 37.6294 53.3169 39.6335V40.3827ZM49.1184 44.4095H43.1659V47.3688H49.1184C50.2007 47.3688 50.4806 47.1066 50.4806 46.1701V45.6082C50.4806 44.6718 50.2007 44.4095 49.1184 44.4095ZM43.1659 39.1652V42.0121H48.9318C49.9954 42.0121 50.294 41.7312 50.294 40.8133V40.3639C50.294 39.4274 49.9954 39.1652 48.9318 39.1652H43.1659Z" fill="black"/>
<path d="M284.857 35.2422L279.948 31.5556H261.784L260.602 35.2422H270.184L265.038 51.1564H269.002L274.129 35.2422H284.857Z" fill="black"/>
<path d="M217.075 31.5556L212.148 35.2422H230.73L231.93 31.5556H217.075Z" fill="black"/>
<path d="M212.142 35.2331L206.997 51.1473H210.96L215.342 37.5873L212.142 35.2331Z" fill="black"/>
<path d="M231.926 31.5556L226.562 48.1451L228.434 47.9991L220.743 42.1408H215.034L226.434 51.1564H229.543L235.126 33.9099L231.926 31.5556Z" fill="black"/>
<path d="M183.712 41.1735L188.386 38.8558L189.985 33.9099L186.785 31.5556H165.403L160.457 35.2422H185.584L184.258 39.4032H174.184L173.203 42.4145H183.276L180.457 51.1564L185.167 48.8021L186.858 43.5643L183.694 41.2283L183.712 41.1735Z" fill="black"/>
<path d="M167.567 47.3831L170.477 38.2944L167.241 35.8671L162.404 51.1427H180.459L181.659 47.3831H167.567Z" fill="black"/>
<path d="M196.047 33.5705L192.846 31.2162L187.21 48.627L190.61 51.1455H204.974L206.192 47.386H191.573L196.047 33.5705Z" fill="black"/>
<path d="M239.568 39.4854L240.204 37.5691L237.023 35.2331L235.205 40.8177L238.367 43.1354V43.1537H252.55L251.187 47.3878H233.131L231.932 51.1473H249.969L254.696 48.793L257.023 41.6024L254.096 39.4489L239.568 39.4854Z" fill="black"/>
<path d="M241.938 31.5556L237.029 35.2422H258.648L259.847 31.5556H241.938Z" fill="black"/>
<path d="M18.4033 40.6822L23.9668 35.2772H41.7698L45.4258 32.2568H108.593C111.456 32.2568 113.777 34.5861 113.777 37.4595V47.9949L106.624 55.1487H23.5867C20.724 55.1487 18.4033 52.8193 18.4033 49.9459V40.6822Z" fill="#FCFC03"/>
<path d="M39.1595 40.5062C39.1595 41.3303 39.0102 41.9671 38.7116 42.4166C38.4131 42.8661 37.9341 43.1658 37.2748 43.3156C38.0088 43.453 38.5375 43.7464 38.8609 44.1959C39.1844 44.6454 39.3461 45.301 39.3461 46.1625V47.0241C39.3461 48.0355 39.1035 48.7785 38.6183 49.2529C38.1332 49.715 37.3619 49.9459 36.3045 49.9459H26.396C26.1224 49.9459 25.9855 49.8148 25.9855 49.5526V37.2285C25.9855 36.9662 26.1224 36.8351 26.396 36.8351H36.0992C37.1566 36.8351 37.9279 37.0724 38.4131 37.5469C38.9107 38.0089 39.1595 38.7456 39.1595 39.757V40.5062ZM29.0084 44.5331V47.4924H34.961C35.5083 47.4924 35.8691 47.4112 36.0433 47.2489C36.2299 47.0865 36.3232 46.7681 36.3232 46.2937V45.7318C36.3232 45.2573 36.2299 44.9389 36.0433 44.7765C35.8691 44.6142 35.5083 44.5331 34.961 44.5331H29.0084ZM29.0084 42.1357H34.7744C35.3093 42.1357 35.6701 42.0545 35.8567 41.8922C36.0433 41.7174 36.1366 41.3989 36.1366 40.9369V40.4874C36.1366 40.0129 36.0433 39.6945 35.8567 39.5322C35.6701 39.3699 35.3093 39.2887 34.7744 39.2887H29.0084V42.1357Z" fill="black"/>
<path d="M48.0817 46.0876C48.0817 46.3748 48.1004 46.6121 48.1377 46.7994C48.1875 46.9866 48.2683 47.1302 48.3803 47.2301C48.5047 47.33 48.6726 47.3987 48.8841 47.4362C49.108 47.4736 49.3941 47.4924 49.7425 47.4924H53.6237C53.9721 47.4924 54.252 47.4736 54.4634 47.4362C54.6874 47.3987 54.8615 47.33 54.9859 47.2301C55.1103 47.1302 55.1912 46.9866 55.2285 46.7994C55.2783 46.6121 55.3031 46.3748 55.3031 46.0876V37.2285C55.3031 36.9662 55.44 36.8351 55.7137 36.8351H57.8969C58.183 36.8351 58.3261 36.9662 58.3261 37.2285V46.9492C58.3261 47.9856 58.0773 48.7472 57.5797 49.2342C57.0821 49.7087 56.2921 49.9459 55.2098 49.9459H48.1937C47.1114 49.9459 46.3152 49.7087 45.8052 49.2342C45.3076 48.7472 45.0588 47.9856 45.0588 46.9492V37.2285C45.0588 36.9662 45.1956 36.8351 45.4693 36.8351H47.6525C47.9387 36.8351 48.0817 36.9662 48.0817 37.2285V46.0876Z" fill="black"/>
<path d="M67.6696 49.5526C67.6696 49.8148 67.5266 49.9459 67.2404 49.9459H65.0572C64.7835 49.9459 64.6467 49.8148 64.6467 49.5526V37.2285C64.6467 36.9662 64.7835 36.8351 65.0572 36.8351H67.2404C67.5266 36.8351 67.6696 36.9662 67.6696 37.2285V49.5526Z" fill="black"/>
<path d="M77.1235 47.4924H85.6325C85.9062 47.4924 86.043 47.6235 86.043 47.8857V49.5526C86.043 49.8148 85.9062 49.9459 85.6325 49.9459H74.5111C74.2374 49.9459 74.1006 49.8148 74.1006 49.5526V37.2285C74.1006 36.9662 74.2374 36.8351 74.5111 36.8351H76.6944C76.9805 36.8351 77.1235 36.9662 77.1235 37.2285V47.4924Z" fill="black"/>
<path d="M100.645 36.8351C101.926 36.8351 102.934 37.1848 103.668 37.884C104.402 38.5708 104.769 39.5385 104.769 40.7871V45.994C104.769 47.2426 104.402 48.2166 103.668 48.9158C102.934 49.6026 101.926 49.9459 100.645 49.9459H91.8372C91.5636 49.9459 91.4267 49.8148 91.4267 49.5526V37.2285C91.4267 36.9662 91.5636 36.8351 91.8372 36.8351H100.645ZM94.4496 47.4924H99.4505C100.296 47.4924 100.894 47.3488 101.242 47.0616C101.59 46.7619 101.764 46.2562 101.764 45.5445V41.2366C101.764 40.5249 101.59 40.0254 101.242 39.7382C100.894 39.4386 100.296 39.2887 99.4505 39.2887H94.4496V47.4924Z" fill="black"/>
<path d="M20 37.2268L26.0765 29.839H42.295L44.6101 28H103.6C105.836 28 106.954 28 107.841 28.3511C109.124 28.8594 110.141 29.8757 110.649 31.1594C111 32.0462 111 33.1641 111 35.4V48.1484L103.023 57H27.4C25.1641 57 24.0462 57 23.1594 56.6489C21.8757 56.1407 20.8594 55.1243 20.3511 53.8406C20 52.9538 20 51.8359 20 49.6V37.2268Z" fill="#FCFC03"/>
<path d="M27.7422 46.048C28.0335 46.048 28.1792 46.181 28.1792 46.447V46.637C28.1792 46.9283 28.2425 47.15 28.3692 47.302C28.5085 47.4413 28.7429 47.511 29.0722 47.511H34.5442C35.0509 47.511 35.3865 47.4413 35.5512 47.302C35.7159 47.15 35.7982 46.8713 35.7982 46.466V45.554C35.7982 45.1487 35.7159 44.8763 35.5512 44.737C35.3865 44.585 35.0509 44.509 34.5442 44.509H28.4452C27.3685 44.509 26.5832 44.2747 26.0892 43.806C25.5952 43.3247 25.3482 42.571 25.3482 41.545V39.664C25.3482 38.638 25.5952 37.8907 26.0892 37.422C26.5832 36.9407 27.3685 36.7 28.4452 36.7H35.5132C36.0832 36.7 36.5645 36.7507 36.9572 36.852C37.3499 36.9533 37.6665 37.1243 37.9072 37.365C38.1605 37.593 38.3379 37.897 38.4392 38.277C38.5532 38.657 38.6102 39.1193 38.6102 39.664V40.253C38.6102 40.519 38.4709 40.652 38.1922 40.652H36.0452C35.7665 40.652 35.6272 40.519 35.6272 40.253V40.063C35.6272 39.7717 35.5512 39.5563 35.3992 39.417C35.2599 39.265 35.0255 39.189 34.6962 39.189H29.6802C29.1735 39.189 28.8379 39.265 28.6732 39.417C28.5085 39.5563 28.4262 39.8287 28.4262 40.234V41.013C28.4262 41.4183 28.5085 41.697 28.6732 41.849C28.8379 42.001 29.1735 42.077 29.6802 42.077H35.7602C36.8495 42.077 37.6412 42.3177 38.1352 42.799C38.6292 43.2677 38.8762 44.015 38.8762 45.041V47.036C38.8762 48.062 38.6292 48.8157 38.1352 49.297C37.6412 49.7657 36.8495 50 35.7602 50H28.2742C27.7042 50 27.2229 49.9493 26.8302 49.848C26.4375 49.7467 26.1145 49.582 25.8612 49.354C25.6205 49.1133 25.4432 48.803 25.3292 48.423C25.2279 48.043 25.1772 47.5807 25.1772 47.036V46.447C25.1772 46.181 25.3165 46.048 25.5952 46.048H27.7422Z" fill="black"/>
<path d="M47.0023 39.189H42.2903C42.0116 39.189 41.8723 39.056 41.8723 38.79V37.099C41.8723 36.833 42.0116 36.7 42.2903 36.7H54.7733C55.0519 36.7 55.1913 36.833 55.1913 37.099V38.79C55.1913 39.056 55.0519 39.189 54.7733 39.189H50.0803V49.601C50.0803 49.867 49.9346 50 49.6433 50H47.4203C47.1416 50 47.0023 49.867 47.0023 49.601V39.189Z" fill="black"/>
<path d="M66.6514 47.454H59.4694L58.5574 49.62C58.494 49.7593 58.418 49.8607 58.3294 49.924C58.2534 49.9747 58.133 50 57.9684 50H55.6124C55.4857 50 55.397 49.962 55.3464 49.886C55.3084 49.7973 55.3147 49.696 55.3654 49.582L60.9324 37.08C61.021 36.8267 61.2174 36.7 61.5214 36.7H64.7514C64.916 36.7 65.0364 36.7317 65.1124 36.795C65.201 36.8457 65.277 36.9407 65.3404 37.08L70.9074 49.582C70.958 49.696 70.958 49.7973 70.9074 49.886C70.8694 49.962 70.7934 50 70.6794 50H68.1714C67.994 50 67.8674 49.9747 67.7914 49.924C67.7154 49.8607 67.6457 49.7593 67.5824 49.62L66.6514 47.454ZM60.4954 45.022H65.6254L63.0604 38.999L60.4954 45.022Z" fill="black"/>
<path d="M84.7391 36.7C85.8284 36.7 86.6201 36.9407 87.1141 37.422C87.6081 37.8907 87.8551 38.638 87.8551 39.664V42.286C87.8551 43.312 87.6081 44.0847 87.1141 44.604C86.6201 45.1233 85.8284 45.383 84.7391 45.383H84.2261L88.2541 49.601C88.3428 49.677 88.3681 49.7657 88.3301 49.867C88.2921 49.9557 88.2224 50 88.1211 50H85.2521C85.0748 50 84.9354 49.981 84.8341 49.943C84.7454 49.8923 84.6504 49.81 84.5491 49.696L80.8061 45.516H77.4241V49.601C77.4241 49.867 77.2784 50 76.9871 50H74.7641C74.4854 50 74.3461 49.867 74.3461 49.601V37.099C74.3461 36.833 74.4854 36.7 74.7641 36.7H84.7391ZM77.4241 43.027H83.2191C83.5484 43.027 83.8144 43.008 84.0171 42.97C84.2197 42.932 84.3781 42.8687 84.4921 42.78C84.6061 42.6787 84.6821 42.5457 84.7201 42.381C84.7581 42.2037 84.7771 41.9757 84.7771 41.697V40.519C84.7771 40.2403 84.7581 40.0187 84.7201 39.854C84.6821 39.6767 84.6061 39.5437 84.4921 39.455C84.3781 39.3537 84.2197 39.284 84.0171 39.246C83.8144 39.208 83.5484 39.189 83.2191 39.189H77.4241V43.027Z" fill="black"/>
<path d="M96.1202 39.189H91.4082C91.1296 39.189 90.9902 39.056 90.9902 38.79V37.099C90.9902 36.833 91.1296 36.7 91.4082 36.7H103.891C104.17 36.7 104.309 36.833 104.309 37.099V38.79C104.309 39.056 104.17 39.189 103.891 39.189H99.1982V49.601C99.1982 49.867 99.0526 50 98.7612 50H96.5382C96.2596 50 96.1202 49.867 96.1202 49.601V39.189Z" fill="black"/>
</svg>
